<svg id="Layer_1" data-name="Layer 1" xmlns="http://www.w3.org/2000/svg" viewBox="0 0 1074 242"><defs><style>.cls-1,.cls-34{fill:#b2b2b2;}.cls-1,.cls-11,.cls-15,.cls-25,.cls-27,.cls-33{fill-rule:evenodd;}.cls-2,.cls-40,.cls-48,.cls-7{font-size:13.37px;}.cls-2,.cls-7{fill:#595959;}.cls-2,.cls-48,.cls-7{font-family:Interstate-Light, Interstate-Light;}.cls-3{letter-spacing:0.03em;}.cls-4{letter-spacing:-0.03em;}.cls-5{letter-spacing:0.02em;}.cls-6{letter-spacing:0em;}.cls-7{letter-spacing:0.04em;}.cls-8{letter-spacing:-0.06em;}.cls-9{letter-spacing:-0.01em;}.cls-10{letter-spacing:0em;}.cls-11,.cls-35{fill:#5b5b5b;}.cls-12{letter-spacing:-0.04em;}.cls-13{letter-spacing:0.03em;}.cls-14{letter-spacing:0.02em;}.cls-15,.cls-39{fill:#2fc4f2;}.cls-16{letter-spacing:0em;}.cls-17{letter-spacing:0.03em;}.cls-18{letter-spacing:-0.06em;}.cls-19{letter-spacing:0.06em;}.cls-20{letter-spacing:-0.05em;}.cls-21{letter-spacing:-0.06em;}.cls-22{letter-spacing:0.04em;}.cls-23{letter-spacing:0.02em;}.cls-24{letter-spacing:-0.03em;}.cls-25,.cls-36{fill:#ed7d31;}.cls-26{letter-spacing:0.02em;}.cls-27,.cls-37{fill:#70ad47;}.cls-28{letter-spacing:-0.01em;}.cls-29{letter-spacing:0em;}.cls-30{letter-spacing:0.02em;}.cls-31{letter-spacing:-0.04em;}.cls-32{letter-spacing:0em;}.cls-33,.cls-38{fill:#ffc000;}.cls-40{font-family:Interstate-Bold, Interstate-Bold;}.cls-41{letter-spacing:-0.02em;}.cls-42{letter-spacing:-0.03em;}.cls-43{letter-spacing:-0.01em;}.cls-44{letter-spacing:-0.02em;}.cls-45{letter-spacing:-0.02em;}.cls-46{letter-spacing:-0.01em;}.cls-47{letter-spacing:0em;}.cls-48{fill:#fff;}</style></defs><title>Millennials - static graphics v2 - Separate artboards</title><polygon class="cls-1" points="215.36 13.35 230.47 13.35 230.47 28.43 215.36 28.43 215.36 13.35 215.36 13.35"/><text class="cls-2" transform="translate(235.01 25.28)"><tspan class="cls-3">W</tspan><tspan class="cls-4" x="11.81" y="0">h</tspan><tspan class="cls-5" x="19.06" y="0">i</tspan><tspan class="cls-6" x="22.68" y="0">t</tspan><tspan x="27.64" y="0">e</tspan></text><text class="cls-7" transform="translate(303.92 25.28)">B<tspan class="cls-8" x="8.89" y="0">l</tspan><tspan class="cls-5" x="11.42" y="0">a</tspan><tspan class="cls-9" x="18.9" y="0">c</tspan><tspan class="cls-10" x="25.44" y="0">k</tspan></text><polygon class="cls-11" points="284.27 13.35 299.38 13.35 299.38 28.43 284.27 28.43 284.27 13.35 284.27 13.35"/><text class="cls-2" transform="translate(709.03 25.28)"><tspan class="cls-12">H</tspan><tspan class="cls-5" x="8.68" y="0">i</tspan><tspan class="cls-13" x="12.3" y="0">s</tspan><tspan class="cls-4" x="18.88" y="0">p</tspan><tspan class="cls-14" x="26.02" y="0">a</tspan><tspan class="cls-4" x="33.5" y="0">n</tspan><tspan class="cls-5" x="40.75" y="0">i</tspan><tspan x="44.37" y="0">c</tspan></text><polygon class="cls-15" points="689.38 13.35 704.48 13.35 704.48 28.43 689.38 28.43 689.38 13.35 689.38 13.35"/><text class="cls-2" transform="translate(370.15 25.28)"><tspan class="cls-16">A</tspan><tspan class="cls-17" x="9.12" y="0">m</tspan><tspan class="cls-18" x="20.92" y="0"> </tspan><tspan class="cls-6" x="23.6" y="0">I</tspan><tspan class="cls-19" x="27.23" y="0">n</tspan><tspan class="cls-4" x="35.57" y="0">d</tspan><tspan class="cls-5" x="42.71" y="0">i</tspan><tspan class="cls-8" x="46.34" y="0">a</tspan><tspan class="cls-19" x="52.72" y="0">n</tspan><tspan class="cls-20" x="61.06" y="0">/</tspan><tspan class="cls-16" x="66.05" y="0">A</tspan><tspan class="cls-5" x="75.17" y="0">la</tspan><tspan class="cls-21" x="86.27" y="0">s</tspan><tspan class="cls-22" x="91.75" y="0">k</tspan><tspan class="cls-14" x="99.11" y="0">a</tspan><tspan class="cls-18" x="106.58" y="0"> </tspan><tspan class="cls-23" x="109.27" y="0">N</tspan><tspan class="cls-5" x="118.75" y="0">a</tspan><tspan class="cls-6" x="126.23" y="0">t</tspan><tspan class="cls-5" x="131.19" y="0">i</tspan><tspan class="cls-24" x="134.81" y="0">v</tspan><tspan x="141.34" y="0">e</tspan></text><polygon class="cls-25" points="350.5 13.35 365.6 13.35 365.6 28.43 350.5 28.43 350.5 13.35 350.5 13.35"/><text class="cls-2" transform="translate(552.94 25.28)"><tspan class="cls-16">A</tspan><tspan class="cls-26" x="9.12" y="0">s</tspan><tspan class="cls-8" x="15.7" y="0">i</tspan><tspan class="cls-5" x="18.23" y="0">a</tspan><tspan x="25.7" y="0">n</tspan></text><polygon class="cls-27" points="533.29 13.35 548.4 13.35 548.4 28.43 533.29 28.43 533.29 13.35 533.29 13.35"/><text class="cls-2" transform="translate(620.27 25.28)"><tspan class="cls-28">2</tspan><tspan class="cls-29" x="7.53" y="0">+</tspan><tspan class="cls-30" x="15.26" y="0"> </tspan><tspan class="cls-31" x="19.04" y="0">R</tspan><tspan class="cls-5" x="27.17" y="0">a</tspan><tspan class="cls-9" x="34.65" y="0">c</tspan><tspan class="cls-32" x="41.19" y="0">e</tspan><tspan x="48.44" y="0">s</tspan></text><polygon class="cls-33" points="600.62 13.35 615.72 13.35 615.72 28.43 600.62 28.43 600.62 13.35 600.62 13.35"/><polygon class="cls-34" points="759.75 67.57 759.75 122.92 4.34 122.92 4.34 67.57 759.75 67.57 759.75 67.57"/><polygon class="cls-35" points="871.36 67.57 871.36 122.92 770.64 122.92 770.64 67.57 871.36 67.57 871.36 67.57"/><polygon class="cls-36" points="889.45 67.57 889.45 122.92 882.25 122.92 882.25 67.57 889.45 67.57 889.45 67.57"/><polygon class="cls-37" points="943.5 67.57 943.5 122.92 900.33 122.92 900.33 67.57 943.5 67.57 943.5 67.57"/><polygon class="cls-38" points="968.78 67.57 968.78 122.92 954.39 122.92 954.39 67.57 968.78 67.57 968.78 67.57"/><polygon class="cls-39" points="1066 67.57 1066 122.92 979.67 122.92 979.67 67.57 1066 67.57 1066 67.57"/><text class="cls-40" transform="translate(4.34 61.97)"><tspan class="cls-41">B</tspan><tspan x="9.17" y="0">A</tspan><tspan class="cls-42" x="19.2" y="0">B</tspan><tspan x="28.23" y="0">Y </tspan><tspan class="cls-43" x="41.66" y="0">B</tspan><tspan x="51.06" y="0">OOMERS </tspan><tspan class="cls-44" x="112.41" y="0">(</tspan><tspan class="cls-45" x="117.08" y="0">A</tspan><tspan x="126.78" y="0">G</tspan><tspan class="cls-46" x="136.11" y="0">E</tspan><tspan x="144.6" y="0">S </tspan><tspan class="cls-44" x="157.32" y="0">5</tspan><tspan class="cls-47" x="165.97" y="0">5+)</tspan></text><text class="cls-48" transform="translate(367.56 99.31)"><tspan class="cls-9">70</tspan><tspan x="15.86" y="0">%</tspan></text><text class="cls-48" transform="translate(808.52 99.31)">10%</text><text class="cls-2" transform="translate(868.97 62.33)">0.6%</text><text class="cls-48" transform="translate(905.55 99.31)">4.6%</text><text class="cls-2" transform="translate(945.67 62.33)">0.8%</text><text class="cls-48" transform="translate(1007.85 99.31)">9.1%</text><polygon class="cls-34" points="565.5 161.72 565.5 217.08 4.34 217.08 4.34 161.72 565.5 161.72 565.5 161.72"/><polygon class="cls-35" points="718.88 161.72 718.88 217.08 574.99 217.08 574.99 161.72 718.88 161.72 718.88 161.72"/><polygon class="cls-36" points="735.56 161.72 735.56 217.08 728.37 217.08 728.37 161.72 735.56 161.72 735.56 161.72"/><polygon class="cls-37" points="816.8 161.72 816.8 217.08 745.05 217.08 745.05 161.72 816.8 161.72 816.8 161.72"/><polygon class="cls-38" points="847.87 161.72 847.87 217.08 826.29 217.08 826.29 161.72 847.87 161.72 847.87 161.72"/><polygon class="cls-39" points="1066 161.72 1066 217.08 857.36 217.08 857.36 161.72 1066 161.72 1066 161.72"/><text class="cls-40" transform="translate(4.34 156.13)">MILLENNIALS</text><text class="cls-48" transform="translate(320.76 193.79)">55.8%</text><text class="cls-48" transform="translate(628.11 193.79)">13.9%</text><text class="cls-2" transform="translate(718.18 156.13)">0.8%</text><text class="cls-48" transform="translate(764.91 193.79)">6.4%</text><text class="cls-2" transform="translate(818.78 156.13)">2.3%</text><text class="cls-48" transform="translate(942.57 193.79)">20.8%</text></svg>