<svg id="Layer_1" data-name="Layer 1" xmlns="http://www.w3.org/2000/svg" viewBox="0 0 484 284"><defs><style>.cls-1{fill:none;stroke:#d9d9d9;stroke-linejoin:round;stroke-width:1px;}.cls-2,.cls-20{fill:#b2b2b2;}.cls-22,.cls-3{fill:#ed7d31;}.cls-23,.cls-4{fill:#ffd98d;}.cls-10,.cls-14,.cls-17,.cls-21,.cls-5{font-size:11.99px;}.cls-10,.cls-14,.cls-17,.cls-5{font-family:Interstate-Bold, Interstate-Bold;}.cls-5{letter-spacing:0.03em;}.cls-6{letter-spacing:-0.02em;}.cls-7{letter-spacing:0.02em;}.cls-8{letter-spacing:0em;}.cls-9{letter-spacing:0em;}.cls-10{letter-spacing:0.04em;}.cls-11{letter-spacing:-0.06em;}.cls-12{letter-spacing:-0.01em;}.cls-13{letter-spacing:0.04em;}.cls-15{letter-spacing:-0.04em;}.cls-16{letter-spacing:0.02em;}.cls-17{letter-spacing:0em;}.cls-18{font-size:12px;}.cls-18,.cls-21{fill:#595959;font-family:Interstate-Light, Interstate-Light;}.cls-19{letter-spacing:-0.01em;}.cls-20,.cls-22,.cls-23{fill-rule:evenodd;}</style></defs><title>Millennials - static graphics v1 revised - Separate artboards</title><line class="cls-1" x1="164.88" y1="235.52" x2="164.88" y2="58.64"/><line class="cls-1" x1="230.95" y1="235.52" x2="230.95" y2="58.64"/><line class="cls-1" x1="297.01" y1="235.52" x2="297.01" y2="58.64"/><line class="cls-1" x1="363.08" y1="235.52" x2="363.08" y2="58.64"/><line class="cls-1" x1="429.14" y1="235.52" x2="429.14" y2="58.64"/><path class="cls-2" d="M257.48,64.14H99.32v7H257.48v-7Zm-82.08,53H99.32v7h76.07v-7Zm71.07,53H99.32v7H246.46v-7Zm24,53H99.32v7H270.49v-7Z"/><path class="cls-3" d="M404.62,64.14H257.48v7H404.62v-7Zm-1,53H175.39v7H403.62v-7Zm-1,53H246.46v7H402.62v-7Zm17,53H270.49v7H419.63v-7Z"/><path class="cls-4" d="M428.64,64.14h-24v7h24v-7Zm0,53h-25v7h25v-7Zm0,53h-26v7h26v-7Zm.36,53h-9.37v7H429v-7Z"/><line class="cls-1" x1="98.82" y1="58.64" x2="98.82" y2="235.52"/><text class="cls-5" transform="translate(54.7 73.2)">W<tspan class="cls-6" x="10.89" y="0">h</tspan><tspan class="cls-7" x="17.59" y="0">i</tspan><tspan class="cls-8" x="21.21" y="0">t</tspan><tspan class="cls-9" x="26.5" y="0">e</tspan></text><text class="cls-10" transform="translate(56.58 125.44)">B<tspan class="cls-11" x="8.98" y="0">l</tspan><tspan class="cls-7" x="11.62" y="0">a</tspan><tspan class="cls-12" x="18.53" y="0">c</tspan><tspan class="cls-13" x="24.89" y="0">k</tspan></text><text class="cls-14" transform="translate(40.24 177.67)"><tspan class="cls-15">H</tspan><tspan class="cls-7" x="8.49" y="0">i</tspan><tspan class="cls-16" x="12.11" y="0">s</tspan><tspan class="cls-6" x="18.85" y="0">p</tspan><tspan class="cls-7" x="25.29" y="0">a</tspan><tspan class="cls-6" x="32.2" y="0">n</tspan><tspan class="cls-7" x="38.9" y="0">i</tspan><tspan x="42.52" y="0">c</tspan></text><text class="cls-17" transform="translate(56.44 229.91)">A<tspan class="cls-16" x="9.04" y="0">s</tspan><tspan class="cls-11" x="15.78" y="0">i</tspan><tspan class="cls-7" x="18.42" y="0">a</tspan><tspan class="cls-6" x="25.33" y="0">n</tspan></text><text class="cls-18" transform="translate(89.49 250.64)">0%</text><text class="cls-18" transform="translate(152.4 250.64)"><tspan class="cls-19">2</tspan><tspan x="6.76" y="0">0%</tspan></text><text class="cls-18" transform="translate(218.35 250.64)"><tspan class="cls-19">4</tspan><tspan x="7.43" y="0">0%</tspan></text><text class="cls-18" transform="translate(284.29 250.64)"><tspan class="cls-19">6</tspan><tspan x="7.3" y="0">0%</tspan></text><text class="cls-18" transform="translate(350.24 250.64)"><tspan class="cls-19">8</tspan><tspan x="7.56" y="0">0%</tspan></text><text class="cls-18" transform="translate(413.15 250.64)"><tspan class="cls-19">10</tspan><tspan x="11.3" y="0">0%</tspan></text><polygon class="cls-20" points="27.41 32.29 39.11 32.29 39.11 42.29 27.41 42.29 27.41 32.29 27.41 32.29"/><text class="cls-21" transform="translate(42.93 41.23)">Currently married</text><polygon class="cls-22" points="156.12 32.29 167.83 32.29 167.83 42.29 156.12 42.29 156.12 32.29 156.12 32.29"/><text class="cls-21" transform="translate(171.65 41.23)">Never married</text><polygon class="cls-23" points="264.64 32.29 276.35 32.29 276.35 42.29 264.64 42.29 264.64 32.29 264.64 32.29"/><text class="cls-21" transform="translate(280.17 41.23)">Divorced, separated, or widowed</text></svg>