<svg id="Layer_1" data-name="Layer 1" xmlns="http://www.w3.org/2000/svg" viewBox="0 0 606 284"><defs><style>.cls-1,.cls-36{fill:#b2b2b2;}.cls-1,.cls-11,.cls-16,.cls-28,.cls-30,.cls-35{fill-rule:evenodd;}.cls-2,.cls-42{font-size:12px;}.cls-2,.cls-49{fill:#595959;}.cls-2,.cls-47,.cls-49{font-family:Interstate-Light, Interstate-Light;}.cls-3{letter-spacing:0.03em;}.cls-4{letter-spacing:-0.02em;}.cls-5{letter-spacing:0.02em;}.cls-6{letter-spacing:0em;}.cls-7{letter-spacing:0.04em;}.cls-8{letter-spacing:-0.06em;}.cls-9{letter-spacing:0.02em;}.cls-10{letter-spacing:-0.01em;}.cls-11,.cls-37{fill:#5b5b5b;}.cls-12{letter-spacing:-0.04em;}.cls-13{letter-spacing:0.03em;}.cls-14{letter-spacing:-0.02em;}.cls-15{letter-spacing:-0.03em;}.cls-16,.cls-41{fill:#2fc4f2;}.cls-17{letter-spacing:0em;}.cls-18{letter-spacing:0.03em;}.cls-19{letter-spacing:-0.06em;}.cls-20{letter-spacing:0.06em;}.cls-21{letter-spacing:-0.05em;}.cls-22{letter-spacing:-0.06em;}.cls-23{letter-spacing:0.05em;}.cls-24{letter-spacing:0.02em;}.cls-25{letter-spacing:0.02em;}.cls-26{letter-spacing:0em;}.cls-27{letter-spacing:-0.03em;}.cls-28,.cls-38{fill:#ed7d31;}.cls-29{letter-spacing:-0.06em;}.cls-30,.cls-39{fill:#70ad47;}.cls-31{letter-spacing:0em;}.cls-32{letter-spacing:0.02em;}.cls-33{letter-spacing:-0.04em;}.cls-34{letter-spacing:0em;}.cls-35,.cls-40{fill:#ffc000;}.cls-42{font-family:Interstate-Bold, Interstate-Bold;}.cls-43{letter-spacing:-0.02em;}.cls-44{letter-spacing:-0.02em;}.cls-45{letter-spacing:-0.02em;}.cls-46{letter-spacing:0em;}.cls-47,.cls-49{font-size:11.73px;}.cls-47{fill:#fff;}.cls-48{letter-spacing:-0.01em;}.cls-50{font-size:10px;}</style></defs><title>Millennials - static graphics v1 revised - Separate artboards</title><polygon class="cls-1" points="129.15 53.37 139.78 53.37 139.78 63.99 129.15 63.99 129.15 53.37 129.15 53.37"/><text class="cls-2" transform="translate(141.59 62.62)"><tspan class="cls-3">W</tspan><tspan class="cls-4" x="10.6" y="0">h</tspan><tspan class="cls-5" x="17.1" y="0">i</tspan><tspan class="cls-6" x="20.35" y="0">t</tspan><tspan x="24.8" y="0">e</tspan></text><text class="cls-2" transform="translate(193.37 62.62)"><tspan class="cls-7">B</tspan><tspan class="cls-8" x="7.98" y="0">l</tspan><tspan class="cls-9" x="10.25" y="0">a</tspan><tspan class="cls-10" x="16.96" y="0">c</tspan><tspan x="22.82" y="0">k</tspan></text><polygon class="cls-11" points="180.93 53.37 191.57 53.37 191.57 63.99 180.93 63.99 180.93 53.37 180.93 53.37"/><text class="cls-2" transform="translate(516.69 62.62)"><tspan class="cls-12">H</tspan><tspan class="cls-5" x="7.79" y="0">i</tspan><tspan class="cls-13" x="11.04" y="0">s</tspan><tspan class="cls-14" x="16.94" y="0">p</tspan><tspan class="cls-5" x="23.35" y="0">a</tspan><tspan class="cls-15" x="30.06" y="0">n</tspan><tspan class="cls-5" x="36.56" y="0">i</tspan><tspan x="39.81" y="0">c</tspan></text><polygon class="cls-16" points="504.24 53.37 514.88 53.37 514.88 63.99 504.24 63.99 504.24 53.37 504.24 53.37"/><text class="cls-2" transform="translate(242.75 62.62)"><tspan class="cls-17">A</tspan><tspan class="cls-18" x="8.18" y="0">m</tspan><tspan class="cls-19" x="18.77" y="0"> </tspan><tspan class="cls-6" x="21.18" y="0">I</tspan><tspan class="cls-20" x="24.43" y="0">n</tspan><tspan class="cls-15" x="31.92" y="0">d</tspan><tspan class="cls-5" x="38.33" y="0">i</tspan><tspan class="cls-8" x="41.58" y="0">a</tspan><tspan class="cls-20" x="47.3" y="0">n</tspan><tspan class="cls-21" x="54.79" y="0">/</tspan><tspan class="cls-17" x="59.27" y="0">A</tspan><tspan class="cls-5" x="67.45" y="0">la</tspan><tspan class="cls-22" x="77.41" y="0">s</tspan><tspan class="cls-23" x="82.33" y="0">k</tspan><tspan class="cls-9" x="88.93" y="0">a</tspan><tspan class="cls-19" x="95.64" y="0"> </tspan><tspan class="cls-24" x="98.05" y="0">N</tspan><tspan class="cls-25" x="106.56" y="0">a</tspan><tspan class="cls-26" x="113.27" y="0">t</tspan><tspan class="cls-5" x="117.72" y="0">i</tspan><tspan class="cls-27" x="120.97" y="0">v</tspan><tspan x="126.83" y="0">e</tspan></text><polygon class="cls-28" points="230.31 53.37 240.95 53.37 240.95 63.99 230.31 63.99 230.31 53.37 230.31 53.37"/><text class="cls-2" transform="translate(396.73 62.62)"><tspan class="cls-17">A</tspan><tspan class="cls-13" x="8.18" y="0">s</tspan><tspan class="cls-29" x="14.09" y="0">i</tspan><tspan class="cls-5" x="16.36" y="0">a</tspan><tspan x="23.06" y="0">n</tspan></text><polygon class="cls-30" points="384.28 53.37 394.92 53.37 394.92 63.99 384.28 63.99 384.28 53.37 384.28 53.37"/><text class="cls-2" transform="translate(447.09 62.62)"><tspan class="cls-10">2</tspan><tspan class="cls-31" x="6.76" y="0">+</tspan><tspan class="cls-32" x="13.69" y="0"> </tspan><tspan class="cls-33" x="17.09" y="0">R</tspan><tspan class="cls-5" x="24.38" y="0">a</tspan><tspan class="cls-10" x="31.09" y="0">c</tspan><tspan class="cls-34" x="36.96" y="0">e</tspan><tspan x="43.46" y="0">s</tspan></text><polygon class="cls-35" points="434.65 53.37 445.29 53.37 445.29 63.99 434.65 63.99 434.65 53.37 434.65 53.37"/><polygon class="cls-36" points="438.77 93.51 438.77 138.62 133.52 138.62 133.52 93.51 438.77 93.51 438.77 93.51"/><polygon class="cls-37" points="483.87 93.51 483.87 138.62 443.17 138.62 443.17 93.51 483.87 93.51 483.87 93.51"/><polygon class="cls-38" points="491.18 93.51 491.18 138.62 488.27 138.62 488.27 93.51 491.18 93.51 491.18 93.51"/><polygon class="cls-39" points="513.02 93.51 513.02 138.62 495.58 138.62 495.58 93.51 513.02 93.51 513.02 93.51"/><polygon class="cls-40" points="523.23 93.51 523.23 138.62 517.42 138.62 517.42 93.51 523.23 93.51 523.23 93.51"/><polygon class="cls-41" points="562.52 93.51 562.52 138.62 527.63 138.62 527.63 93.51 562.52 93.51 562.52 93.51"/><polygon class="cls-36" points="360.28 186.47 360.28 231.58 133.52 231.58 133.52 186.47 360.28 186.47 360.28 186.47"/><polygon class="cls-37" points="422.82 186.47 422.82 231.58 364.68 231.58 364.68 186.47 422.82 186.47 422.82 186.47"/><polygon class="cls-38" points="430.13 186.47 430.13 231.58 427.22 231.58 427.22 186.47 430.13 186.47 430.13 186.47"/><polygon class="cls-39" points="462.52 186.47 462.52 231.58 433.53 231.58 433.53 186.47 462.52 186.47 462.52 186.47"/><polygon class="cls-40" points="473.81 186.47 473.81 231.58 465.09 231.58 465.09 186.47 473.81 186.47 473.81 186.47"/><polygon class="cls-41" points="562.52 186.47 562.52 231.58 478.21 231.58 478.21 186.47 562.52 186.47 562.52 186.47"/><text class="cls-42" transform="translate(43.48 216.11)">MILLENNIALS</text><text class="cls-42" transform="translate(67.4 122.11)"><tspan class="cls-43">A</tspan><tspan x="8.7" y="0">G</tspan><tspan class="cls-44" x="17.08" y="0">E</tspan><tspan x="24.7" y="0">S </tspan><tspan class="cls-45" x="36.11" y="0">5</tspan><tspan class="cls-46" x="43.87" y="0">5+</tspan></text><text class="cls-47" transform="translate(285.67 120.01)"><tspan class="cls-48">70</tspan><tspan x="13.91" y="0">%</tspan></text><text class="cls-47" transform="translate(453.02 120.01)">10%</text><text class="cls-49" transform="translate(473.64 90.01)">0.6%</text><text class="cls-2" transform="translate(489.63 152.01)">4.6%</text><text class="cls-49" transform="translate(508.42 90.01)">0.8%</text><text class="cls-47" transform="translate(532.67 120.01)">9.1%</text><text class="cls-47" transform="translate(246.67 214.01)">55.8%</text><text class="cls-47" transform="translate(376.67 214.01)">13.9%</text><text class="cls-49" transform="translate(413.67 182.01)">0.8%</text><text class="cls-47" transform="translate(434.67 214.01)">6.4<tspan class="cls-50" x="17.35" y="0">%</tspan></text><text class="cls-49" transform="translate(458.67 182.01)">2.3%</text><text class="cls-47" transform="translate(504.67 214.01)">20.8%</text></svg>