<svg id="Layer_1" data-name="Layer 1" xmlns="http://www.w3.org/2000/svg" viewBox="0 0 484 284"><defs><style>.cls-1{fill:#e0a500;}.cls-1,.cls-3{fill-rule:evenodd;}.cls-2{fill:none;stroke:#fff;stroke-linejoin:round;stroke-width:2px;}.cls-3{fill:#b2b2b2;}.cls-4,.cls-5{fill:#fff;}.cls-5{font-size:12px;}.cls-15,.cls-5{font-family:Interstate-Light, Interstate-Light;}.cls-12,.cls-15,.cls-6,.cls-7{font-size:11.99px;}.cls-12,.cls-6,.cls-7{font-family:Interstate-Bold, Interstate-Bold;}.cls-7{letter-spacing:0.03em;}.cls-8{letter-spacing:-0.02em;}.cls-9{letter-spacing:0.02em;}.cls-10{letter-spacing:0em;}.cls-11{letter-spacing:0em;}.cls-12{letter-spacing:0em;}.cls-13{letter-spacing:0.02em;}.cls-14{letter-spacing:-0.06em;}.cls-15{fill:#595959;}</style></defs><title>Millennials - static graphics v1 revised - Separate artboards</title><path class="cls-1" d="M301.06,100.11a55.67,55.67,0,0,1,23.39,106.24L301.06,155.8V100.11Z"/><path class="cls-2" d="M301.06,100.11a55.67,55.67,0,0,1,23.39,106.24L301.06,155.8V100.11Z"/><path class="cls-3" d="M324.45,206.35a55.7,55.7,0,1,1-23.39-106.24V155.8l23.39,50.55Z"/><path class="cls-2" d="M324.45,206.35a55.7,55.7,0,1,1-23.39-106.24V155.8l23.39,50.55Z"/><circle class="cls-4" cx="301.06" cy="155.8" r="30.21"/><text class="cls-5" transform="translate(304.6 123.72)">43%</text><text class="cls-6" transform="translate(276.01 159.74)">Hispanic</text><path class="cls-1" d="M64.75,100.25A55.61,55.61,0,0,1,120,162.84l-55.27-7V100.25Z"/><path class="cls-2" d="M64.75,100.25A55.61,55.61,0,0,1,120,162.84l-55.27-7V100.25Z"/><path class="cls-3" d="M120,162.84a55.71,55.71,0,1,1-55.27-62.59v55.62l55.27,7Z"/><path class="cls-2" d="M120,162.84a55.71,55.71,0,1,1-55.27-62.59v55.62l55.27,7Z"/><circle class="cls-4" cx="64.75" cy="155.87" r="30.21"/><text class="cls-7" transform="translate(48.23 159.81)">W<tspan class="cls-8" x="10.89" y="0">h</tspan><tspan class="cls-9" x="17.59" y="0">i</tspan><tspan class="cls-10" x="21.21" y="0">t</tspan><tspan class="cls-11" x="26.5" y="0">e</tspan></text><text class="cls-5" transform="translate(70.7 123.72)">27%</text><path class="cls-1" d="M182.88,103.69A53.9,53.9,0,1,1,169.45,209.8l13.43-52.21v-53.9Z"/><path class="cls-2" d="M182.88,103.69A53.9,53.9,0,1,1,169.45,209.8l13.43-52.21v-53.9Z"/><path class="cls-3" d="M169.45,209.8a53.89,53.89,0,0,1,13.43-106.11v53.9L169.45,209.8Z"/><path class="cls-2" d="M169.45,209.8a53.89,53.89,0,0,1,13.43-106.11v53.9L169.45,209.8Z"/><circle class="cls-4" cx="182.87" cy="157.59" r="30.21"/><text class="cls-6" transform="translate(167.04 161.53)">Black</text><text class="cls-5" transform="translate(186.45 123.72)">54%</text><path class="cls-1" d="M420.11,102A54.75,54.75,0,0,1,469.74,180l-49.63-23.32V102Z"/><path class="cls-2" d="M420.11,102A54.75,54.75,0,0,1,469.74,180l-49.63-23.32V102Z"/><path class="cls-3" d="M469.74,180A54.84,54.84,0,1,1,420.11,102v54.76L469.74,180Z"/><path class="cls-2" d="M469.74,180A54.84,54.84,0,1,1,420.11,102v54.76L469.74,180Z"/><circle class="cls-4" cx="420.1" cy="156.72" r="30.21"/><text class="cls-12" transform="translate(404.06 160.66)">A<tspan class="cls-13" x="9.04" y="0">s</tspan><tspan class="cls-14" x="15.78" y="0">i</tspan><tspan class="cls-9" x="18.42" y="0">a</tspan><tspan class="cls-8" x="25.33" y="0">n</tspan></text><text class="cls-5" transform="translate(426.15 123.72)">32%</text><polygon class="cls-3" points="138.63 73.76 150.34 73.76 150.34 83.76 138.63 83.76 138.63 73.76 138.63 73.76"/><text class="cls-15" transform="translate(153.16 82.7)">Not in poverty</text><polygon class="cls-1" points="275.63 73.76 287.34 73.76 287.34 83.76 275.63 83.76 275.63 73.76 275.63 73.76"/><text class="cls-15" transform="translate(290.16 82.7)">In poverty</text></svg>