<svg id="Layer_1" data-name="Layer 1" xmlns="http://www.w3.org/2000/svg" viewBox="0 0 484 284"><defs><style>.cls-1{fill:#e0a500;}.cls-1,.cls-3{fill-rule:evenodd;}.cls-2{fill:none;stroke:#fff;stroke-linejoin:round;stroke-width:2px;}.cls-3{fill:#b2b2b2;}.cls-4,.cls-5{fill:#fff;}.cls-5{font-size:12px;}.cls-16,.cls-5{font-family:Interstate-Light, Interstate-Light;}.cls-6{letter-spacing:-0.01em;}.cls-12,.cls-13,.cls-16,.cls-7{font-size:11.99px;}.cls-12,.cls-13,.cls-7{font-family:Interstate-Bold, Interstate-Bold;}.cls-7{letter-spacing:0.03em;}.cls-8{letter-spacing:-0.02em;}.cls-9{letter-spacing:0.02em;}.cls-10{letter-spacing:0em;}.cls-11{letter-spacing:0em;}.cls-13{letter-spacing:0em;}.cls-14{letter-spacing:0.02em;}.cls-15{letter-spacing:-0.06em;}.cls-16{fill:#595959;}</style></defs><title>Millennials - static graphics v1 revised - Separate artboards</title><path class="cls-1" d="M63.84,98.62A57.19,57.19,0,1,1,42.69,209L63.84,155.8V98.62Z"/><path class="cls-2" d="M63.84,98.62A57.19,57.19,0,1,1,42.69,209L63.84,155.8V98.62Z"/><path class="cls-3" d="M42.69,209A57.18,57.18,0,0,1,63.84,98.62V155.8L42.69,209Z"/><path class="cls-2" d="M42.69,209A57.18,57.18,0,0,1,63.84,98.62V155.8L42.69,209Z"/><circle class="cls-4" cx="63.83" cy="155.8" r="30.21"/><text class="cls-5" transform="translate(68.98 123.22)"><tspan class="cls-6">5</tspan><tspan x="7.19" y="0">6%</tspan></text><text class="cls-7" transform="translate(47.31 159.74)">W<tspan class="cls-8" x="10.89" y="0">h</tspan><tspan class="cls-9" x="17.59" y="0">i</tspan><tspan class="cls-10" x="21.21" y="0">t</tspan><tspan class="cls-11" x="26.5" y="0">e</tspan></text><path class="cls-1" d="M183.89,98.62A57.16,57.16,0,0,1,233.74,184L183.89,155.8V98.62Z"/><path class="cls-2" d="M183.89,98.62A57.16,57.16,0,0,1,233.74,184L183.89,155.8V98.62Z"/><path class="cls-3" d="M233.74,184a57.26,57.26,0,1,1-49.85-85.36V155.8L233.74,184Z"/><path class="cls-2" d="M233.74,184a57.26,57.26,0,1,1-49.85-85.36V155.8L233.74,184Z"/><circle class="cls-4" cx="183.89" cy="155.8" r="30.21"/><text class="cls-5" transform="translate(189.67 123.22)">33%</text><text class="cls-12" transform="translate(168.05 159.74)">Black</text><path class="cls-1" d="M303.53,99.41a56.77,56.77,0,0,1,41.77,95.33L303.53,156.2V99.41Z"/><path class="cls-2" d="M303.53,99.41a56.77,56.77,0,0,1,41.77,95.33L303.53,156.2V99.41Z"/><path class="cls-3" d="M345.31,194.75a56.84,56.84,0,1,1-41.77-95.33V156.2l41.77,38.54Z"/><path class="cls-2" d="M345.31,194.75a56.84,56.84,0,1,1-41.77-95.33V156.2l41.77,38.54Z"/><circle class="cls-4" cx="303.53" cy="156.2" r="30.21"/><text class="cls-5" transform="translate(309.5 123.22)">37%</text><text class="cls-12" transform="translate(278.99 160.14)">Hispanic</text><path class="cls-1" d="M421.68,101.61a55.67,55.67,0,0,1,23.39,106.24l-23.39-50.55V101.61Z"/><path class="cls-2" d="M421.68,101.61a55.67,55.67,0,0,1,23.39,106.24l-23.39-50.55V101.61Z"/><path class="cls-3" d="M445.07,207.84a55.7,55.7,0,1,1-23.39-106.24v55.68l23.39,50.55Z"/><path class="cls-2" d="M445.07,207.84a55.7,55.7,0,1,1-23.39-106.24v55.68l23.39,50.55Z"/><circle class="cls-4" cx="421.68" cy="157.3" r="30.21"/><text class="cls-5" transform="translate(427.22 123.22)">43%</text><text class="cls-13" transform="translate(405.64 161.24)">A<tspan class="cls-14" x="9.04" y="0">s</tspan><tspan class="cls-15" x="15.78" y="0">i</tspan><tspan class="cls-9" x="18.42" y="0">a</tspan><tspan class="cls-8" x="25.33" y="0">n</tspan></text><polygon class="cls-3" points="133.49 72.27 145.2 72.27 145.2 82.27 133.49 82.27 133.49 72.27 133.49 72.27"/><text class="cls-16" transform="translate(148.02 81.2)">Not a homeowner</text><polygon class="cls-1" points="270.49 72.27 282.2 72.27 282.2 82.27 270.49 82.27 270.49 72.27 270.49 72.27"/><text class="cls-16" transform="translate(285.02 81.2)">Homeowner</text></svg>