<?xml version="1.0" encoding="UTF-8" standalone="no"?>
<svg xmlns:rdf="http://www.w3.org/1999/02/22-rdf-syntax-ns#" xmlns="http://www.w3.org/2000/svg" data-name="Layer 1" viewBox="0 0 606 1575" version="1.1" xmlns:cc="http://creativecommons.org/ns#" xmlns:dc="http://purl.org/dc/elements/1.1/">
    <metadata>
        <rdf:RDF>
            <cc:Work rdf:about="">
                <dc:format>image/svg+xml</dc:format>
                <dc:type rdf:resource="http://purl.org/dc/dcmitype/StillImage"/>
                <dc:title>Millennials - static graphics v1 revised</dc:title>
            </cc:Work>
        </rdf:RDF>
    </metadata>
    <defs>
        <style>.cls-1,.cls-36{fill:#b2b2b2;}.cls-1,.cls-109,.cls-11,.cls-16,.cls-28,.cls-30,.cls-35,.cls-97{fill-rule:evenodd;}.cls-118,.cls-2,.cls-42{font-size:12px;}.cls-2,.cls-49,.cls-81{fill:#595959;}.cls-118,.cls-2,.cls-47,.cls-49,.cls-51,.cls-81{font-family:Interstate-Light, Interstate-Light;}.cls-3{letter-spacing:0.03em;}.cls-4{letter-spacing:-0.02em;}.cls-5{letter-spacing:0.02em;}.cls-6{letter-spacing:0em;}.cls-7{letter-spacing:0.04em;}.cls-8{letter-spacing:-0.06em;}.cls-9{letter-spacing:0.02em;}.cls-10{letter-spacing:-0.01em;}.cls-11,.cls-37{fill:#5b5b5b;}.cls-12{letter-spacing:-0.04em;}.cls-13{letter-spacing:0.03em;}.cls-14{letter-spacing:-0.02em;}.cls-15{letter-spacing:-0.03em;}.cls-16,.cls-41{fill:#2fc4f2;}.cls-17{letter-spacing:0em;}.cls-18{letter-spacing:0.03em;}.cls-19{letter-spacing:-0.06em;}.cls-20{letter-spacing:0.06em;}.cls-21{letter-spacing:-0.05em;}.cls-22{letter-spacing:-0.06em;}.cls-23{letter-spacing:0.05em;}.cls-24{letter-spacing:0.02em;}.cls-25{letter-spacing:0.02em;}.cls-26{letter-spacing:0em;}.cls-27{letter-spacing:-0.03em;}.cls-28,.cls-38{fill:#ed7d31;}.cls-29{letter-spacing:-0.06em;}.cls-30,.cls-39{fill:#70ad47;}.cls-31{letter-spacing:0em;}.cls-32{letter-spacing:0.02em;}.cls-33{letter-spacing:-0.04em;}.cls-34{letter-spacing:0em;}.cls-35,.cls-40{fill:#ffc000;}.cls-42,.cls-56,.cls-57,.cls-58,.cls-64,.cls-68,.cls-73,.cls-77,.cls-80{font-family:Interstate-Bold, Interstate-Bold;}.cls-43{letter-spacing:-0.02em;}.cls-44{letter-spacing:-0.02em;}.cls-45,.cls-58{letter-spacing:-0.02em;}.cls-46{letter-spacing:0em;}.cls-47,.cls-49{font-size:11.73px;}.cls-117,.cls-118,.cls-47{fill:#fff;}.cls-48{letter-spacing:-0.01em;}.cls-50{font-size:10px;}.cls-51{font-size:15px;}.cls-52,.cls-57{letter-spacing:-0.02em;}.cls-53{letter-spacing:-0.02em;}.cls-54{letter-spacing:-0.03em;}.cls-55{letter-spacing:0em;}.cls-116,.cls-59,.cls-65{fill:none;}.cls-59{stroke:#2c333b;stroke-miterlimit:10;stroke-width:0.6px;}.cls-60{letter-spacing:-0.02em;}.cls-61{letter-spacing:-0.02em;}.cls-62{letter-spacing:-0.01em;}.cls-63{letter-spacing:-0.02em;}.cls-64{letter-spacing:-0.03em;}.cls-65{stroke:#d9d9d9;stroke-width:1px;}.cls-116,.cls-65{stroke-linejoin:round;}.cls-66,.cls-97{fill:#ffd98d;}.cls-109,.cls-67{fill:#e0a500;}.cls-68,.cls-73,.cls-77,.cls-80,.cls-81{font-size:11.99px;}.cls-68{letter-spacing:0.03em;}.cls-69{letter-spacing:-0.02em;}.cls-70{letter-spacing:0.02em;}.cls-71{letter-spacing:0em;}.cls-72{letter-spacing:0em;}.cls-73{letter-spacing:0.04em;}.cls-74{letter-spacing:-0.06em;}.cls-75{letter-spacing:-0.01em;}.cls-76{letter-spacing:0.04em;}.cls-78{letter-spacing:-0.04em;}.cls-79{letter-spacing:0.02em;}.cls-80{letter-spacing:0em;}.cls-82{letter-spacing:0.02em;}.cls-83{letter-spacing:-0.03em;}.cls-84{letter-spacing:-0.03em;}.cls-85{letter-spacing:0.03em;}.cls-86{letter-spacing:-0.06em;}.cls-87{letter-spacing:-0.01em;}.cls-88{letter-spacing:-0.02em;}.cls-89{letter-spacing:0.02em;}.cls-90{letter-spacing:0em;}.cls-91{letter-spacing:-0.04em;}.cls-92{letter-spacing:0.05em;}.cls-93{letter-spacing:-0.05em;}.cls-94{letter-spacing:0.05em;}.cls-95{letter-spacing:0.03em;}.cls-96{letter-spacing:0em;}.cls-98{letter-spacing:-0.04em;}.cls-99{letter-spacing:-0.03em;}.cls-100{letter-spacing:-0.01em;}.cls-101{letter-spacing:0.06em;}.cls-102{letter-spacing:-0.03em;}.cls-103{letter-spacing:0.02em;}.cls-104{letter-spacing:0.02em;}.cls-105{letter-spacing:-0.01em;}.cls-106{letter-spacing:0.02em;}.cls-107{letter-spacing:-0.06em;}.cls-108{letter-spacing:0.08em;}.cls-110{letter-spacing:-0.06em;}.cls-111{letter-spacing:0em;}.cls-112{letter-spacing:-0.05em;}.cls-113{letter-spacing:-0.06em;}.cls-114{letter-spacing:-0.06em;}.cls-115{letter-spacing:-0.02em;}.cls-116{stroke:#fff;stroke-width:2px;}</style>
    </defs>
    <title>Millennials - static graphics v1 revised</title>
    <polygon points="129.15 95.25 139.78 95.25 139.78 105.88 129.15 105.88 129.15 95.25" class="cls-1"/>
    <text class="cls-2" transform="translate(141.59 104.51)">
        <tspan class="cls-3">W</tspan>
        <tspan y="0" x="10.6" class="cls-4">h</tspan>
        <tspan y="0" x="17.1" class="cls-5">i</tspan>
        <tspan y="0" x="20.35" class="cls-6">t</tspan>
        <tspan y="0" x="24.8">e</tspan>
    </text>
    <text class="cls-2" transform="translate(193.37 104.51)">
        <tspan class="cls-7">B</tspan>
        <tspan y="0" x="7.98" class="cls-8">l</tspan>
        <tspan y="0" x="10.25" class="cls-9">a</tspan>
        <tspan y="0" x="16.96" class="cls-10">c</tspan>
        <tspan y="0" x="22.82">k</tspan>
    </text>
    <polygon points="180.93 95.25 191.57 95.25 191.57 105.88 180.93 105.88 180.93 95.25" class="cls-11"/>
    <text class="cls-2" transform="translate(516.69 104.51)">
        <tspan class="cls-12">H</tspan>
        <tspan y="0" x="7.79" class="cls-5">i</tspan>
        <tspan y="0" x="11.04" class="cls-13">s</tspan>
        <tspan y="0" x="16.94" class="cls-14">p</tspan>
        <tspan y="0" x="23.35" class="cls-5">a</tspan>
        <tspan y="0" x="30.06" class="cls-15">n</tspan>
        <tspan y="0" x="36.56" class="cls-5">i</tspan>
        <tspan y="0" x="39.81">c</tspan>
    </text>
    <polygon points="504.24 95.25 514.88 95.25 514.88 105.88 504.24 105.88 504.24 95.25" class="cls-16"/>
    <text class="cls-2" transform="translate(242.75 104.51)">
        <tspan class="cls-17">A</tspan>
        <tspan y="0" x="8.18" class="cls-18">m</tspan>
        <tspan y="0" x="18.77" class="cls-19"/>
        <tspan y="0" x="21.18" class="cls-6">I</tspan>
        <tspan y="0" x="24.43" class="cls-20">n</tspan>
        <tspan y="0" x="31.92" class="cls-15">d</tspan>
        <tspan y="0" x="38.33" class="cls-5">i</tspan>
        <tspan y="0" x="41.58" class="cls-8">a</tspan>
        <tspan y="0" x="47.3" class="cls-20">n</tspan>
        <tspan y="0" x="54.79" class="cls-21">/</tspan>
        <tspan y="0" x="59.27" class="cls-17">A</tspan>
        <tspan y="0" x="67.45" class="cls-5">la</tspan>
        <tspan y="0" x="77.41" class="cls-22">s</tspan>
        <tspan y="0" x="82.33" class="cls-23">k</tspan>
        <tspan y="0" x="88.93" class="cls-9">a</tspan>
        <tspan y="0" x="95.64" class="cls-19"/>
        <tspan y="0" x="98.05" class="cls-24">N</tspan>
        <tspan y="0" x="106.56" class="cls-25">a</tspan>
        <tspan y="0" x="113.27" class="cls-26">t</tspan>
        <tspan y="0" x="117.72" class="cls-5">i</tspan>
        <tspan y="0" x="120.97" class="cls-27">v</tspan>
        <tspan y="0" x="126.83">e</tspan>
    </text>
    <polygon points="230.31 95.25 240.95 95.25 240.95 105.88 230.31 105.88 230.31 95.25" class="cls-28"/>
    <text class="cls-2" transform="translate(396.73 104.51)">
        <tspan class="cls-17">A</tspan>
        <tspan y="0" x="8.18" class="cls-13">s</tspan>
        <tspan y="0" x="14.09" class="cls-29">i</tspan>
        <tspan y="0" x="16.36" class="cls-5">a</tspan>
        <tspan y="0" x="23.06">n</tspan>
    </text>
    <polygon points="384.28 95.25 394.92 95.25 394.92 105.88 384.28 105.88 384.28 95.25" class="cls-30"/>
    <text class="cls-2" transform="translate(447.09 104.51)">
        <tspan class="cls-10">2</tspan>
        <tspan y="0" x="6.76" class="cls-31">+</tspan>
        <tspan y="0" x="13.69" class="cls-32"/>
        <tspan y="0" x="17.09" class="cls-33">R</tspan>
        <tspan y="0" x="24.38" class="cls-5">a</tspan>
        <tspan y="0" x="31.09" class="cls-10">c</tspan>
        <tspan y="0" x="36.96" class="cls-34">e</tspan>
        <tspan y="0" x="43.46">s</tspan>
    </text>
    <polygon points="434.65 95.25 445.29 95.25 445.29 105.88 434.65 105.88 434.65 95.25" class="cls-35"/>
    <polygon points="438.77 135.39 438.77 180.5 133.52 180.5 133.52 135.39 438.77 135.39" class="cls-36"/>
    <polygon points="483.87 135.39 483.87 180.5 443.17 180.5 443.17 135.39 483.87 135.39" class="cls-37"/>
    <polygon points="491.18 135.39 491.18 180.5 488.27 180.5 488.27 135.39 491.18 135.39" class="cls-38"/>
    <polygon points="513.02 135.39 513.02 180.5 495.58 180.5 495.58 135.39 513.02 135.39" class="cls-39"/>
    <polygon points="523.23 135.39 523.23 180.5 517.42 180.5 517.42 135.39 523.23 135.39" class="cls-40"/>
    <polygon points="562.52 135.39 562.52 180.5 527.63 180.5 527.63 135.39 562.52 135.39" class="cls-41"/>
    <polygon points="360.28 228.36 360.28 273.46 133.52 273.46 133.52 228.36 360.28 228.36" class="cls-36"/>
    <polygon points="422.82 228.36 422.82 273.46 364.68 273.46 364.68 228.36 422.82 228.36" class="cls-37"/>
    <polygon points="430.13 228.36 430.13 273.46 427.22 273.46 427.22 228.36 430.13 228.36" class="cls-38"/>
    <polygon points="462.52 228.36 462.52 273.46 433.53 273.46 433.53 228.36 462.52 228.36" class="cls-39"/>
    <polygon points="473.81 228.36 473.81 273.46 465.09 273.46 465.09 228.36 473.81 228.36" class="cls-40"/>
    <polygon points="562.52 228.36 562.52 273.46 478.21 273.46 478.21 228.36 562.52 228.36" class="cls-41"/>
    <text class="cls-42" transform="translate(43.48 257.99)">MILLENNIALS</text>
    <text class="cls-42" transform="translate(67.4 163.99)">
        <tspan class="cls-43">A</tspan>
        <tspan y="0" x="8.7">G</tspan>
        <tspan y="0" x="17.08" class="cls-44">E</tspan>
        <tspan y="0" x="24.7">S</tspan>
        <tspan y="0" x="36.11" class="cls-45">5</tspan>
        <tspan y="0" x="43.87" class="cls-46">5+</tspan>
    </text>
    <text class="cls-47" transform="translate(285.67 161.89)">
        <tspan class="cls-48">70</tspan>
        <tspan y="0" x="13.91">%</tspan>
    </text>
    <text class="cls-47" transform="translate(453.02 161.89)">10%</text>
    <text class="cls-49" transform="translate(473.64 131.89)">0.6%</text>
    <text class="cls-2" transform="translate(489.63 193.89)">4.6%</text>
    <text class="cls-49" transform="translate(508.42 131.89)">0.8%</text>
    <text class="cls-47" transform="translate(532.67 161.89)">9.1%</text>
    <text class="cls-47" transform="translate(246.67 255.89)">55.8%</text>
    <text class="cls-47" transform="translate(376.67 255.89)">13.9%</text>
    <text class="cls-49" transform="translate(413.67 223.89)">0.8%</text>
    <text class="cls-47" transform="translate(434.67 255.89)">6.4
        <tspan y="0" x="17.35" class="cls-50">%</tspan>
    </text>
    <text class="cls-49" transform="translate(458.67 223.89)">2.3%</text>
    <text class="cls-47" transform="translate(504.67 255.89)">20.8%</text>
    <text class="cls-51" transform="translate(20.1 44.01)">
        <tspan class="cls-52">P</tspan>
        <tspan y="0" x="9.02">opulation</tspan>
        <tspan y="0" x="76.48" class="cls-53">b</tspan>
        <tspan y="0" x="84.57">y</tspan>
        <tspan y="0" x="96.43" class="cls-54">r</tspan>
        <tspan y="0" x="102.01" class="cls-55">acial</tspan>
        <tspan y="0" x="137.04" class="cls-56">di</tspan>
        <tspan y="0" x="149.7" class="cls-57">v</tspan>
        <tspan y="0" x="157.99" class="cls-56">e</tspan>
        <tspan y="0" x="166.06" class="cls-58">r</tspan>
        <tspan y="0" x="172.17" class="cls-56">si</tspan>
        <tspan y="0" x="184.45" class="cls-58">t</tspan>
        <tspan y="0" x="190.77" class="cls-56">y</tspan>
    </text>
    <line y2="52.21" x2="519.9" y1="52.21" x1="20.13" class="cls-59"/>
    <text class="cls-51" transform="translate(20.1 355.31)">Unique a
        <tspan y="0" x="59.41" class="cls-60">t</tspan>
        <tspan y="0" x="64.77">tribu</tspan>
        <tspan y="0" x="97.11" class="cls-61">t</tspan>
        <tspan y="0" x="102.39" class="cls-62">e</tspan>
        <tspan y="0" x="110.34">s</tspan>
        <tspan y="0" x="121.24" class="cls-63">b</tspan>
        <tspan y="0" x="129.33">y</tspan>
        <tspan y="0" x="137.29" class="cls-56"/>
        <tspan y="0" x="141.64" class="cls-64">r</tspan>
        <tspan y="0" x="147.69" class="cls-56">acial di</tspan>
        <tspan y="0" x="197.89" class="cls-57">v</tspan>
        <tspan y="0" x="206.19" class="cls-56">e</tspan>
        <tspan y="0" x="214.26" class="cls-58">r</tspan>
        <tspan y="0" x="220.36" class="cls-56">si</tspan>
        <tspan y="0" x="232.65" class="cls-58">t</tspan>
        <tspan y="0" x="238.96" class="cls-56">y</tspan>
    </text>
    <line y2="363.51" x2="519.9" y1="363.51" x1="20.13" class="cls-59"/>
    <text class="cls-42" transform="translate(236.04 415.81)">SCHOOL ATTAINMENT</text>
    <path class="cls-65" d="m224.86 647.71v-176.88m66.06 176.88v-176.88m65.08 176.88v-176.88m66.06 176.88v-176.88m66.06 176.88v-176.88"/>
    <path class="cls-36" d="m300.43 476.32h-142.14v7h142.14v-7zm-67.07 53h-75.07v7h75.07v-7zm-20 53h-55.07v7h55.05v-7zm149.15 53h-204.22v8h204.2v-8z"/>
    <path class="cls-38" d="m397.53 476.32h-97.1v7h97.1v-7zm-47 53h-117.16v7h117.11v-7zm-50 53h-87.18v7h87.09v-7zm121.12 53h-59.16v8h59.06v-8z"/>
    <path class="cls-66" d="m471.6 476.32h-74.07v7h74.07v-7zm-6 53h-115.12v7h115.12v-7zm-62.06 53h-103.11v7h103.1v-7zm67.07 53h-49v8h49v-8z"/>
    <path class="cls-67" d="m488 476.32h-17.09v7h17.09v-7zm0 53h-23.13v7h23.13v-7zm0 53h-85.46v7h85.46v-7zm0 53h-18.1v8h18.1v-8z"/>
    <line y2="647.71" x2="158.79" y1="470.83" x1="158.79" class="cls-65"/>
    <text class="cls-2" transform="translate(151.49 662.76)">0%</text>
    <text class="cls-2" transform="translate(214.4 662.76)">
        <tspan class="cls-10">2</tspan>
        <tspan y="0" x="6.76">0%</tspan>
    </text>
    <text class="cls-2" transform="translate(280.35 662.76)">
        <tspan class="cls-10">4</tspan>
        <tspan y="0" x="7.43">0%</tspan>
    </text>
    <text class="cls-2" transform="translate(346.29 662.76)">
        <tspan class="cls-10">6</tspan>
        <tspan y="0" x="7.3">0%</tspan>
    </text>
    <text class="cls-2" transform="translate(412.24 662.76)">
        <tspan class="cls-10">8</tspan>
        <tspan y="0" x="7.56">0%</tspan>
    </text>
    <text class="cls-2" transform="translate(475.15 662.76)">
        <tspan class="cls-10">10</tspan>
        <tspan y="0" x="11.3">0%</tspan>
    </text>
    <text class="cls-68" transform="translate(114.7 486.32)">W
        <tspan y="0" x="10.89" class="cls-69">h</tspan>
        <tspan y="0" x="17.59" class="cls-70">i</tspan>
        <tspan y="0" x="21.21" class="cls-71">t</tspan>
        <tspan y="0" x="26.5" class="cls-72">e</tspan>
    </text>
    <text class="cls-73" transform="translate(116.58 538.56)">B
        <tspan y="0" x="8.98" class="cls-74">l</tspan>
        <tspan y="0" x="11.62" class="cls-70">a</tspan>
        <tspan y="0" x="18.53" class="cls-75">c</tspan>
        <tspan y="0" x="24.89" class="cls-76">k</tspan>
    </text>
    <text class="cls-77" transform="translate(100.24 590.79)">
        <tspan class="cls-78">H</tspan>
        <tspan y="0" x="8.49" class="cls-70">i</tspan>
        <tspan y="0" x="12.11" class="cls-79">s</tspan>
        <tspan y="0" x="18.85" class="cls-69">p</tspan>
        <tspan y="0" x="25.29" class="cls-70">a</tspan>
        <tspan y="0" x="32.2" class="cls-69">n</tspan>
        <tspan y="0" x="38.9" class="cls-70">i</tspan>
        <tspan y="0" x="42.52">c</tspan>
    </text>
    <text class="cls-80" transform="translate(116.44 643.03)">A
        <tspan y="0" x="9.04" class="cls-79">s</tspan>
        <tspan y="0" x="15.78" class="cls-74">i</tspan>
        <tspan y="0" x="18.42" class="cls-70">a</tspan>
        <tspan y="0" x="25.33" class="cls-69">n</tspan>
    </text>
    <polygon points="64.75 444.48 76.46 444.48 76.46 454.48 64.75 454.48 64.75 444.48" class="cls-1"/>
    <text class="cls-81" transform="translate(75.28 453.41)">
        <tspan class="cls-82"/>
        <tspan y="0" x="3.39" class="cls-83">C</tspan>
        <tspan y="0" x="10.53" class="cls-84">o</tspan>
        <tspan y="0" x="16.99" class="cls-70">ll</tspan>
        <tspan y="0" x="23.49" class="cls-72">e</tspan>
        <tspan y="0" x="29.99" class="cls-85">g</tspan>
        <tspan y="0" x="37.04" class="cls-72">e</tspan>
        <tspan y="0" x="43.54" class="cls-86"/>
        <tspan y="0" x="45.95">g</tspan>
        <tspan y="0" x="52.66" class="cls-87">r</tspan>
        <tspan y="0" x="57.36" class="cls-70">a</tspan>
        <tspan y="0" x="64.06" class="cls-88">du</tspan>
        <tspan y="0" x="76.96" class="cls-89">a</tspan>
        <tspan y="0" x="83.67" class="cls-90">t</tspan>
        <tspan y="0" x="88.11">e</tspan>
    </text>
    <polygon points="180.46 444.48 192.17 444.48 192.17 454.48 180.46 454.48 180.46 444.48" class="cls-28"/>
    <text class="cls-81" transform="translate(190.99 453.41)">
        <tspan class="cls-82"/>
        <tspan y="0" x="3.39" class="cls-91">S</tspan>
        <tspan y="0" x="9.99" class="cls-92">o</tspan>
        <tspan y="0" x="17.44" class="cls-93">m</tspan>
        <tspan y="0" x="27.03" class="cls-72">e</tspan>
        <tspan y="0" x="33.53" class="cls-82"/>
        <tspan y="0" x="36.92">c</tspan>
        <tspan y="0" x="42.86" class="cls-94">o</tspan>
        <tspan y="0" x="50.31" class="cls-74">l</tspan>
        <tspan y="0" x="52.57" class="cls-89">l</tspan>
        <tspan y="0" x="55.82" class="cls-72">e</tspan>
        <tspan y="0" x="62.32" class="cls-95">g</tspan>
        <tspan y="0" x="69.37" class="cls-96">e</tspan>
    </text>
    <polygon points="276.98 444.48 288.69 444.48 288.69 454.48 276.98 454.48 276.98 444.48" class="cls-97"/>
    <text class="cls-81" transform="translate(287.51 453.41)">
        <tspan class="cls-82"/>
        <tspan y="0" x="3.39" class="cls-98">H</tspan>
        <tspan y="0" x="11.18" class="cls-70">i</tspan>
        <tspan y="0" x="14.43" class="cls-95">g</tspan>
        <tspan y="0" x="21.48" class="cls-99">h</tspan>
        <tspan y="0" x="27.98" class="cls-82"/>
        <tspan y="0" x="31.37">s</tspan>
        <tspan y="0" x="36.97" class="cls-100">c</tspan>
        <tspan y="0" x="42.83" class="cls-101">h</tspan>
        <tspan y="0" x="50.32" class="cls-102">oo</tspan>
        <tspan y="0" x="63.24" class="cls-103">l</tspan>
        <tspan y="0" x="66.49" class="cls-104"/>
        <tspan y="0" x="69.89">g</tspan>
        <tspan y="0" x="76.59" class="cls-105">r</tspan>
        <tspan y="0" x="81.29" class="cls-106">a</tspan>
        <tspan y="0" x="87.99" class="cls-99">d</tspan>
        <tspan y="0" x="94.4" class="cls-101">u</tspan>
        <tspan y="0" x="101.88" class="cls-107">a</tspan>
        <tspan y="0" x="107.6" class="cls-108">t</tspan>
        <tspan y="0" x="113.03">e</tspan>
    </text>
    <polygon points="417.67 444.48 427.71 444.48 427.71 454.48 417.67 454.48 417.67 444.48" class="cls-109"/>
    <text class="cls-81" transform="translate(426.53 453.41)">
        <tspan class="cls-82"/>
        <tspan y="0" x="3.39" class="cls-110">N</tspan>
        <tspan y="0" x="10.9" class="cls-94">o</tspan>
        <tspan y="0" x="18.35" class="cls-111">t</tspan>
        <tspan y="0" x="22.8" class="cls-82"/>
        <tspan y="0" x="26.19">h</tspan>
        <tspan y="0" x="32.99" class="cls-70">i</tspan>
        <tspan y="0" x="36.24" class="cls-112">g</tspan>
        <tspan y="0" x="42.29" class="cls-101">h</tspan>
        <tspan y="0" x="49.78" class="cls-113"/>
        <tspan y="0" x="52.19">s</tspan>
        <tspan y="0" x="57.79" class="cls-75">c</tspan>
        <tspan y="0" x="63.65" class="cls-88">h</tspan>
        <tspan y="0" x="70.15" class="cls-94">o</tspan>
        <tspan y="0" x="77.6" class="cls-102">o</tspan>
        <tspan y="0" x="84.06" class="cls-70">l</tspan>
        <tspan y="0" x="87.31" class="cls-114"/>
        <tspan y="0" x="89.72">g</tspan>
        <tspan y="0" x="96.42" class="cls-115">r</tspan>
        <tspan y="0" x="101.13" class="cls-70">a</tspan>
        <tspan y="0" x="107.83">d</tspan>
    </text>
    <text class="cls-42" transform="translate(246.63 761.38)">HOME OWNERSHIP</text>
    <path class="cls-109" d="m124.84 816.4a57.19 57.19 0 1 1 -21.15 110.33l21.15-53.15v-57.18z"/>
    <path class="cls-116" d="m124.84 816.4a57.19 57.19 0 1 1 -21.15 110.33l21.15-53.15v-57.18z"/>
    <path class="cls-1" d="m103.69 926.73a57.18 57.18 0 0 1 21.15 -110.33v57.19l-21.15 53.15z"/>
    <path class="cls-116" d="m103.69 926.73a57.18 57.18 0 0 1 21.15 -110.33v57.19l-21.15 53.15z"/>
    <circle cy="873.58" cx="124.83" r="30.21" class="cls-117"/>
    <text class="cls-118" transform="translate(129.98 841)">
        <tspan class="cls-10">5</tspan>
        <tspan y="0" x="7.19">6%</tspan>
    </text>
    <text class="cls-68" transform="translate(108.31 877.52)">W
        <tspan y="0" x="10.89" class="cls-69">h</tspan>
        <tspan y="0" x="17.59" class="cls-70">i</tspan>
        <tspan y="0" x="21.21" class="cls-71">t</tspan>
        <tspan y="0" x="26.5" class="cls-72">e</tspan>
    </text>
    <path class="cls-109" d="m244.89 816.4a57.16 57.16 0 0 1 49.85 85.36l-49.85-28.18v-57.18z"/>
    <path class="cls-116" d="m244.89 816.4a57.16 57.16 0 0 1 49.85 85.36l-49.85-28.18v-57.18z"/>
    <path class="cls-1" d="m294.74 901.75a57.26 57.26 0 1 1 -49.85 -85.36v57.18l49.85 28.18z"/>
    <path class="cls-116" d="m294.74 901.75a57.26 57.26 0 1 1 -49.85 -85.36v57.18l49.85 28.18z"/>
    <circle cy="873.58" cx="244.89" r="30.21" class="cls-117"/>
    <text class="cls-118" transform="translate(250.67 841)">33%</text>
    <text class="cls-77" transform="translate(229.05 877.52)">Black</text>
    <path class="cls-109" d="m364.53 817.19a56.77 56.77 0 0 1 41.77 95.33l-41.77-38.52v-56.81z"/>
    <path class="cls-116" d="m364.53 817.19a56.77 56.77 0 0 1 41.77 95.33l-41.77-38.52v-56.81z"/>
    <path class="cls-1" d="m406.31 912.53a56.84 56.84 0 1 1 -41.77 -95.33v56.8l41.77 38.54z"/>
    <path class="cls-116" d="m406.31 912.53a56.84 56.84 0 1 1 -41.77 -95.33v56.8l41.77 38.54z"/>
    <circle cy="873.98" cx="364.53" r="30.21" class="cls-117"/>
    <text class="cls-118" transform="translate(370.5 841)">37%</text>
    <text class="cls-77" transform="translate(339.99 877.92)">Hispanic</text>
    <path class="cls-109" d="m482.68 819.39a55.67 55.67 0 0 1 23.39 106.24l-23.39-50.55v-55.69z"/>
    <path class="cls-116" d="m482.68 819.39a55.67 55.67 0 0 1 23.39 106.24l-23.39-50.55v-55.69z"/>
    <path class="cls-1" d="m506.07 925.63a55.7 55.7 0 1 1 -23.39 -106.24v55.68l23.39 50.55z"/>
    <path class="cls-116" d="m506.07 925.63a55.7 55.7 0 1 1 -23.39 -106.24v55.68l23.39 50.55z"/>
    <circle cy="875.08" cx="482.68" r="30.21" class="cls-117"/>
    <text class="cls-118" transform="translate(488.22 841)">43%</text>
    <text class="cls-80" transform="translate(466.64 879.02)">A
        <tspan y="0" x="9.04" class="cls-79">s</tspan>
        <tspan y="0" x="15.78" class="cls-74">i</tspan>
        <tspan y="0" x="18.42" class="cls-70">a</tspan>
        <tspan y="0" x="25.33" class="cls-69">n</tspan>
    </text>
    <polygon points="194.49 790.05 206.2 790.05 206.2 800.05 194.49 800.05 194.49 790.05" class="cls-1"/>
    <text class="cls-81" transform="translate(209.02 798.99)">Not a homeowner</text>
    <polygon points="331.49 790.05 343.2 790.05 343.2 800.05 331.49 800.05 331.49 790.05" class="cls-109"/>
    <text class="cls-81" transform="translate(346.02 798.99)">Homeowner</text>
    <text class="cls-42" transform="translate(274.01 1027.1)">POVERTY</text>
    <path class="cls-109" d="m362.06 1082.1a55.67 55.67 0 0 1 23.39 106.24l-23.39-50.55v-55.68z"/>
    <path class="cls-116" d="m362.06 1082.1a55.67 55.67 0 0 1 23.39 106.24l-23.39-50.55v-55.68z"/>
    <path class="cls-1" d="m385.45 1188.3a55.7 55.7 0 1 1 -23.39 -106.24v55.68l23.39 50.55z"/>
    <path class="cls-116" d="m385.45 1188.3a55.7 55.7 0 1 1 -23.39 -106.24v55.68l23.39 50.55z"/>
    <circle cy="1137.8" cx="362.06" r="30.21" class="cls-117"/>
    <text class="cls-118" transform="translate(365.6 1105.7)">43%</text>
    <text class="cls-77" transform="translate(337.01 1141.7)">Hispanic</text>
    <path class="cls-109" d="m125.75 1082.2a55.61 55.61 0 0 1 55.25 62.6l-55.27-7v-55.62z"/>
    <path class="cls-116" d="m125.75 1082.2a55.61 55.61 0 0 1 55.25 62.6l-55.27-7v-55.62z"/>
    <path class="cls-1" d="m181 1144.8a55.71 55.71 0 1 1 -55.27 -62.59v55.62l55.27 7z"/>
    <path class="cls-116" d="m181 1144.8a55.71 55.71 0 1 1 -55.27 -62.59v55.62l55.27 7z"/>
    <circle cy="1137.8" cx="125.75" r="30.21" class="cls-117"/>
    <text class="cls-68" transform="translate(109.23 1141.8)">W
        <tspan y="0" x="10.89" class="cls-69">h</tspan>
        <tspan y="0" x="17.59" class="cls-70">i</tspan>
        <tspan y="0" x="21.21" class="cls-71">t</tspan>
        <tspan y="0" x="26.5" class="cls-72">e</tspan>
    </text>
    <text class="cls-118" transform="translate(131.7 1105.7)">27%</text>
    <path class="cls-109" d="m243.88 1085.7a53.9 53.9 0 1 1 -13.43 106.11l13.43-52.21v-53.9z"/>
    <path class="cls-116" d="m243.88 1085.7a53.9 53.9 0 1 1 -13.43 106.11l13.43-52.21v-53.9z"/>
    <path class="cls-1" d="m230.45 1191.8a53.89 53.89 0 0 1 13.43 -106.11v53.9l-13.43 52.21z"/>
    <path class="cls-116" d="m230.45 1191.8a53.89 53.89 0 0 1 13.43 -106.11v53.9l-13.43 52.21z"/>
    <circle cy="1139.6" cx="243.87" r="30.21" class="cls-117"/>
    <text class="cls-77" transform="translate(228.04 1143.5)">Black</text>
    <text class="cls-118" transform="translate(247.45 1105.7)">54%</text>
    <path class="cls-109" d="m481.11 1083.9a54.75 54.75 0 0 1 49.63 78.1l-49.63-23.32v-54.76z"/>
    <path class="cls-116" d="m481.11 1083.9a54.75 54.75 0 0 1 49.63 78.1l-49.63-23.32v-54.76z"/>
    <path class="cls-1" d="m530.74 1162a54.84 54.84 0 1 1 -49.63 -78.08v54.76l49.63 23.3z"/>
    <path class="cls-116" d="m530.74 1162a54.84 54.84 0 1 1 -49.63 -78.08v54.76l49.63 23.3z"/>
    <circle cy="1138.7" cx="481.1" r="30.21" class="cls-117"/>
    <text class="cls-80" transform="translate(465.06 1142.6)">A
        <tspan y="0" x="9.04" class="cls-79">s</tspan>
        <tspan y="0" x="15.78" class="cls-74">i</tspan>
        <tspan y="0" x="18.42" class="cls-70">a</tspan>
        <tspan y="0" x="25.33" class="cls-69">n</tspan>
    </text>
    <text class="cls-118" transform="translate(487.15 1105.7)">32%</text>
    <polygon points="199.63 1055.7 211.34 1055.7 211.34 1065.7 199.63 1065.7 199.63 1055.7" class="cls-1"/>
    <text class="cls-81" transform="translate(214.16 1064.7)">Not in peverty</text>
    <polygon points="336.63 1055.7 348.34 1055.7 348.34 1065.7 336.63 1065.7 336.63 1055.7" class="cls-109"/>
    <text class="cls-81" transform="translate(351.16 1064.7)">In poverty</text>
    <line y2="1344.8" x2="225.88" y1="1521.7" x1="225.88" class="cls-65"/>
    <line y2="1344.8" x2="291.95" y1="1521.7" x1="291.95" class="cls-65"/>
    <line y2="1344.8" x2="358.01" y1="1521.7" x1="358.01" class="cls-65"/>
    <line y2="1344.8" x2="424.08" y1="1521.7" x1="424.08" class="cls-65"/>
    <line y2="1344.8" x2="490.14" y1="1521.7" x1="490.14" class="cls-65"/>
    <path class="cls-36" d="m318.48 1350.3h-158.16v7h158.16v-7zm-82.08 53h-76.08v7h76.07v-7zm71.07 53h-147.15v7h147.14v-7zm24 53h-171.15v7h171.17v-7z"/>
    <path class="cls-38" d="m465.62 1350.3h-147.14v7h147.14v-7zm-1 53h-228.23v7h228.23v-7zm-1 53h-156.16v7h156.16v-7zm17 53h-149.13v7h149.14v-7z"/>
    <path class="cls-66" d="m489.64 1350.3h-24v7h24v-7zm0 53h-25v7h25v-7zm0 53h-26v7h26v-7zm0.36 53h-9.37v7h9.37v-7z"/>
    <line y2="1521.7" x2="159.82" y1="1344.8" x1="159.82" class="cls-65"/>
    <text class="cls-68" transform="translate(115.7 1359.3)">W
        <tspan y="0" x="10.89" class="cls-69">h</tspan>
        <tspan y="0" x="17.59" class="cls-70">i</tspan>
        <tspan y="0" x="21.21" class="cls-71">t</tspan>
        <tspan y="0" x="26.5" class="cls-72">e</tspan>
    </text>
    <text class="cls-73" transform="translate(117.58 1411.6)">B
        <tspan y="0" x="8.98" class="cls-74">l</tspan>
        <tspan y="0" x="11.62" class="cls-70">a</tspan>
        <tspan y="0" x="18.53" class="cls-75">c</tspan>
        <tspan y="0" x="24.89" class="cls-76">k</tspan>
    </text>
    <text class="cls-77" transform="translate(101.24 1463.8)">
        <tspan class="cls-78">H</tspan>
        <tspan y="0" x="8.49" class="cls-70">i</tspan>
        <tspan y="0" x="12.11" class="cls-79">s</tspan>
        <tspan y="0" x="18.85" class="cls-69">p</tspan>
        <tspan y="0" x="25.29" class="cls-70">a</tspan>
        <tspan y="0" x="32.2" class="cls-69">n</tspan>
        <tspan y="0" x="38.9" class="cls-70">i</tspan>
        <tspan y="0" x="42.52">c</tspan>
    </text>
    <text class="cls-80" transform="translate(117.44 1516)">A
        <tspan y="0" x="9.04" class="cls-79">s</tspan>
        <tspan y="0" x="15.78" class="cls-74">i</tspan>
        <tspan y="0" x="18.42" class="cls-70">a</tspan>
        <tspan y="0" x="25.33" class="cls-69">n</tspan>
    </text>
    <text class="cls-2" transform="translate(150.49 1536.8)">0%</text>
    <text class="cls-2" transform="translate(213.4 1536.8)">
        <tspan class="cls-10">2</tspan>
        <tspan y="0" x="6.76">0%</tspan>
    </text>
    <text class="cls-2" transform="translate(279.35 1536.8)">
        <tspan class="cls-10">4</tspan>
        <tspan y="0" x="7.43">0%</tspan>
    </text>
    <text class="cls-2" transform="translate(345.29 1536.8)">
        <tspan class="cls-10">6</tspan>
        <tspan y="0" x="7.3">0%</tspan>
    </text>
    <text class="cls-2" transform="translate(411.24 1536.8)">
        <tspan class="cls-10">8</tspan>
        <tspan y="0" x="7.56">0%</tspan>
    </text>
    <text class="cls-2" transform="translate(474.15 1536.8)">
        <tspan class="cls-10">10</tspan>
        <tspan y="0" x="11.3">0%</tspan>
    </text>
    <polygon points="88.41 1318.4 100.11 1318.4 100.11 1328.4 88.41 1328.4 88.41 1318.4" class="cls-1"/>
    <text class="cls-81" transform="translate(103.93 1327.4)">Currently married</text>
    <polygon points="217.12 1318.4 228.83 1318.4 228.83 1328.4 217.12 1328.4 217.12 1318.4" class="cls-28"/>
    <text class="cls-81" transform="translate(232.65 1327.4)">Never married</text>
    <polygon points="325.64 1318.4 337.35 1318.4 337.35 1328.4 325.64 1328.4 325.64 1318.4" class="cls-97"/>
    <text class="cls-81" transform="translate(341.17 1327.4)">Divorced, separated, or widowed</text>
    <text class="cls-42" transform="translate(248.89 1289.8)">MARITAL STATUS</text>
</svg>
