<svg id="Layer_1" data-name="Layer 1" xmlns="http://www.w3.org/2000/svg" viewBox="0 0 484 284"><defs><style>.cls-1,.cls-6{fill:#b2b2b2;}.cls-1,.cls-3,.cls-4{fill-rule:evenodd;}.cls-14,.cls-18,.cls-2,.cls-21,.cls-9{font-size:11.99px;}.cls-2,.cls-22{fill:#595959;font-family:Interstate-Light, Interstate-Light;}.cls-3,.cls-7{fill:#ed7d31;}.cls-4,.cls-8{fill:#ffd98d;}.cls-5{fill:none;stroke:#d9d9d9;stroke-linejoin:round;stroke-width:1px;}.cls-14,.cls-18,.cls-21,.cls-9{font-family:Interstate-Bold, Interstate-Bold;}.cls-9{letter-spacing:0.03em;}.cls-10{letter-spacing:-0.02em;}.cls-11{letter-spacing:0.02em;}.cls-12{letter-spacing:0em;}.cls-13{letter-spacing:0em;}.cls-14{letter-spacing:0.04em;}.cls-15{letter-spacing:-0.06em;}.cls-16{letter-spacing:-0.01em;}.cls-17{letter-spacing:0.04em;}.cls-19{letter-spacing:-0.04em;}.cls-20{letter-spacing:0.02em;}.cls-21{letter-spacing:0em;}.cls-22{font-size:12px;}.cls-23{letter-spacing:-0.01em;}</style></defs><title>Millennials - static graphics v2 - Separate artboards</title><polygon class="cls-1" points="27.41 40.29 39.11 40.29 39.11 50.29 27.41 50.29 27.41 40.29 27.41 40.29"/><text class="cls-2" transform="translate(42.93 49.23)">Currently married</text><polygon class="cls-3" points="156.12 40.29 167.83 40.29 167.83 50.29 156.12 50.29 156.12 40.29 156.12 40.29"/><text class="cls-2" transform="translate(171.65 49.23)">Never married</text><polygon class="cls-4" points="264.64 40.29 276.35 40.29 276.35 50.29 264.64 50.29 264.64 40.29 264.64 40.29"/><text class="cls-2" transform="translate(280.17 49.23)">Divorced, separated, or widowed</text><line class="cls-5" x1="164.88" y1="244.72" x2="164.88" y2="67.84"/><line class="cls-5" x1="230.95" y1="244.72" x2="230.95" y2="67.84"/><line class="cls-5" x1="297.01" y1="244.72" x2="297.01" y2="67.84"/><line class="cls-5" x1="363.08" y1="244.72" x2="363.08" y2="67.84"/><line class="cls-5" x1="429.14" y1="244.72" x2="429.14" y2="67.84"/><polygon class="cls-6" points="257.48 71.5 99.32 71.5 99.32 86.17 257.48 86.17 257.48 71.5 257.48 71.5"/><polygon class="cls-7" points="404.62 71.5 257.48 71.5 257.48 86.17 404.62 86.17 404.62 71.5 404.62 71.5"/><polygon class="cls-8" points="428.64 71.5 404.62 71.5 404.62 86.17 428.64 86.17 428.64 71.5 428.64 71.5"/><polygon class="cls-6" points="175.4 123.37 99.32 123.37 99.32 138.04 175.4 138.04 175.4 123.37 175.4 123.37"/><polygon class="cls-7" points="403.62 123.37 175.4 123.37 175.4 138.04 403.62 138.04 403.62 123.37 403.62 123.37"/><polygon class="cls-8" points="428.64 123.37 403.62 123.37 403.62 138.04 428.64 138.04 428.64 123.37 428.64 123.37"/><polygon class="cls-6" points="246.47 177.66 99.32 177.66 99.32 192.33 246.47 192.33 246.47 177.66 246.47 177.66"/><polygon class="cls-7" points="402.62 177.66 246.47 177.66 246.47 192.33 402.62 192.33 402.62 177.66 402.62 177.66"/><polygon class="cls-8" points="428.64 177.66 402.62 177.66 402.62 192.33 428.64 192.33 428.64 177.66 428.64 177.66"/><polygon class="cls-6" points="270.49 227.73 99.32 227.73 99.32 242.7 270.49 242.7 270.49 227.73 270.49 227.73"/><polygon class="cls-7" points="419.63 227.73 270.49 227.73 270.49 242.7 419.63 242.7 419.63 227.73 419.63 227.73"/><polygon class="cls-8" points="429 227.73 419.63 227.73 419.63 242.7 429 242.7 429 227.73 429 227.73"/><line class="cls-5" x1="98.82" y1="67.84" x2="98.82" y2="244.72"/><text class="cls-9" transform="translate(54.7 82.4)">W<tspan class="cls-10" x="10.89" y="0">h</tspan><tspan class="cls-11" x="17.59" y="0">i</tspan><tspan class="cls-12" x="21.21" y="0">t</tspan><tspan class="cls-13" x="26.5" y="0">e</tspan></text><text class="cls-14" transform="translate(56.58 134.63)">B<tspan class="cls-15" x="8.98" y="0">l</tspan><tspan class="cls-11" x="11.62" y="0">a</tspan><tspan class="cls-16" x="18.53" y="0">c</tspan><tspan class="cls-17" x="24.89" y="0">k</tspan></text><text class="cls-18" transform="translate(40.24 186.87)"><tspan class="cls-19">H</tspan><tspan class="cls-11" x="8.49" y="0">i</tspan><tspan class="cls-20" x="12.11" y="0">s</tspan><tspan class="cls-10" x="18.85" y="0">p</tspan><tspan class="cls-11" x="25.29" y="0">a</tspan><tspan class="cls-10" x="32.2" y="0">n</tspan><tspan class="cls-11" x="38.9" y="0">i</tspan><tspan x="42.52" y="0">c</tspan></text><text class="cls-21" transform="translate(56.44 239.11)">A<tspan class="cls-20" x="9.04" y="0">s</tspan><tspan class="cls-15" x="15.78" y="0">i</tspan><tspan class="cls-11" x="18.42" y="0">a</tspan><tspan class="cls-10" x="25.33" y="0">n</tspan></text><text class="cls-22" transform="translate(89.49 259.84)">0%</text><text class="cls-22" transform="translate(152.4 259.84)"><tspan class="cls-23">2</tspan><tspan x="6.76" y="0">0%</tspan></text><text class="cls-22" transform="translate(218.35 259.84)"><tspan class="cls-23">4</tspan><tspan x="7.43" y="0">0%</tspan></text><text class="cls-22" transform="translate(284.29 259.84)"><tspan class="cls-23">6</tspan><tspan x="7.3" y="0">0%</tspan></text><text class="cls-22" transform="translate(350.24 259.84)"><tspan class="cls-23">8</tspan><tspan x="7.56" y="0">0%</tspan></text><text class="cls-22" transform="translate(413.15 259.84)"><tspan class="cls-23">10</tspan><tspan x="11.3" y="0">0%</tspan></text></svg>