<svg id="Layer_1" data-name="Layer 1" xmlns="http://www.w3.org/2000/svg" xmlns:xlink="http://www.w3.org/1999/xlink" viewBox="0 0 606 1327"><defs><style>.cls-1,.cls-102,.cls-103,.cls-128,.cls-48{fill:none;}.cls-2,.cls-82{fill:#e0e0e0;}.cls-110,.cls-130,.cls-131,.cls-132,.cls-21,.cls-3,.cls-7{font-size:12px;}.cls-110,.cls-130,.cls-131,.cls-132,.cls-3,.cls-70{font-family:Interstate-LightItalic, Interstate-LightItalic;}.cls-4{letter-spacing:-0.02em;}.cls-5,.cls-61{letter-spacing:-0.03em;}.cls-6,.cls-81{letter-spacing:-0.01em;}.cls-106,.cls-111,.cls-114,.cls-115,.cls-124,.cls-23,.cls-45,.cls-46,.cls-47,.cls-50,.cls-68,.cls-69,.cls-7,.cls-71,.cls-72,.cls-73,.cls-74,.cls-75,.cls-76,.cls-77,.cls-78,.cls-79,.cls-80,.cls-81,.cls-85,.cls-91,.cls-94,.cls-96{font-family:Interstate-Bold, Interstate-Bold;}.cls-8{letter-spacing:-0.02em;}.cls-54,.cls-9{letter-spacing:-0.03em;}.cls-10,.cls-97{letter-spacing:-0.01em;}.cls-11,.cls-90,.cls-91{fill:#727272;}.cls-12,.cls-77{letter-spacing:-0.02em;}.cls-13{letter-spacing:-0.09em;}.cls-14,.cls-76{letter-spacing:0em;}.cls-15,.cls-93,.cls-94{fill:#bcbcbc;}.cls-131,.cls-16,.cls-55,.cls-73{letter-spacing:-0.01em;}.cls-17{letter-spacing:-0.03em;}.cls-18,.cls-23,.cls-83,.cls-85{fill:#00ace8;}.cls-19{letter-spacing:-0.01em;}.cls-20{letter-spacing:-0.04em;}.cls-21,.cls-40,.cls-51,.cls-52,.cls-53,.cls-54,.cls-55,.cls-56,.cls-57,.cls-58,.cls-59,.cls-60,.cls-61,.cls-62,.cls-97,.cls-98{font-family:Interstate-Light, Interstate-Light;}.cls-22{letter-spacing:-0.01em;}.cls-24,.cls-52,.cls-78{letter-spacing:-0.02em;}.cls-25,.cls-56{letter-spacing:-0.02em;}.cls-26{letter-spacing:-0.03em;}.cls-27{letter-spacing:-0.05em;}.cls-132,.cls-28,.cls-59,.cls-75{letter-spacing:-0.01em;}.cls-29{letter-spacing:0em;}.cls-30{letter-spacing:-0.02em;}.cls-31,.cls-57{letter-spacing:-0.02em;}.cls-32{letter-spacing:-0.01em;}.cls-33{letter-spacing:-0.03em;}.cls-34{letter-spacing:0em;}.cls-35{letter-spacing:-0.02em;}.cls-36{letter-spacing:-0.02em;}.cls-37,.cls-62{letter-spacing:-0.01em;}.cls-38{letter-spacing:-0.05em;}.cls-39{letter-spacing:-0.01em;}.cls-40{font-size:15px;}.cls-41{letter-spacing:-0.01em;}.cls-42{letter-spacing:-0.02em;}.cls-43{letter-spacing:-0.03em;}.cls-44{letter-spacing:-0.02em;}.cls-45,.cls-49{letter-spacing:0em;}.cls-46{letter-spacing:-0.07em;}.cls-47{letter-spacing:0em;}.cls-48{stroke:#2c333b;stroke-miterlimit:10;stroke-width:0.6px;}.cls-53,.cls-65{letter-spacing:-0.02em;}.cls-58,.cls-99{letter-spacing:-0.02em;}.cls-60{letter-spacing:-0.01em;}.cls-63{letter-spacing:-0.13em;}.cls-64{letter-spacing:0.02em;}.cls-66{letter-spacing:0.01em;}.cls-67{letter-spacing:-0.02em;}.cls-68,.cls-95{letter-spacing:-0.02em;}.cls-69{letter-spacing:-0.02em;}.cls-71{letter-spacing:-0.05em;}.cls-130,.cls-72,.cls-88{letter-spacing:0em;}.cls-74{letter-spacing:-0.03em;}.cls-79{letter-spacing:-0.06em;}.cls-80{letter-spacing:-0.03em;}.cls-103,.cls-82,.cls-83,.cls-90,.cls-93{fill-rule:evenodd;}.cls-106,.cls-110,.cls-111,.cls-124,.cls-84{fill:#fff;}.cls-85{font-size:16.46px;letter-spacing:-0.03em;}.cls-86{letter-spacing:-0.02em;}.cls-87{letter-spacing:0em;}.cls-89{letter-spacing:-0.06em;}.cls-106,.cls-111,.cls-124,.cls-91,.cls-94{font-size:16.46px;}.cls-92{letter-spacing:-0.02em;}.cls-96{letter-spacing:-0.02em;}.cls-101,.cls-98{letter-spacing:0em;}.cls-100{letter-spacing:-0.02em;}.cls-102,.cls-128{stroke:#d9d9d9;stroke-linejoin:round;}.cls-102{stroke-width:1px;}.cls-104{letter-spacing:-0.11em;}.cls-105{letter-spacing:-0.01em;}.cls-106,.cls-129{letter-spacing:-0.05em;}.cls-107{letter-spacing:-0.03em;}.cls-108{letter-spacing:0em;}.cls-109{clip-path:url(#clip-path);}.cls-112{clip-path:url(#clip-path-2);}.cls-113{clip-path:url(#clip-path-3);}.cls-114{letter-spacing:-0.02em;}.cls-115{letter-spacing:0.02em;}.cls-116{letter-spacing:-0.1em;}.cls-117{letter-spacing:-0.1em;}.cls-118{clip-path:url(#clip-path-4);}.cls-119{clip-path:url(#clip-path-5);}.cls-120{clip-path:url(#clip-path-6);}.cls-121{letter-spacing:0em;}.cls-122{clip-path:url(#clip-path-7);}.cls-123{clip-path:url(#clip-path-8);}.cls-124{letter-spacing:-0.05em;}.cls-125{letter-spacing:0em;}.cls-126{clip-path:url(#clip-path-9);}.cls-127{letter-spacing:-0.01em;}.cls-128{stroke-width:1px;}.cls-133{letter-spacing:-0.03em;}.cls-134{letter-spacing:-0.02em;}</style><clipPath id="clip-path"><rect class="cls-1" x="303.95" y="807.9" width="33.06" height="20.98"/></clipPath><clipPath id="clip-path-2"><rect class="cls-1" x="371.1" y="800.9" width="33.06" height="20.98"/></clipPath><clipPath id="clip-path-3"><rect class="cls-1" x="440.12" y="787.9" width="33.06" height="20.98"/></clipPath><clipPath id="clip-path-4"><rect class="cls-1" x="104.88" y="1013.8" width="35.37" height="28.07"/></clipPath><clipPath id="clip-path-5"><rect class="cls-1" x="186.46" y="1013.8" width="35.37" height="28.07"/></clipPath><clipPath id="clip-path-6"><rect class="cls-1" x="145.67" y="1013.8" width="35.37" height="28.07"/></clipPath><clipPath id="clip-path-7"><rect class="cls-1" x="274.53" y="1013.78" width="35.37" height="28.07"/></clipPath><clipPath id="clip-path-8"><rect class="cls-1" x="315.32" y="1013.78" width="35.37" height="28.07"/></clipPath><clipPath id="clip-path-9"><rect class="cls-1" x="434.62" y="1014.23" width="35.37" height="28.07"/></clipPath></defs><title>Graphics</title><rect class="cls-2" x="154.98" y="77.48" width="431.18" height="3.94"/><text class="cls-3" transform="translate(84.41 95.53)">1<tspan class="cls-4" x="3.74" y="0">9</tspan><tspan x="10.8" y="0">46</tspan><tspan class="cls-5" x="25.57" y="0">-</tspan><tspan x="29.08" y="0">1</tspan><tspan class="cls-6" x="32.82" y="0">9</tspan><tspan x="40.02" y="0">64</tspan></text><text class="cls-7" transform="translate(62.51 71.53)"><tspan class="cls-8">B</tspan><tspan x="8.23" y="0">A</tspan><tspan class="cls-9" x="17.23" y="0">B</tspan><tspan x="25.33" y="0">Y </tspan><tspan class="cls-10" x="37.38" y="0">B</tspan><tspan x="45.82" y="0">OOMERS</tspan></text><rect class="cls-2" x="20.98" y="77.48" width="176.23" height="3.94"/><circle class="cls-11" cx="195.21" cy="79.45" r="8"/><circle class="cls-11" cx="25.21" cy="79.45" r="8"/><text class="cls-7" transform="translate(258.33 71.53)">GENE<tspan class="cls-12" x="32.94" y="0">R</tspan><tspan class="cls-13" x="41.33" y="0">A</tspan><tspan class="cls-14" x="49.19" y="0">TION X</tspan></text><rect class="cls-2" x="214.27" y="77.48" width="176.23" height="3.94"/><circle class="cls-15" cx="388.5" cy="79.45" r="8"/><circle class="cls-15" cx="218.5" cy="79.45" r="8"/><text class="cls-3" transform="translate(276.7 95.53)">1<tspan class="cls-16" x="3.74" y="0">96</tspan><tspan x="18.14" y="0">5</tspan><tspan class="cls-17" x="25.36" y="0">-</tspan><tspan x="28.86" y="0">1</tspan><tspan class="cls-6" x="32.6" y="0">9</tspan><tspan class="cls-14" x="39.8" y="0">80</tspan></text><text class="cls-7" transform="translate(454.21 71.53)">MILLENNIALS</text><rect class="cls-2" x="406.56" y="77.48" width="176.23" height="3.94"/><circle class="cls-18" cx="580.79" cy="79.45" r="8"/><circle class="cls-18" cx="410.79" cy="79.45" r="8"/><text class="cls-3" transform="translate(468.99 95.53)">1<tspan class="cls-16" x="3.74" y="0">9</tspan><tspan class="cls-19" x="10.94" y="0">8</tspan><tspan x="18.47" y="0">1</tspan><tspan class="cls-17" x="22.21" y="0">-</tspan><tspan class="cls-14" x="25.72" y="0">19</tspan><tspan class="cls-20" x="36.78" y="0">9</tspan><tspan class="cls-14" x="43.56" y="0">7</tspan></text><text class="cls-21" transform="translate(7.71 199.78)"><tspan class="cls-22">W</tspan><tspan x="10.18" y="0">hile </tspan><tspan class="cls-23" x="32.6" y="0">Millennials</tspan><tspan x="93.13" y="0" xml:space="preserve"> a</tspan><tspan class="cls-24" x="102.72" y="0">r</tspan><tspan x="107.3" y="0">e n</tspan><tspan class="cls-25" x="123.71" y="0">o</tspan><tspan x="130.28" y="0">w the la</tspan><tspan class="cls-26" x="172.51" y="0">r</tspan><tspan x="177.06" y="0">g</tspan><tspan class="cls-16" x="183.76" y="0">es</tspan><tspan x="195.61" y="0">t gene</tspan><tspan class="cls-9" x="229.66" y="0">r</tspan><tspan x="234.13" y="0">ation at mo</tspan><tspan class="cls-24" x="295.8" y="0">r</tspan><tspan x="300.39" y="0">e than </tspan><tspan class="cls-27" x="337.65" y="0">7</tspan><tspan x="343.72" y="0">5 million, sur</tspan><tspan class="cls-28" x="413.21" y="0">p</tspan><tspan x="419.82" y="0">a</tspan><tspan class="cls-16" x="426.29" y="0">s</tspan><tspan x="431.77" y="0">sing </tspan><tspan class="cls-28" x="457.02" y="0">b</tspan><tspan class="cls-29" x="463.63" y="0">a</tspan><tspan class="cls-30" x="470.1" y="0">b</tspan><tspan x="476.57" y="0">y boome</tspan><tspan class="cls-31" x="523.01" y="0">r</tspan><tspan class="cls-32" x="527.65" y="0">s</tspan><tspan x="533.11" y="0">, th</tspan><tspan class="cls-31" x="550.38" y="0">e</tspan><tspan x="556.62" y="0">y </tspan><tspan class="cls-24" x="0" y="14.4">r</tspan><tspan x="4.58" y="14.4">ep</tspan><tspan class="cls-33" x="17.77" y="14.4">r</tspan><tspan class="cls-6" x="22.36" y="14.4">es</tspan><tspan x="34.2" y="14.4">e</tspan><tspan class="cls-34" x="40.68" y="14.4">n</tspan><tspan x="47.42" y="14.4">t a smaller pe</tspan><tspan class="cls-33" x="120.54" y="14.4">r</tspan><tspan class="cls-35" x="125.12" y="14.4">c</tspan><tspan x="130.86" y="14.4">e</tspan><tspan class="cls-34" x="137.34" y="14.4">n</tspan><tspan class="cls-36" x="144.08" y="14.4">t</tspan><tspan x="148.37" y="14.4">age </tspan><tspan class="cls-37" x="171.14" y="14.4">o</tspan><tspan x="177.75" y="14.4">f the natio</tspan><tspan class="cls-24" x="233.55" y="14.4">n</tspan><tspan class="cls-38" x="240.05" y="14.4">’</tspan><tspan x="242.48" y="14.4">s </tspan><tspan class="cls-31" x="251.2" y="14.4">t</tspan><tspan class="cls-34" x="255.43" y="14.4">o</tspan><tspan class="cls-36" x="262.16" y="14.4">t</tspan><tspan x="266.44" y="14.4">al population than </tspan><tspan class="cls-28" x="367.38" y="14.4">b</tspan><tspan x="374" y="14.4">a</tspan><tspan class="cls-31" x="380.46" y="14.4">b</tspan><tspan x="386.93" y="14.4">y boome</tspan><tspan class="cls-30" x="433.37" y="14.4">r</tspan><tspan x="438.02" y="14.4">s did when th</tspan><tspan class="cls-31" x="509.52" y="14.4">e</tspan><tspan x="515.76" y="14.4">y </tspan><tspan class="cls-25" x="525.25" y="14.4">w</tspan><tspan x="533.8" y="14.4">e</tspan><tspan class="cls-24" x="540.28" y="14.4">r</tspan><tspan x="544.86" y="14.4">e </tspan><tspan class="cls-24" x="0" y="28.8">y</tspan><tspan x="6.07" y="28.8">oung adul</tspan><tspan class="cls-10" x="59.29" y="28.8">t</tspan><tspan class="cls-39" x="63.67" y="28.8">s</tspan><tspan x="69.13" y="28.8">. </tspan></text><text class="cls-40" transform="translate(7.71 37.01)"><tspan class="cls-41">W</tspan><tspan x="12.72" y="0">hen </tspan><tspan class="cls-42" x="41.73" y="0">w</tspan><tspan x="52.41" y="0">e</tspan><tspan class="cls-43" x="60.51" y="0">r</tspan><tspan x="66.24" y="0">e th</tspan><tspan class="cls-44" x="92.32" y="0">e</tspan><tspan x="100.12" y="0">y </tspan><tspan class="cls-45" x="111.99" y="0">bor</tspan><tspan class="cls-46" x="135.16" y="0">n</tspan><tspan class="cls-47" x="142.9" y="0">?</tspan></text><line class="cls-48" x1="7.74" y1="45.21" x2="507.52" y2="45.21"/><text class="cls-40" transform="translate(7.71 166.72)">Sha<tspan class="cls-43" x="25.47" y="0">r</tspan><tspan class="cls-49" x="31.2" y="0">e </tspan><tspan class="cls-37" x="43.2" y="0">o</tspan><tspan x="51.46" y="0">f the </tspan><tspan class="cls-50" x="86.79" y="0">population</tspan></text><line class="cls-48" x1="7.71" y1="174.91" x2="507.48" y2="174.91"/><text class="cls-7" transform="translate(7.71 441.83)"><tspan class="cls-18">Millennials</tspan><tspan class="cls-51" x="60.53" y="0" xml:space="preserve"> a</tspan><tspan class="cls-52" x="70.11" y="0">r</tspan><tspan class="cls-51" x="74.7" y="0">e </tspan><tspan class="cls-53" x="84.3" y="0">b</tspan><tspan class="cls-51" x="90.77" y="0">y </tspan><tspan class="cls-54" x="100.26" y="0">f</tspan><tspan class="cls-51" x="104.11" y="0">ar the m</tspan><tspan class="cls-55" x="149.63" y="0">os</tspan><tspan class="cls-51" x="161.78" y="0">t di</tspan><tspan class="cls-56" x="179.08" y="0">v</tspan><tspan class="cls-51" x="185.13" y="0">e</tspan><tspan class="cls-57" x="191.61" y="0">r</tspan><tspan class="cls-55" x="196.26" y="0">s</tspan><tspan class="cls-51" x="201.74" y="0">e gene</tspan><tspan class="cls-54" x="237.81" y="0">r</tspan><tspan class="cls-51" x="242.27" y="0">ation </tspan><tspan class="cls-58" x="272.93" y="0">c</tspan><tspan class="cls-51" x="278.67" y="0">om</tspan><tspan class="cls-59" x="295.64" y="0">p</tspan><tspan class="cls-51" x="302.25" y="0">a</tspan><tspan class="cls-52" x="308.72" y="0">r</tspan><tspan class="cls-51" x="313.3" y="0">ed </tspan><tspan class="cls-57" x="329.61" y="0">t</tspan><tspan class="cls-51" x="333.83" y="0">o prior gene</tspan><tspan class="cls-54" x="399.61" y="0">r</tspan><tspan class="cls-51" x="404.08" y="0">ations: in 1</tspan><tspan class="cls-60" x="459.9" y="0">9</tspan><tspan class="cls-51" x="467.15" y="0">8</tspan><tspan class="cls-61" x="474.78" y="0">0</tspan><tspan class="cls-51" x="482.13" y="0">, the sha</tspan><tspan class="cls-52" x="527.87" y="0">r</tspan><tspan class="cls-51" x="532.45" y="0">e </tspan><tspan class="cls-62" x="542.05" y="0">o</tspan><tspan class="cls-51" x="548.66" y="0">f </tspan><tspan class="cls-51"><tspan class="cls-24" x="0" y="14.4">y</tspan><tspan x="6.07" y="14.4">oung adult minoriti</tspan><tspan class="cls-16" x="109.03" y="14.4">e</tspan><tspan x="115.39" y="14.4">s within the </tspan><tspan class="cls-31" x="180.96" y="14.4">t</tspan><tspan class="cls-34" x="185.18" y="14.4">o</tspan><tspan class="cls-37" x="191.91" y="14.4">t</tspan><tspan x="196.2" y="14.4">al population </tspan><tspan class="cls-9" x="269.48" y="14.4">w</tspan><tspan x="277.82" y="14.4">as 21.</tspan><tspan class="cls-37" x="306.46" y="14.4">6</tspan><tspan x="313.65" y="14.4">%. In </tspan><tspan class="cls-25" x="344.39" y="14.4">2</tspan><tspan x="351" y="14.4">00</tspan><tspan class="cls-5" x="366.41" y="14.4">0</tspan><tspan x="373.76" y="14.4">, the sha</tspan><tspan class="cls-24" x="419.5" y="14.4">r</tspan><tspan x="424.08" y="14.4">e jumped </tspan><tspan class="cls-31" x="476.69" y="14.4">t</tspan><tspan x="480.91" y="14.4">o </tspan><tspan class="cls-9" x="490.83" y="14.4">3</tspan><tspan class="cls-63" x="497.16" y="14.4">7</tspan><tspan class="cls-64" x="502.33" y="14.4">.</tspan><tspan class="cls-36" x="505.39" y="14.4">3</tspan><tspan x="511.97" y="14.4">%. In </tspan><tspan class="cls-25" x="0" y="28.8">2</tspan><tspan x="6.61" y="28.8">01</tspan><tspan class="cls-65" x="18.06" y="28.8">5</tspan><tspan x="25.08" y="28.8">, the sha</tspan><tspan class="cls-33" x="70.82" y="28.8">r</tspan><tspan x="75.41" y="28.8">e inc</tspan><tspan class="cls-24" x="100.76" y="28.8">r</tspan><tspan class="cls-10" x="105.35" y="28.8">e</tspan><tspan x="111.74" y="28.8">a</tspan><tspan class="cls-6" x="118.21" y="28.8">s</tspan><tspan x="123.69" y="28.8">ed fu</tspan><tspan class="cls-66" x="151.08" y="28.8">r</tspan><tspan x="156.08" y="28.8">ther </tspan><tspan class="cls-30" x="181.83" y="28.8">t</tspan><tspan x="186.06" y="28.8">o 4</tspan><tspan class="cls-36" x="203.47" y="28.8">4</tspan><tspan x="210.79" y="28.8" xml:space="preserve">.2%.  </tspan></tspan></text><text class="cls-40" transform="translate(7.71 408.76)"><tspan class="cls-67">R</tspan><tspan x="9.39" y="0">acial and </tspan><tspan class="cls-41" x="73.29" y="0">e</tspan><tspan x="81.27" y="0">thnic </tspan><tspan class="cls-50" x="118.95" y="0">di</tspan><tspan class="cls-68" x="131.61" y="0">v</tspan><tspan class="cls-50" x="139.9" y="0">e</tspan><tspan class="cls-69" x="147.97" y="0">r</tspan><tspan class="cls-50" x="154.08" y="0">si</tspan><tspan class="cls-69" x="166.36" y="0">t</tspan><tspan class="cls-50" x="172.68" y="0">y</tspan></text><line class="cls-48" x1="7.71" y1="416.96" x2="507.48" y2="416.96"/><path class="cls-11" d="M192.11,559.28h-18q-7.7,0-7.7,6v18.15a2.64,2.64,0,0,0,5.14,0V567.34a1.3,1.3,0,1,1,2.57,0V610.8c0,1.6,1.66,2.91,3.71,2.91h.28c2,0,3.71-1.31,3.71-2.91V589.52a1.3,1.3,0,1,1,2.57,0V610.8c0,1.6,1.67,2.91,3.71,2.91h.28c2,0,3.71-1.31,3.71-2.91V565.33c0-2,23.11-2,25.68-2s2.57-2,2.57-2,0-2-2.57-2Z"/><path class="cls-11" d="M189.54,551.17a6.42,6.42,0,1,1-6.42-6.42A6.42,6.42,0,0,1,189.54,551.17Z"/><path class="cls-11" d="M237.93,559.28H220q-7.7,0-7.7,6v18.15a2.64,2.64,0,0,0,5.14,0V567.34a1.3,1.3,0,1,1,2.57,0V610.8c0,1.6,1.67,2.91,3.71,2.91h.29c2,0,3.71-1.31,3.71-2.91V589.52a1.3,1.3,0,1,1,2.57,0V610.8c0,1.6,1.67,2.91,3.71,2.91h.28c2,0,3.71-1.31,3.71-2.91V565.33c0-2,23.11-2,25.68-2s2.57-2,2.57-2,0-2-2.57-2Z"/><path class="cls-11" d="M235.36,551.17a6.42,6.42,0,1,1-6.42-6.42A6.42,6.42,0,0,1,235.36,551.17Z"/><path class="cls-15" d="M283.74,559.28h-18q-7.7,0-7.7,6v18.15a2.64,2.64,0,0,0,5.14,0V567.34a1.3,1.3,0,1,1,2.57,0V610.8c0,1.6,1.67,2.91,3.71,2.91h.28c2,0,3.71-1.31,3.71-2.91V589.52a1.3,1.3,0,1,1,2.57,0V610.8c0,1.6,1.67,2.91,3.71,2.91H280c2,0,3.71-1.31,3.71-2.91V565.33c0-2,23.12-2,25.68-2s2.56-2,2.56-2,0-2-2.56-2Z"/><path class="cls-15" d="M281.17,551.17a6.42,6.42,0,1,1-6.42-6.42A6.42,6.42,0,0,1,281.17,551.17Z"/><path class="cls-15" d="M329.56,559.28h-18q-7.7,0-7.7,6v18.15a2.64,2.64,0,0,0,5.14,0V567.34a1.3,1.3,0,1,1,2.57,0V610.8c0,1.6,1.67,2.91,3.71,2.91h.29c2,0,3.71-1.31,3.71-2.91V589.52a1.3,1.3,0,1,1,2.57,0V610.8c0,1.6,1.67,2.91,3.71,2.91h.28c2,0,3.71-1.31,3.71-2.91V565.33c0-2,23.11-2,25.68-2s2.57-2,2.57-2,0-2-2.57-2Z"/><path class="cls-15" d="M327,551.17a6.42,6.42,0,1,1-6.42-6.42A6.42,6.42,0,0,1,327,551.17Z"/><path class="cls-18" d="M377.61,559.41H359.74q-7.66,0-7.66,6v18a2.63,2.63,0,0,0,5.1,0v-14a1.29,1.29,0,1,1,2.56,0v41.19c0,1.59,1.66,2.89,3.68,2.89h.29c2,0,3.68-1.3,3.68-2.89V589.47a1.29,1.29,0,1,1,2.56,0v21.15c0,1.59,1.66,2.89,3.69,2.89h.28c2,0,3.69-1.3,3.69-2.89V567.43c0-2,22.47-17.47,23-18s.85-1.95-1.14-2.5a5,5,0,0,0-4,.5C395,547.67,385.26,555.41,377.61,559.41Z"/><circle class="cls-18" cx="368.67" cy="551.41" r="6.38"/><path class="cls-18" d="M418.48,559.41h17.87q7.65,0,7.65,6v18a2.63,2.63,0,0,1-5.1,0v-14a1.29,1.29,0,1,0-2.55,0v41.19c0,1.59-1.66,2.89-3.69,2.89h-.28c-2,0-3.69-1.3-3.69-2.89V589.47a1.29,1.29,0,1,0-2.55,0v21.15c0,1.59-1.66,2.89-3.69,2.89h-.28c-2,0-3.69-1.3-3.69-2.89V567.43c0-2-22.47-17.47-23-18s-.85-1.95,1.14-2.5a5,5,0,0,1,4,.5C401,547.67,410.83,555.41,418.48,559.41Z"/><circle class="cls-18" cx="427.42" cy="551.41" r="6.38"/><text class="cls-7" transform="translate(135.48 520.4)"><tspan class="cls-8">B</tspan><tspan x="8.23" y="0">A</tspan><tspan class="cls-9" x="17.23" y="0">B</tspan><tspan x="25.33" y="0">Y </tspan><tspan class="cls-10" x="37.38" y="0">B</tspan><tspan x="45.82" y="0">OOMERS</tspan><tspan class="cls-70"><tspan x="29.18" y="14.4">in 1</tspan><tspan class="cls-6" x="45.77" y="14.4">9</tspan><tspan class="cls-14" x="52.97" y="14.4">80</tspan></tspan></text><text class="cls-7" transform="translate(282.88 520.4)">GEN X<tspan class="cls-70"><tspan x="-2.72" y="14.4">in </tspan><tspan class="cls-22" x="10.12" y="14.4">2</tspan><tspan x="16.8" y="14.4">000</tspan></tspan></text><text class="cls-7" transform="translate(375.87 520.4)">MILLENNIALS<tspan class="cls-70"><tspan x="22.51" y="14.4">in </tspan><tspan class="cls-22" x="35.35" y="14.4">2</tspan><tspan x="42.04" y="14.4">015</tspan></tspan></text><text class="cls-3" transform="translate(152.85 631.55)"><tspan class="cls-22">W</tspan><tspan x="10.13" y="0">hi</tspan><tspan class="cls-65" x="19.9" y="0">t</tspan><tspan x="24.12" y="0">e</tspan><tspan class="cls-50" x="30.55" y="0"> </tspan><tspan class="cls-71" x="34.03" y="0">7</tspan><tspan class="cls-72" x="41.06" y="0">8</tspan><tspan class="cls-73" x="49.49" y="0">.</tspan><tspan class="cls-74" x="52.63" y="0">4</tspan><tspan class="cls-50" x="60.66" y="0">%</tspan><tspan x="-9.65" y="14.4">Minoriti</tspan><tspan class="cls-16" x="31.61" y="14.4">e</tspan><tspan class="cls-14" x="37.93" y="14.4">s </tspan><tspan class="cls-75" x="46.55" y="14.4">2</tspan><tspan class="cls-76" x="54.65" y="14.4">1.</tspan><tspan class="cls-77" x="62.54" y="14.4">6</tspan><tspan class="cls-50" x="70.31" y="14.4">%</tspan></text><text class="cls-3" transform="translate(270.79 631.55)"><tspan class="cls-22">W</tspan><tspan x="10.13" y="0">hi</tspan><tspan class="cls-65" x="19.9" y="0">t</tspan><tspan x="24.12" y="0">e </tspan><tspan class="cls-78" x="33.62" y="0">6</tspan><tspan class="cls-50" x="41.28" y="0">2</tspan><tspan class="cls-79" x="49.48" y="0">.</tspan><tspan class="cls-80" x="51.98" y="0">7</tspan><tspan class="cls-72" x="59.24" y="0">%</tspan><tspan x="-12.02" y="14.4">Minoriti</tspan><tspan class="cls-16" x="29.24" y="14.4">e</tspan><tspan class="cls-14" x="35.56" y="14.4">s </tspan><tspan class="cls-77" x="44.18" y="14.4">3</tspan><tspan class="cls-50" x="51.74" y="14.4">6.</tspan><tspan class="cls-81" x="62.96" y="14.4">8</tspan><tspan class="cls-50" x="71.27" y="14.4">%</tspan></text><text class="cls-3" transform="translate(385.89 631.55)"><tspan class="cls-28">W</tspan><tspan x="10.13" y="0">hi</tspan><tspan class="cls-65" x="19.9" y="0">t</tspan><tspan x="24.12" y="0">e</tspan><tspan class="cls-50" x="30.55" y="0"> </tspan><tspan class="cls-69" x="34.03" y="0">55</tspan><tspan class="cls-72" x="49.56" y="0">.</tspan><tspan class="cls-73" x="52.82" y="0">8</tspan><tspan class="cls-50" x="61.13" y="0">%</tspan><tspan x="-11.52" y="14.4">Minoriti</tspan><tspan class="cls-16" x="29.75" y="14.4">e</tspan><tspan class="cls-14" x="36.06" y="14.4">s </tspan><tspan class="cls-50" x="44.69" y="14.4">4</tspan><tspan class="cls-77" x="53.03" y="14.4">4</tspan><tspan class="cls-72" x="61.19" y="14.4">.2%</tspan></text><path class="cls-82" d="M471.23,299a35.8,35.8,0,0,1-66.55,22.81L435.78,304l35.45-5Z"/><path class="cls-82" d="M404.68,321.79a35.84,35.84,0,0,1,30.53-53.63l.57,35.86-31.1,17.77Z"/><path class="cls-83" d="M435.21,268.16a35.85,35.85,0,0,1,36,30.82l-35.45,5-.57-35.86Z"/><circle class="cls-84" cx="435.78" cy="304.02" r="24.4"/><text class="cls-85" transform="translate(416.96 309.43)">2<tspan class="cls-86" x="10.82" y="0">3</tspan><tspan class="cls-87" x="21.19" y="0">%</tspan></text><text class="cls-7" transform="translate(476.2 300.15)">MILLENNIALS</text><text class="cls-3" transform="translate(476.2 315.78)"><tspan class="cls-22">2</tspan><tspan class="cls-88" x="6.68" y="0">01</tspan><tspan class="cls-31" x="18.08" y="0">5</tspan><tspan x="25.06" y="0">, ag</tspan><tspan class="cls-6" x="44.09" y="0">e</tspan><tspan x="50.4" y="0">s 18</tspan><tspan class="cls-89" x="70.36" y="0">-</tspan><tspan x="73.56" y="0">34</tspan></text><path class="cls-82" d="M61.2,337.34a35.8,35.8,0,0,1,13.28-69.09l0,35.82L61.2,337.34Z"/><path class="cls-90" d="M74.49,268.25a35.84,35.84,0,0,1,31.36,53.14L74.44,304.07l0-35.82Z"/><path class="cls-82" d="M105.85,321.4A35.85,35.85,0,0,1,61.2,337.34l13.24-33.27,31.41,17.33Z"/><circle class="cls-84" cx="74.44" cy="304.07" r="24.4"/><text class="cls-91" transform="translate(55.85 309.48)"><tspan class="cls-92">33</tspan><tspan x="20.74" y="0">%</tspan></text><text class="cls-7" transform="translate(115.2 299.69)"><tspan class="cls-8">B</tspan><tspan x="8.23" y="0">A</tspan><tspan class="cls-9" x="17.23" y="0">B</tspan><tspan x="25.33" y="0">Y </tspan><tspan class="cls-10" x="37.38" y="0">B</tspan><tspan x="45.82" y="0">OOMERS</tspan></text><text class="cls-3" transform="translate(115.2 316.33)">1<tspan class="cls-16" x="3.74" y="0">9</tspan><tspan x="10.94" y="0">8</tspan><tspan class="cls-17" x="18.53" y="0">0</tspan><tspan x="25.82" y="0">, ag</tspan><tspan class="cls-16" x="44.86" y="0">e</tspan><tspan class="cls-88" x="51.17" y="0">s 16</tspan><tspan class="cls-89" x="70.86" y="0">-</tspan><tspan x="74.06" y="0">34</tspan></text><path class="cls-82" d="M242.48,337.34a35.8,35.8,0,0,1,13.28-69.09l0,35.82-13.24,33.27Z"/><path class="cls-93" d="M255.76,268.25a35.84,35.84,0,0,1,31.36,53.14l-31.41-17.33,0-35.82Z"/><path class="cls-82" d="M287.13,321.4a35.85,35.85,0,0,1-44.64,15.95l13.24-33.27,31.41,17.33Z"/><circle class="cls-84" cx="255.72" cy="304.07" r="24.4"/><text class="cls-94" transform="translate(246.1 309.48)">??</text><text class="cls-7" transform="translate(296.48 299.69)">GENE<tspan class="cls-12" x="32.94" y="0">R</tspan><tspan class="cls-13" x="41.33" y="0">A</tspan><tspan class="cls-14" x="49.19" y="0">TION X</tspan></text><text class="cls-3" transform="translate(296.48 316.33)"><tspan class="cls-28">2</tspan><tspan class="cls-14" x="6.68" y="0">00</tspan><tspan class="cls-5" x="22" y="0">0</tspan><tspan x="29.29" y="0">, ag</tspan><tspan class="cls-6" x="48.32" y="0">e</tspan><tspan x="54.64" y="0">s 16</tspan><tspan class="cls-89" x="74.33" y="0">-</tspan><tspan x="77.53" y="0">34</tspan></text><text class="cls-40" transform="translate(7.71 717.13)"><tspan class="cls-95">C</tspan><tspan x="9.17" y="0">ollege </tspan><tspan class="cls-50" x="53.67" y="0">deg</tspan><tspan class="cls-96" x="78.6" y="0">r</tspan><tspan class="cls-50" x="84.79" y="0">ee</tspan></text><line class="cls-48" x1="7.71" y1="725.33" x2="507.48" y2="725.33"/><text class="cls-21" transform="translate(64.65 764.44)">One <tspan class="cls-37" x="24.86" y="0">o</tspan><tspan class="cls-14" x="31.48" y="0">f the long-</tspan><tspan class="cls-65" x="86.91" y="0">t</tspan><tspan x="91.14" y="0">erm t</tspan><tspan class="cls-24" x="120.26" y="0">r</tspan><tspan x="124.85" y="0">ends </tspan><tspan x="0" y="14.4">that </tspan><tspan class="cls-35" x="25.32" y="14.4">c</tspan><tspan class="cls-14" x="31.06" y="14.4">o</tspan><tspan class="cls-34" x="37.85" y="14.4">n</tspan><tspan x="44.59" y="14.4">tinued with </tspan><tspan class="cls-50"><tspan class="cls-18" x="0" y="28.8">millennials</tspan><tspan class="cls-51" x="61.08" y="28.8" xml:space="preserve"> is the inc</tspan><tspan class="cls-52" x="112.56" y="28.8">r</tspan><tspan class="cls-97" x="117.14" y="28.8">e</tspan><tspan class="cls-51" x="123.54" y="28.8">a</tspan><tspan class="cls-55" x="130.01" y="28.8">s</tspan><tspan class="cls-98" x="135.49" y="28.8">e in </tspan></tspan><tspan x="0" y="43.2">edu</tspan><tspan class="cls-99" x="19.99" y="43.2">c</tspan><tspan x="25.73" y="43.2">ation a</tspan><tspan class="cls-12" x="62.85" y="43.2">tt</tspan><tspan x="71.42" y="43.2">ainme</tspan><tspan class="cls-19" x="104.36" y="43.2">n</tspan><tspan class="cls-6" x="111.11" y="43.2">t</tspan><tspan x="115.45" y="43.2">, which, </tspan><tspan class="cls-100" x="0" y="57.6">f</tspan><tspan x="4.01" y="57.6">or their gene</tspan><tspan class="cls-9" x="74.04" y="57.6">r</tspan><tspan x="78.5" y="57.6">ation mo</tspan><tspan class="cls-33" x="126.13" y="57.6">r</tspan><tspan class="cls-101" x="130.71" y="57.6">e </tspan><tspan x="0" y="72">than </tspan><tspan class="cls-34" x="27.66" y="72">o</tspan><tspan x="34.39" y="72">the</tspan><tspan class="cls-65" x="52.14" y="72">r</tspan><tspan class="cls-39" x="56.78" y="72">s</tspan><tspan x="62.24" y="72">, is tied </tspan><tspan class="cls-65" x="103.76" y="72">t</tspan><tspan x="107.99" y="72">o higher </tspan><tspan x="0" y="86.4">fu</tspan><tspan class="cls-28" x="11.08" y="86.4">t</tspan><tspan x="15.44" y="86.4">u</tspan><tspan class="cls-24" x="22.25" y="86.4">r</tspan><tspan x="26.83" y="86.4">e </tspan><tspan class="cls-10" x="36.43" y="86.4">e</tspan><tspan x="42.83" y="86.4">arnings and </tspan><tspan class="cls-25" x="0" y="100.8">w</tspan><tspan x="8.54" y="100.8" xml:space="preserve">ell-being.  </tspan></text><line class="cls-102" x1="235" y1="864.51" x2="541" y2="864.51"/><line class="cls-102" x1="235" y1="849.02" x2="541" y2="849.02"/><line class="cls-102" x1="235" y1="833.54" x2="541" y2="833.54"/><line class="cls-102" x1="235" y1="818.05" x2="541" y2="818.05"/><line class="cls-102" x1="235" y1="801.86" x2="541" y2="801.86"/><line class="cls-102" x1="235" y1="786.37" x2="541" y2="786.37"/><line class="cls-102" x1="235" y1="770.89" x2="541" y2="770.89"/><line class="cls-102" x1="235" y1="755.4" x2="541" y2="755.4"/><polygon class="cls-90" points="293.87 805.03 346.75 805.03 346.75 880.35 293.87 880.35 293.87 805.03 293.87 805.03"/><polygon class="cls-103" points="234.65 880.35 541.36 880.35 541.36 755.05 234.65 755.05 234.65 880.35 234.65 880.35"/><polygon class="cls-93" points="361.56 788.84 414.44 788.84 414.44 880.35 361.56 880.35 361.56 788.84 361.56 788.84"/><polygon class="cls-103" points="234.65 880.35 541.36 880.35 541.36 755.05 234.65 755.05 234.65 880.35 234.65 880.35"/><polygon class="cls-83" points="429.25 767.72 482.83 767.72 482.83 880.35 429.25 880.35 429.25 767.72 429.25 767.72"/><polygon class="cls-103" points="234.65 880.35 541.36 880.35 541.36 755.05 234.65 755.05 234.65 880.35 234.65 880.35"/><line class="cls-102" x1="235" y1="879.99" x2="541" y2="879.99"/><text class="cls-7" transform="translate(342.06 751.65)"><tspan class="cls-104">Y</tspan><tspan x="7.19" y="0">oung adul</tspan><tspan class="cls-105" x="61.9" y="0">t</tspan><tspan x="67.12" y="0">s</tspan></text><text class="cls-106" transform="translate(301.58 844.05)">2<tspan class="cls-107" x="10.34" y="0">4</tspan><tspan class="cls-108" x="21.35" y="0">%</tspan></text><g class="cls-109"><path class="cls-84" d="M336.21,813.2,320.86,808a1.18,1.18,0,0,0-.77,0l-15.34,5.23a1.19,1.19,0,0,0,0,2.25l6,2v6.18a1.19,1.19,0,0,0,.31.8,12.91,12.91,0,0,0,9.52,4.21,12.76,12.76,0,0,0,9.37-4,1.18,1.18,0,0,0,.32-.81v-6.33l2.46-.84v3a1.18,1.18,0,0,0-.46.93v2.89a1.19,1.19,0,0,0,2.37,0v-2.89a1.18,1.18,0,0,0-.46-.93v-3.48l2-.7a1.19,1.19,0,0,0,0-2.25Zm-8.34,10.13a10.4,10.4,0,0,1-7.32,3,10.54,10.54,0,0,1-7.46-3.11v-4.9l7,2.39a1.19,1.19,0,0,0,.77,0l7-2.38v5Zm-7.36-5-11.7-4,11.66-4,11.67,4Zm0,0"/></g><text class="cls-110" transform="translate(315.6 859.1)">in <tspan x="-8.21" y="14.4">1</tspan><tspan class="cls-16" x="-4.46" y="14.4">9</tspan><tspan x="2.74" y="14.4">80</tspan></text><text class="cls-111" transform="translate(368.54 838.08)"><tspan class="cls-107">2</tspan><tspan x="10.81" y="0">9%</tspan></text><g class="cls-112"><path class="cls-84" d="M403.35,806.2,388,801a1.18,1.18,0,0,0-.77,0L371.9,806.2a1.19,1.19,0,0,0,0,2.25l6,2v6.18a1.19,1.19,0,0,0,.31.8,12.91,12.91,0,0,0,9.52,4.21,12.76,12.76,0,0,0,9.37-4,1.18,1.18,0,0,0,.32-.81v-6.33l2.46-.84v3a1.18,1.18,0,0,0-.46.93v2.89a1.19,1.19,0,0,0,2.37,0v-2.89a1.18,1.18,0,0,0-.46-.93v-3.48l2-.7a1.19,1.19,0,0,0,0-2.25ZM395,816.32a10.4,10.4,0,0,1-7.32,3,10.54,10.54,0,0,1-7.46-3.11v-4.9l7,2.39a1.19,1.19,0,0,0,.77,0l7-2.38v5Zm-7.36-5-11.7-4,11.66-4,11.67,4Zm0,0"/></g><text class="cls-110" transform="translate(382.74 852.1)">in<tspan class="cls-28"><tspan x="-9.94" y="14.4">2</tspan><tspan class="cls-14" x="-3.26" y="14.4">000</tspan></tspan></text><text class="cls-111" transform="translate(437.91 824.13)"><tspan class="cls-92">36</tspan><tspan x="21.04" y="0">%</tspan></text><g class="cls-113"><path class="cls-84" d="M472.38,793.2,457,788a1.18,1.18,0,0,0-.77,0l-15.34,5.23a1.19,1.19,0,0,0,0,2.25l6,2v6.18a1.19,1.19,0,0,0,.31.8,12.91,12.91,0,0,0,9.52,4.21,12.76,12.76,0,0,0,9.37-4,1.18,1.18,0,0,0,.32-.81v-6.33l2.46-.84v3a1.18,1.18,0,0,0-.46.93v2.89a1.19,1.19,0,0,0,2.37,0v-2.89a1.18,1.18,0,0,0-.46-.93v-3.48l2-.7a1.19,1.19,0,0,0,0-2.25ZM464,803.32a10.4,10.4,0,0,1-7.32,3,10.54,10.54,0,0,1-7.46-3.11v-4.9l7,2.39a1.19,1.19,0,0,0,.77,0l7-2.38v5Zm-7.36-5-11.7-4,11.66-4,11.67,4Zm0,0"/></g><text class="cls-110" transform="translate(451.76 839.1)">in<tspan class="cls-22"><tspan x="-7.76" y="14.4">2</tspan><tspan class="cls-88" x="-1.08" y="14.4">015</tspan></tspan></text><text class="cls-40" transform="translate(7.71 949.22)">Home <tspan class="cls-114" x="43.53" y="0">o</tspan><tspan class="cls-50" x="51.57" y="0">wne</tspan><tspan class="cls-69" x="79.53" y="0">r</tspan><tspan class="cls-50" x="85.63" y="0">ship</tspan></text><line class="cls-48" x1="7.71" y1="957.42" x2="507.48" y2="957.42"/><text class="cls-40" transform="translate(7.71 1167.62)">Sha<tspan class="cls-43" x="25.47" y="0">r</tspan><tspan class="cls-49" x="31.2" y="0">e </tspan><tspan class="cls-37" x="43.2" y="0">o</tspan><tspan x="51.46" y="0">f </tspan><tspan class="cls-43" x="60.7" y="0">y</tspan><tspan x="68.29" y="0">oung adul</tspan><tspan class="cls-10" x="134.82" y="0">t</tspan><tspan x="140.29" y="0">s in</tspan><tspan class="cls-45" x="163.47" y="0" xml:space="preserve"> p</tspan><tspan class="cls-114" x="176.25" y="0">o</tspan><tspan class="cls-68" x="184.29" y="0">v</tspan><tspan class="cls-50" x="192.58" y="0">e</tspan><tspan class="cls-115" x="200.65" y="0">r</tspan><tspan class="cls-69" x="207.34" y="0">t</tspan><tspan class="cls-50" x="213.66" y="0">y</tspan></text><line class="cls-48" x1="7.71" y1="1175.82" x2="507.48" y2="1175.82"/><text class="cls-21" transform="translate(129.65 983.73)"><tspan class="cls-116">Y</tspan><tspan x="6.6" y="0">oung adult </tspan><tspan x="-25.05" y="14.4">home</tspan><tspan class="cls-25" x="5.2" y="14.4">o</tspan><tspan x="11.78" y="14.4">wne</tspan><tspan class="cls-65" x="33.82" y="14.4">r</tspan><tspan x="38.47" y="14.4">s in 1</tspan><tspan class="cls-16" x="63.87" y="14.4">9</tspan><tspan x="71.12" y="14.4">80:</tspan></text><text class="cls-21" transform="translate(279.15 983.73)"><tspan class="cls-117">Y</tspan><tspan x="6.6" y="0">oung adult </tspan><tspan x="-26.75" y="14.4">home</tspan><tspan class="cls-25" x="3.5" y="14.4">o</tspan><tspan x="10.08" y="14.4">wne</tspan><tspan class="cls-65" x="32.12" y="14.4">r</tspan><tspan x="36.77" y="14.4">s in </tspan><tspan class="cls-25" x="58.43" y="14.4">2</tspan><tspan x="65.04" y="14.4">000:</tspan></text><text class="cls-21" transform="translate(425.51 983.73)">Millennial <tspan x="-10.46" y="14.4">home</tspan><tspan class="cls-25" x="19.79" y="14.4">o</tspan><tspan x="26.36" y="14.4">wne</tspan><tspan class="cls-65" x="48.41" y="14.4">r</tspan><tspan x="53.05" y="14.4">s:</tspan></text><g class="cls-118"><path class="cls-11" d="M122.44,1019.44l-12.52,10.32a.25.25,0,0,1,0,.07.34.34,0,0,0,0,.07v10.45a1.42,1.42,0,0,0,1.39,1.39h8.36v-8.36h5.58v8.36h8.36a1.42,1.42,0,0,0,1.39-1.39V1029.9a.3.3,0,0,0,0-.13Zm0,0"/><path class="cls-11" d="M139.75,1027.41l-4.77-4v-8.89a.67.67,0,0,0-.7-.7h-4.18a.67.67,0,0,0-.7.7v4.25l-5.31-4.44a2.7,2.7,0,0,0-3.31,0l-15.66,13a.63.63,0,0,0-.24.47.71.71,0,0,0,.15.51l1.35,1.61a.74.74,0,0,0,.46.24.81.81,0,0,0,.52-.15l15.07-12.57,15.07,12.57a.67.67,0,0,0,.46.15H138a.74.74,0,0,0,.46-.24l1.35-1.61a.7.7,0,0,0,.15-.51.63.63,0,0,0-.24-.47Zm0,0"/></g><g class="cls-119"><path class="cls-11" d="M204,1019.44l-12.52,10.32a.25.25,0,0,1,0,.07.34.34,0,0,0,0,.07v10.45a1.42,1.42,0,0,0,1.39,1.39h8.36v-8.36h5.58v8.36h8.36a1.42,1.42,0,0,0,1.39-1.39V1029.9a.3.3,0,0,0,0-.13Zm0,0"/><path class="cls-11" d="M221.33,1027.41l-4.77-4v-8.89a.67.67,0,0,0-.7-.7h-4.18a.67.67,0,0,0-.7.7v4.25l-5.31-4.44a2.7,2.7,0,0,0-3.31,0l-15.66,13a.63.63,0,0,0-.24.47.71.71,0,0,0,.15.51L188,1030a.74.74,0,0,0,.46.24.81.81,0,0,0,.52-.15L204,1017.52l15.07,12.57a.67.67,0,0,0,.46.15h.07a.74.74,0,0,0,.46-.24l1.35-1.61a.7.7,0,0,0,.15-.51.63.63,0,0,0-.24-.47Zm0,0"/></g><g class="cls-120"><path class="cls-11" d="M163.23,1019.44l-12.52,10.32a.25.25,0,0,1,0,.07.34.34,0,0,0,0,.07v10.45a1.42,1.42,0,0,0,1.39,1.39h8.36v-8.36H166v8.36h8.36a1.42,1.42,0,0,0,1.39-1.39V1029.9a.3.3,0,0,0,0-.13Zm0,0"/><path class="cls-11" d="M180.54,1027.41l-4.77-4v-8.89a.67.67,0,0,0-.7-.7H170.9a.67.67,0,0,0-.7.7v4.25l-5.31-4.44a2.7,2.7,0,0,0-3.31,0l-15.66,13a.63.63,0,0,0-.24.47.71.71,0,0,0,.15.51l1.35,1.61a.74.74,0,0,0,.46.24.81.81,0,0,0,.52-.15l15.07-12.57,15.07,12.57a.67.67,0,0,0,.46.15h.07a.74.74,0,0,0,.46-.24l1.35-1.61a.7.7,0,0,0,.15-.51.63.63,0,0,0-.24-.47Zm0,0"/></g><rect class="cls-11" x="107.62" y="1040.84" width="112.79" height="39.36"/><text class="cls-111" transform="translate(146.89 1066.72)"><tspan class="cls-121">8</tspan><tspan x="11.47" y="0">1%</tspan></text><g class="cls-122"><path class="cls-15" d="M292.09,1019.42l-12.52,10.32a.25.25,0,0,1,0,.07.34.34,0,0,0,0,.07v10.45a1.42,1.42,0,0,0,1.39,1.39h8.36v-8.36h5.58v8.36h8.36a1.42,1.42,0,0,0,1.39-1.39v-10.45a.3.3,0,0,0,0-.13Zm0,0"/><path class="cls-15" d="M309.4,1027.39l-4.77-4v-8.89a.67.67,0,0,0-.7-.7h-4.18a.67.67,0,0,0-.7.7v4.25l-5.31-4.44a2.7,2.7,0,0,0-3.31,0l-15.66,13a.63.63,0,0,0-.24.47.71.71,0,0,0,.15.51L276,1030a.74.74,0,0,0,.46.24.81.81,0,0,0,.52-.15l15.07-12.57,15.07,12.57a.67.67,0,0,0,.46.15h.07a.74.74,0,0,0,.46-.24l1.35-1.61a.7.7,0,0,0,.15-.51.63.63,0,0,0-.24-.47Zm0,0"/></g><g class="cls-123"><path class="cls-15" d="M332.88,1019.42l-12.52,10.32a.25.25,0,0,1,0,.07.34.34,0,0,0,0,.07v10.45a1.42,1.42,0,0,0,1.39,1.39h8.36v-8.36h5.58v8.36H344a1.42,1.42,0,0,0,1.39-1.39v-10.45a.3.3,0,0,0,0-.13Zm0,0"/><path class="cls-15" d="M350.19,1027.39l-4.77-4v-8.89a.67.67,0,0,0-.7-.7h-4.18a.67.67,0,0,0-.7.7v4.25l-5.31-4.44a2.7,2.7,0,0,0-3.31,0l-15.66,13a.63.63,0,0,0-.24.47.71.71,0,0,0,.15.51l1.35,1.61a.74.74,0,0,0,.46.24.81.81,0,0,0,.52-.15l15.07-12.57L348,1030.07a.67.67,0,0,0,.46.15h.07a.74.74,0,0,0,.46-.24l1.35-1.61a.7.7,0,0,0,.15-.51.63.63,0,0,0-.24-.47Zm0,0"/></g><rect class="cls-15" x="276.05" y="1040.84" width="72.46" height="39.36"/><text class="cls-124" transform="translate(294.32 1066.72)">6<tspan class="cls-107" x="10.17" y="0">7</tspan><tspan class="cls-125" x="20.13" y="0">%</tspan></text><g class="cls-126"><path class="cls-18" d="M452.18,1019.87l-12.52,10.32a.25.25,0,0,1,0,.07.34.34,0,0,0,0,.07v10.45a1.42,1.42,0,0,0,1.39,1.39h8.36v-8.36H455v8.36h8.36a1.42,1.42,0,0,0,1.39-1.39v-10.45a.3.3,0,0,0,0-.13Zm0,0"/><path class="cls-18" d="M469.49,1027.84l-4.77-4V1015a.67.67,0,0,0-.7-.7h-4.18a.67.67,0,0,0-.7.7v4.25l-5.31-4.44a2.7,2.7,0,0,0-3.31,0l-15.66,13a.63.63,0,0,0-.24.47.71.71,0,0,0,.15.51l1.35,1.61a.74.74,0,0,0,.46.24.81.81,0,0,0,.52-.15l15.07-12.57,15.07,12.57a.67.67,0,0,0,.46.15h.07a.74.74,0,0,0,.46-.24l1.35-1.61a.7.7,0,0,0,.15-.51.63.63,0,0,0-.24-.47Zm0,0"/></g><rect class="cls-18" x="427.05" y="1040.81" width="49.56" height="39.38"/><text class="cls-111" transform="translate(432.54 1066.72)"><tspan class="cls-92">5</tspan><tspan class="cls-127" x="10.75" y="0">8</tspan><tspan x="22.14" y="0">%</tspan></text><rect class="cls-2" x="93.45" y="1076.6" width="418.23" height="3.94"/><text class="cls-7" transform="translate(119.59 1096.43)"><tspan class="cls-8">B</tspan><tspan x="8.23" y="0">A</tspan><tspan class="cls-9" x="17.23" y="0">B</tspan><tspan x="25.33" y="0">Y </tspan><tspan class="cls-10" x="37.38" y="0">B</tspan><tspan x="45.82" y="0">OOMERS</tspan></text><text class="cls-7" transform="translate(268.61 1096.43)">GENE<tspan class="cls-12" x="32.94" y="0">R</tspan><tspan class="cls-13" x="41.33" y="0">A</tspan><tspan class="cls-14" x="49.19" y="0">TION X</tspan></text><text class="cls-7" transform="translate(410.59 1096.43)">MILLENNIALS</text><line class="cls-128" x1="132.93" y1="1309" x2="132.93" y2="1192"/><path class="cls-128" d="M170,1192.27v116.47m35.59-116.47v116.47m35.59-116.47v116.47m35.59-116.47v116.47m35.59-116.47v116.47M348,1192.27v116.47m36.25-116.47v116.47m35.59-116.47v116.47"/><polygon class="cls-90" points="134.09 1239.47 277.11 1239.47 277.11 1215.12 134.09 1215.12 134.09 1239.47 134.09 1239.47"/><polygon class="cls-103" points="133.43 1309.07 420.14 1309.07 420.14 1191.94 133.43 1191.94 133.43 1309.07 133.43 1309.07"/><polygon class="cls-93" points="134.09 1263.16 326.55 1263.16 326.55 1239.47 134.09 1239.47 134.09 1263.16 134.09 1263.16"/><polygon class="cls-103" points="133.43 1309.07 420.14 1309.07 420.14 1191.94 133.43 1191.94 133.43 1309.07 133.43 1309.07"/><polygon class="cls-83" points="134.09 1287.5 383.89 1287.5 383.89 1263.16 134.09 1263.16 134.09 1287.5 134.09 1287.5"/><polygon class="cls-103" points="133.43 1309.07 420.14 1309.07 420.14 1191.94 133.43 1191.94 133.43 1309.07 133.43 1309.07"/><text class="cls-111" transform="translate(139.17 1232.12)"><tspan class="cls-129">2</tspan><tspan class="cls-107" x="10.34" y="0">4</tspan><tspan class="cls-108" x="21.35" y="0">% </tspan><tspan class="cls-130" x="42.57" y="0">in 1</tspan><tspan class="cls-131" x="59.15" y="0">9</tspan><tspan class="cls-3" x="66.35" y="0">80</tspan></text><text class="cls-111" transform="translate(139.17 1256.12)"><tspan class="cls-107">27</tspan><tspan x="20.77" y="0">% </tspan><tspan class="cls-3" x="41.99" y="0">in </tspan><tspan class="cls-132" x="54.83" y="0">2</tspan><tspan class="cls-3" x="61.51" y="0">000</tspan></text><text class="cls-111" transform="translate(139.17 1280.12)"><tspan class="cls-133">3</tspan><tspan class="cls-134" x="10.14" y="0">5</tspan><tspan x="20.79" y="0">% </tspan><tspan class="cls-3" x="42.01" y="0">in </tspan><tspan class="cls-132" x="54.85" y="0">2</tspan><tspan class="cls-3" x="61.53" y="0">015</tspan></text><text class="cls-7" transform="translate(281.92 1229.9)"><tspan class="cls-8">B</tspan><tspan x="8.23" y="0">A</tspan><tspan class="cls-9" x="17.23" y="0">B</tspan><tspan x="25.33" y="0">Y </tspan><tspan class="cls-10" x="37.38" y="0">B</tspan><tspan x="45.82" y="0">OOMERS</tspan></text><text class="cls-7" transform="translate(332.94 1255.9)">GENE<tspan class="cls-12" x="32.94" y="0">R</tspan><tspan class="cls-13" x="41.33" y="0">A</tspan><tspan class="cls-14" x="49.19" y="0">TION X</tspan></text><text class="cls-7" transform="translate(389.91 1279.9)">MILLENNIALS</text></svg>