<?xml version="1.0" encoding="UTF-8" standalone="no"?>
<svg
   xmlns:dc="http://purl.org/dc/elements/1.1/"
   xmlns:cc="http://creativecommons.org/ns#"
   xmlns:rdf="http://www.w3.org/1999/02/22-rdf-syntax-ns#"
   xmlns:svg="http://www.w3.org/2000/svg"
   xmlns="http://www.w3.org/2000/svg"
   xmlns:sodipodi="http://sodipodi.sourceforge.net/DTD/sodipodi-0.dtd"
   xmlns:inkscape="http://www.inkscape.org/namespaces/inkscape"
   version="1.1"
   id="svg2"
   xml:space="preserve"
   width="750"
   height="500"
   viewBox="0 0 750 500"
   sodipodi:docname="cgg.svg"
   inkscape:version="0.92.1 r15371"><sodipodi:namedview
     pagecolor="#ffffff"
     bordercolor="#666666"
     borderopacity="1"
     objecttolerance="10"
     gridtolerance="10"
     guidetolerance="10"
     inkscape:pageopacity="0"
     inkscape:pageshadow="2"
     inkscape:window-width="1594"
     inkscape:window-height="856"
     id="namedview249"
     showgrid="false"
     inkscape:zoom="0.89101124"
     inkscape:cx="514.61538"
     inkscape:cy="227.30769"
     inkscape:window-x="63"
     inkscape:window-y="34"
     inkscape:window-maximized="0"
     inkscape:current-layer="svg2" /><metadata
     id="metadata8"><rdf:RDF><cc:Work
         rdf:about=""><dc:format>image/svg+xml</dc:format><dc:type
           rdf:resource="http://purl.org/dc/dcmitype/StillImage" /><dc:title /></cc:Work></rdf:RDF></metadata><defs
     id="defs6"><clipPath
       clipPathUnits="userSpaceOnUse"
       id="clipPath30"><path
         d="M 0,0 H 792 V 612 H 0 Z"
         id="path28" /></clipPath><clipPath
       clipPathUnits="userSpaceOnUse"
       id="clipPath42"><path
         d="M 84.54,322.39 H 669.4 V 589.56 H 84.54 Z"
         id="path40" /></clipPath><clipPath
       clipPathUnits="userSpaceOnUse"
       id="clipPath150"><path
         d="M 84.54,32.79 H 669.4 V 299.96 H 84.54 Z"
         id="path148" /></clipPath><clipPath
       clipPathUnits="userSpaceOnUse"
       id="clipPath258"><path
         d="M 84.54,299.96 H 669.4 v 16.96 H 84.54 Z"
         id="path256" /></clipPath><clipPath
       clipPathUnits="userSpaceOnUse"
       id="clipPath266"><path
         d="M 84.54,299.96 H 669.4 v 16.96 H 84.54 Z"
         id="path264" /></clipPath><clipPath
       clipPathUnits="userSpaceOnUse"
       id="clipPath280"><path
         d="M 84.54,299.96 H 669.4 v 16.96 H 84.54 Z"
         id="path278" /></clipPath><clipPath
       clipPathUnits="userSpaceOnUse"
       id="clipPath288"><path
         d="M 84.54,299.96 H 669.4 v 16.96 H 84.54 Z"
         id="path286" /></clipPath><clipPath
       clipPathUnits="userSpaceOnUse"
       id="clipPath298"><path
         d="M 84.54,589.56 H 669.4 v 16.96 H 84.54 Z"
         id="path296" /></clipPath><clipPath
       clipPathUnits="userSpaceOnUse"
       id="clipPath306"><path
         d="M 84.54,589.56 H 669.4 v 16.96 H 84.54 Z"
         id="path304" /></clipPath><clipPath
       clipPathUnits="userSpaceOnUse"
       id="clipPath320"><path
         d="M 84.54,589.56 H 669.4 v 16.96 H 84.54 Z"
         id="path318" /></clipPath><clipPath
       clipPathUnits="userSpaceOnUse"
       id="clipPath328"><path
         d="M 84.54,589.56 H 669.4 v 16.96 H 84.54 Z"
         id="path326" /></clipPath></defs><g
     transform="matrix(1.3333333,0,0,-1.3333333,-25.999999,506)"
     id="g5849"><text
       transform="scale(1,-1)"
       style="font-style:normal;font-variant:normal;font-weight:normal;font-stretch:normal;font-size:13.50000034px;font-family:'PT Serif';-inkscape-font-specification:'PT Serif';writing-mode:lr-tb;fill:#555555;fill-opacity:1;fill-rule:nonzero;stroke:none"
       id="text100"
       x="430.04321"
       y="-213.30319"><tspan
         x="430.04321"
         y="-213.30319"
         id="tspan98">13.2%</tspan></text>
<text
       transform="scale(1,-1)"
       style="font-style:normal;font-variant:normal;font-weight:normal;font-stretch:normal;font-size:13.50000034px;font-family:'PT Serif';-inkscape-font-specification:'PT Serif';writing-mode:lr-tb;fill:#555555;fill-opacity:1;fill-rule:nonzero;stroke:none"
       id="text104"
       x="490.42218"
       y="-206.80066"><tspan
         x="490.42218"
         y="-206.80066"
         id="tspan102">11.2%</tspan></text>
<text
       transform="scale(1,-1)"
       style="font-style:normal;font-variant:normal;font-weight:normal;font-stretch:normal;font-size:13.50000034px;font-family:'PT Serif';-inkscape-font-specification:'PT Serif';writing-mode:lr-tb;fill:#555555;fill-opacity:1;fill-rule:nonzero;stroke:none"
       id="text108"
       x="536.23688"
       y="-212.37427"><tspan
         x="536.23688"
         y="-212.37427"
         id="tspan106">7.2%</tspan></text>
<text
       transform="scale(1,-1)"
       style="font-style:normal;font-variant:normal;font-weight:normal;font-stretch:normal;font-size:13.50000034px;font-family:'PT Serif';-inkscape-font-specification:'PT Serif';writing-mode:lr-tb;fill:#555555;fill-opacity:1;fill-rule:nonzero;stroke:none"
       id="text116"
       x="375.20001"
       y="-265.07999"><tspan
         x="375.20001"
         y="-265.07999"
         id="tspan114">20.8%</tspan></text>
<text
       transform="scale(1,-1)"
       style="font-style:normal;font-variant:normal;font-weight:normal;font-stretch:normal;font-size:13.50000034px;font-family:'PT Serif';-inkscape-font-specification:'PT Serif';writing-mode:lr-tb;fill:#555555;fill-opacity:1;fill-rule:nonzero;stroke:none"
       id="text120"
       x="474.23123"
       y="-256.71957"><tspan
         x="474.23123"
         y="-256.71957"
         id="tspan118">13.9%</tspan></text>
<text
       transform="scale(1,-1)"
       style="font-style:normal;font-variant:normal;font-weight:normal;font-stretch:normal;font-size:13.50000034px;font-family:'PT Serif';-inkscape-font-specification:'PT Serif';writing-mode:lr-tb;fill:#555555;fill-opacity:1;fill-rule:nonzero;stroke:none"
       id="text124"
       x="530.64807"
       y="-257.64853"><tspan
         x="530.64807"
         y="-257.64853"
         id="tspan122">9.5%</tspan></text>
<text
       transform="scale(1,-1)"
       style="font-style:normal;font-variant:normal;font-weight:normal;font-stretch:normal;font-size:13.50000034px;font-family:'PT Serif';-inkscape-font-specification:'PT Serif';writing-mode:lr-tb;fill:#555555;fill-opacity:1;fill-rule:nonzero;stroke:none"
       id="text132"
       x="356.39001"
       y="-302.07001"><tspan
         x="356.39001"
         y="-302.07001"
         id="tspan130">24.6%</tspan></text>
<text
       transform="scale(1,-1)"
       style="font-style:normal;font-variant:normal;font-weight:normal;font-stretch:normal;font-size:13.50000034px;font-family:'PT Serif';-inkscape-font-specification:'PT Serif';writing-mode:lr-tb;fill:#555555;fill-opacity:1;fill-rule:nonzero;stroke:none"
       id="text136"
       x="463.2316"
       y="-299.2832"><tspan
         x="463.2316"
         y="-299.2832"
         id="tspan134">13.8%</tspan></text>
<text
       transform="scale(1,-1)"
       style="font-style:normal;font-variant:normal;font-weight:normal;font-stretch:normal;font-size:13.50000034px;font-family:'PT Serif';-inkscape-font-specification:'PT Serif';writing-mode:lr-tb;fill:#555555;fill-opacity:1;fill-rule:nonzero;stroke:none"
       id="text140"
       x="528.74774"
       y="-299.2832"><tspan
         x="528.74774"
         y="-299.2832"
         id="tspan138">10.1%</tspan></text>
<text
       transform="scale(1,-1)"
       style="font-style:normal;font-variant:normal;font-weight:normal;font-stretch:normal;font-size:13.50000034px;font-family:'PT Serif';-inkscape-font-specification:'PT Serif';writing-mode:lr-tb;fill:#555555;fill-opacity:1;fill-rule:nonzero;stroke:none"
       id="text208"
       x="421.53998"
       y="-61.48"><tspan
         x="421.53998"
         y="-61.48"
         id="tspan206">15.7%</tspan></text>
<text
       transform="scale(1,-1)"
       style="font-style:normal;font-variant:normal;font-weight:normal;font-stretch:normal;font-size:13.50000034px;font-family:'PT Serif';-inkscape-font-specification:'PT Serif';writing-mode:lr-tb;fill:#555555;fill-opacity:1;fill-rule:nonzero;stroke:none"
       id="text212"
       x="480.79999"
       y="-61.48"><tspan
         x="480.79999"
         y="-61.48"
         id="tspan210">11.1%</tspan></text>
<text
       transform="scale(1,-1)"
       style="font-style:normal;font-variant:normal;font-weight:normal;font-stretch:normal;font-size:13.50000034px;font-family:'PT Serif';-inkscape-font-specification:'PT Serif';writing-mode:lr-tb;fill:#555555;fill-opacity:1;fill-rule:nonzero;stroke:none"
       id="text216"
       x="528.28003"
       y="-61.48"><tspan
         x="528.28003"
         y="-61.48"
         id="tspan214">8.4%</tspan></text>
<text
       transform="scale(1,-1)"
       style="font-style:normal;font-variant:normal;font-weight:normal;font-stretch:normal;font-size:13.50000034px;font-family:'PT Serif';-inkscape-font-specification:'PT Serif';writing-mode:lr-tb;fill:#555555;fill-opacity:1;fill-rule:nonzero;stroke:none"
       id="text224"
       x="390"
       y="-102.96999"><tspan
         x="390"
         y="-102.96999"
         id="tspan222">23.1%</tspan></text>
<text
       transform="scale(1,-1)"
       style="font-style:normal;font-variant:normal;font-weight:normal;font-stretch:normal;font-size:13.50000034px;font-family:'PT Serif';-inkscape-font-specification:'PT Serif';writing-mode:lr-tb;fill:#555555;fill-opacity:1;fill-rule:nonzero;stroke:none"
       id="text228"
       x="461.01001"
       y="-102.96999"><tspan
         x="461.01001"
         y="-102.96999"
         id="tspan226">13.4%</tspan></text>
<text
       transform="scale(1,-1)"
       style="font-style:normal;font-variant:normal;font-weight:normal;font-stretch:normal;font-size:13.50000034px;font-family:'PT Serif';-inkscape-font-specification:'PT Serif';writing-mode:lr-tb;fill:#555555;fill-opacity:1;fill-rule:nonzero;stroke:none"
       id="text232"
       x="520.72998"
       y="-102.96999"><tspan
         x="520.72998"
         y="-102.96999"
         id="tspan230">11.2%</tspan></text>
<text
       transform="scale(1,-1)"
       style="font-style:normal;font-variant:normal;font-weight:normal;font-stretch:normal;font-size:13.50000034px;font-family:'PT Serif';-inkscape-font-specification:'PT Serif';writing-mode:lr-tb;fill:#555555;fill-opacity:1;fill-rule:nonzero;stroke:none"
       id="text240"
       x="382.22"
       y="-148.95999"><tspan
         x="382.22"
         y="-148.95999"
         id="tspan238">27.7%</tspan></text>
<text
       transform="scale(1,-1)"
       style="font-style:normal;font-variant:normal;font-weight:normal;font-stretch:normal;font-size:13.50000034px;font-family:'PT Serif';-inkscape-font-specification:'PT Serif';writing-mode:lr-tb;fill:#555555;fill-opacity:1;fill-rule:nonzero;stroke:none"
       id="text244"
       x="452.78998"
       y="-148.95999"><tspan
         x="452.78998"
         y="-148.95999"
         id="tspan242">13.3%</tspan></text>
<text
       transform="scale(1,-1)"
       style="font-style:normal;font-variant:normal;font-weight:normal;font-stretch:normal;font-size:13.50000034px;font-family:'PT Serif';-inkscape-font-specification:'PT Serif';writing-mode:lr-tb;fill:#555555;fill-opacity:1;fill-rule:nonzero;stroke:none"
       id="text248"
       x="522.22998"
       y="-148.95999"><tspan
         x="522.22998"
         y="-148.95999"
         id="tspan246">13.1%</tspan></text>
</g><path
     id="path70"
     style="fill:#b2b2b2;fill-opacity:1;fill-rule:nonzero;stroke:none;stroke-width:0.90721709"
     d="M 102.10422,244.36891 H 533.15448 V 192.16249 H 102.10422 Z" /><path
     id="path72"
     style="fill:#2fc4f2;fill-opacity:1;fill-rule:nonzero;stroke:none;stroke-width:0.90721709"
     d="M 533.15448,244.36891 H 616.3604 V 192.16249 H 533.15448 Z" /><path
     id="path74"
     style="fill:#ffc000;fill-opacity:1;fill-rule:nonzero;stroke:none;stroke-width:0.90721709"
     d="m 616.37224,244.36891 h 70.42414 v -52.20642 h -70.42414 z" /><path
     id="path76"
     style="fill:#70ad47;fill-opacity:1;fill-rule:nonzero;stroke:none;stroke-width:0.90721709"
     d="m 686.79638,244.36891 h 45.15675 v -52.20642 h -45.15675 z" /><path
     id="path78"
     style="fill:#b2b2b2;fill-opacity:1;fill-rule:nonzero;stroke:none;stroke-width:0.90721709"
     d="M 102.10422,186.36101 H 453.51419 V 134.15458 H 102.10422 Z" /><path
     id="path80"
     style="fill:#2fc4f2;fill-opacity:1;fill-rule:nonzero;stroke:none;stroke-width:0.90721709"
     d="m 453.52603,186.36101 h 130.9214 v -52.20643 h -130.9214 z" /><path
     id="path82"
     style="fill:#ffc000;fill-opacity:1;fill-rule:nonzero;stroke:none;stroke-width:0.90721709"
     d="m 584.44743,186.36101 h 87.60075 v -52.20643 h -87.60075 z" /><path
     id="path84"
     style="fill:#70ad47;fill-opacity:1;fill-rule:nonzero;stroke:none;stroke-width:0.90721709"
     d="m 672.04818,186.36101 h 59.90495 v -52.20643 h -59.90495 z" /><path
     id="path86"
     style="fill:#b2b2b2;fill-opacity:1;fill-rule:nonzero;stroke:none;stroke-width:0.90721709"
     d="M 102.10422,128.3531 H 426.4699 V 76.146677 H 102.10422 Z" /><path
     id="path88"
     style="fill:#2fc4f2;fill-opacity:1;fill-rule:nonzero;stroke:none;stroke-width:0.90721709"
     d="M 426.48174,128.3531 H 581.71101 V 76.146677 H 426.48174 Z" /><path
     id="path90"
     style="fill:#ffc000;fill-opacity:1;fill-rule:nonzero;stroke:none;stroke-width:0.90721709"
     d="m 581.71101,128.3531 h 86.94924 V 76.146677 h -86.94924 z" /><path
     id="path92"
     style="fill:#70ad47;fill-opacity:1;fill-rule:nonzero;stroke:none;stroke-width:0.90721709"
     d="m 668.6484,128.3531 h 63.30473 V 76.146677 H 668.6484 Z" /><path
     id="path178"
     style="fill:#b2b2b2;fill-opacity:1;fill-rule:nonzero;stroke:none;stroke-width:0.90721709"
     d="M 102.10422,461.58667 H 510.00751 V 409.38024 H 102.10422 Z" /><path
     id="path180"
     style="fill:#2fc4f2;fill-opacity:1;fill-rule:nonzero;stroke:none;stroke-width:0.90721709"
     d="m 510.01935,461.58667 h 99.10318 v -52.20643 h -99.10318 z" /><path
     id="path182"
     style="fill:#ffc000;fill-opacity:1;fill-rule:nonzero;stroke:none;stroke-width:0.90721709"
     d="M 609.12253,461.58667 H 679.3216 V 409.38024 H 609.12253 Z" /><path
     id="path184"
     style="fill:#70ad47;fill-opacity:1;fill-rule:nonzero;stroke:none;stroke-width:0.90721709"
     d="m 679.3216,461.58667 h 52.63153 V 409.38024 H 679.3216 Z" /><path
     id="path186"
     style="fill:#b2b2b2;fill-opacity:1;fill-rule:nonzero;stroke:none;stroke-width:0.90721709"
     d="M 102.10422,403.57876 H 431.8598 V 351.37234 H 102.10422 Z" /><path
     id="path188"
     style="fill:#2fc4f2;fill-opacity:1;fill-rule:nonzero;stroke:none;stroke-width:0.90721709"
     d="M 431.8598,403.57876 H 577.09109 V 351.37234 H 431.8598 Z" /><path
     id="path190"
     style="fill:#ffc000;fill-opacity:1;fill-rule:nonzero;stroke:none;stroke-width:0.90721709"
     d="m 577.09109,403.57876 h 84.11805 v -52.20642 h -84.11805 z" /><path
     id="path192"
     style="fill:#70ad47;fill-opacity:1;fill-rule:nonzero;stroke:none;stroke-width:0.90721709"
     d="m 661.20914,403.57876 h 70.73215 v -52.20642 h -70.73215 z" /><path
     id="path194"
     style="fill:#b2b2b2;fill-opacity:1;fill-rule:nonzero;stroke:none;stroke-width:0.90721709"
     d="M 102.10422,345.57086 H 391.8442 V 293.36443 H 102.10422 Z" /><path
     id="path196"
     style="fill:#2fc4f2;fill-opacity:1;fill-rule:nonzero;stroke:none;stroke-width:0.90721709"
     d="M 391.8442,345.57086 H 566.09805 V 293.36443 H 391.8442 Z" /><path
     id="path198"
     style="fill:#ffc000;fill-opacity:1;fill-rule:nonzero;stroke:none;stroke-width:0.90721709"
     d="m 566.09805,345.57086 h 83.59684 v -52.20643 h -83.59684 z" /><path
     id="path200"
     style="fill:#70ad47;fill-opacity:1;fill-rule:nonzero;stroke:none;stroke-width:0.90721709"
     d="m 649.69489,345.57086 h 82.25824 v -52.20643 h -82.25824 z" /><g
     transform="matrix(1.3333333,0,0,-1.3333333,0,500)"
     id="g12" /><g
     transform="matrix(1.3333333,0,0,-1.3333333,0,500)"
     id="g14" /><g
     transform="matrix(1.3333333,0,0,-1.3333333,0,500)"
     id="g16" /><g
     transform="matrix(1.3333333,0,0,-1.3333333,0,500)"
     id="g18" /><g
     transform="matrix(1.3333333,0,0,-1.3333333,0,500)"
     id="g20" /><g
     transform="matrix(1.3333333,0,0,-1.3333333,0,500)"
     id="g22" /><g
     transform="matrix(1.3333333,0,0,-1.3333333,0,500)"
     id="g24"><g
       clip-path="url(#clipPath30)"
       id="g26" /></g><g
     transform="matrix(1.3333333,0,0,-1.3333333,0,500)"
     id="g34" /><text
     y="224.61969"
     x="473.78018"
     id="text96"
     style="font-style:normal;font-variant:normal;font-weight:normal;font-stretch:normal;font-size:18px;font-family:'PT Serif';-inkscape-font-specification:'PT Serif';writing-mode:lr-tb;fill:#555555;fill-opacity:1;fill-rule:nonzero;stroke:none;stroke-width:1.33333325"><tspan
       style="stroke-width:1.33333325"
       id="tspan94"
       y="224.61969"
       x="473.78018">68.4%</tspan></text>
<text
     y="166.94479"
     x="394.13989"
     id="text112"
     style="font-style:normal;font-variant:normal;font-weight:normal;font-stretch:normal;font-size:18px;font-family:'PT Serif';-inkscape-font-specification:'PT Serif';writing-mode:lr-tb;fill:#555555;fill-opacity:1;fill-rule:nonzero;stroke:none;stroke-width:1.33333325"><tspan
       style="stroke-width:1.33333325"
       id="tspan110"
       y="166.94479"
       x="394.13989">55.8%</tspan></text>
<text
     y="108.9369"
     x="367.09558"
     id="text128"
     style="font-style:normal;font-variant:normal;font-weight:normal;font-stretch:normal;font-size:18px;font-family:'PT Serif';-inkscape-font-specification:'PT Serif';writing-mode:lr-tb;fill:#555555;fill-opacity:1;fill-rule:nonzero;stroke:none;stroke-width:1.33333325"><tspan
       style="stroke-width:1.33333325"
       id="tspan126"
       y="108.9369"
       x="367.09558">51.5%</tspan></text>
<g
     transform="matrix(1.3333333,0,0,-1.3333333,0,500)"
     id="g142" /><text
     y="441.83746"
     x="450.63321"
     id="text204"
     style="font-style:normal;font-variant:normal;font-weight:normal;font-stretch:normal;font-size:18px;font-family:'PT Serif';-inkscape-font-specification:'PT Serif';writing-mode:lr-tb;fill:#555555;fill-opacity:1;fill-rule:nonzero;stroke:none;stroke-width:1.33333325"><tspan
       style="stroke-width:1.33333325"
       id="tspan202"
       y="441.83746"
       x="450.63321">64.8%</tspan></text>
<text
     y="384.16254"
     x="372.4855"
     id="text220"
     style="font-style:normal;font-variant:normal;font-weight:normal;font-stretch:normal;font-size:18px;font-family:'PT Serif';-inkscape-font-specification:'PT Serif';writing-mode:lr-tb;fill:#555555;fill-opacity:1;fill-rule:nonzero;stroke:none;stroke-width:1.33333325"><tspan
       style="stroke-width:1.33333325"
       id="tspan218"
       y="384.16254"
       x="372.4855">52.4%</tspan></text>
<text
     y="325.82162"
     x="347.09488"
     id="text236"
     style="font-style:normal;font-variant:normal;font-weight:normal;font-stretch:normal;font-size:18px;font-family:'PT Serif';-inkscape-font-specification:'PT Serif';writing-mode:lr-tb;fill:#555555;fill-opacity:1;fill-rule:nonzero;stroke:none;stroke-width:1.33333325"><tspan
       style="stroke-width:1.33333325"
       id="tspan234"
       y="325.82162"
       x="347.09488">46%</tspan></text>
<g
     transform="matrix(1.3333333,0,0,-1.3333333,0,500)"
     id="g250" /><g
     transform="matrix(1.3333333,0,0,-1.3333333,0,500)"
     id="g252"><g
       clip-path="url(#clipPath258)"
       id="g254" /></g><text
     y="282.36618"
     x="125.07693"
     id="text272"
     style="font-style:normal;font-variant:normal;font-weight:normal;font-stretch:normal;font-size:18px;font-family:'PT Serif';-inkscape-font-specification:'PT Serif';writing-mode:lr-tb;fill:#111111;fill-opacity:1;fill-rule:nonzero;stroke:none;stroke-width:1.33333325"><tspan
       style="stroke-width:1.33333325"
       id="tspan270"
       y="282.36618"
       x="125.07693">2035</tspan></text>
<g
     transform="matrix(1.3333333,0,0,-1.3333333,0,500)"
     id="g274"><g
       clip-path="url(#clipPath280)"
       id="g276" /></g><g
     transform="matrix(1.3333333,0,0,-1.3333333,0,500)"
     id="g282"><g
       clip-path="url(#clipPath288)"
       id="g284" /></g><g
     transform="matrix(1.3333333,0,0,-1.3333333,0,500)"
     id="g290" /><g
     transform="matrix(1.3333333,0,0,-1.3333333,0,500)"
     id="g292"><g
       clip-path="url(#clipPath298)"
       id="g294" /></g><text
     y="67.163666"
     x="125.07693"
     id="text312"
     style="font-style:normal;font-variant:normal;font-weight:normal;font-stretch:normal;font-size:18px;font-family:'PT Serif';-inkscape-font-specification:'PT Serif';writing-mode:lr-tb;fill:#111111;fill-opacity:1;fill-rule:nonzero;stroke:none;stroke-width:1.33333325"><tspan
       style="stroke-width:1.33333325"
       id="tspan310"
       y="67.163666"
       x="125.07693">2015</tspan></text>
<g
     transform="matrix(1.3333333,0,0,-1.3333333,0,500)"
     id="g314"><g
       clip-path="url(#clipPath320)"
       id="g316" /></g><g
     transform="matrix(1.3333333,0,0,-1.3333333,0,500)"
     id="g322"><g
       clip-path="url(#clipPath328)"
       id="g324" /></g><g
     transform="matrix(1.3333333,0,0,-1.3333333,0,500)"
     id="g330" /><g
     transform="matrix(1.3333333,0,0,-1.3333333,0,500)"
     id="g332" /><g
     transform="matrix(1.3333333,0,0,-1.3333333,0,500)"
     id="g334" /><g
     transform="matrix(1.3333333,0,0,-1.3333333,0,500)"
     id="g336" /><g
     transform="matrix(1.3333333,0,0,-1.3333333,0,500)"
     id="g338" /><g
     transform="matrix(1.3333333,0,0,-1.3333333,0,500)"
     id="g340" /><g
     transform="matrix(1.3333333,0,0,-1.3333333,0,500)"
     id="g342" /><g
     transform="matrix(1.3333333,0,0,-1.3333333,0,500)"
     id="g344" /><g
     transform="matrix(1.3333333,0,0,-1.3333333,0,500)"
     id="g346" /><g
     transform="matrix(1.3333333,0,0,-1.3333333,0,500)"
     id="g360" /><text
     y="489.85562"
     x="97.577942"
     style="font-style:normal;font-variant:normal;font-weight:normal;font-stretch:normal;font-size:18px;font-family:'PT Serif';-inkscape-font-specification:'PT Serif';writing-mode:lr-tb;fill:#555555;fill-opacity:1;fill-rule:nonzero;stroke:none;stroke-width:1.33333325"
     id="text366"><tspan
       x="97.577942"
       y="489.85562"
       id="tspan364"
       style="font-style:normal;font-variant:normal;font-weight:normal;font-stretch:normal;font-family:'PT Serif';-inkscape-font-specification:'PT Serif';fill:#555555;fill-opacity:1;stroke-width:1.33333325">0%</tspan></text>
<text
     y="490.62964"
     x="247.48103"
     style="font-style:normal;font-variant:normal;font-weight:normal;font-stretch:normal;font-size:18px;font-family:'PT Serif';-inkscape-font-specification:'PT Serif';writing-mode:lr-tb;fill:#555555;fill-opacity:1;fill-rule:nonzero;stroke:none;stroke-width:1.33333325"
     id="text370"><tspan
       style="stroke-width:1.33333325"
       x="247.48103"
       y="490.62964"
       id="tspan368">25%</tspan></text>
<text
     y="490.62964"
     x="405.47415"
     style="font-style:normal;font-variant:normal;font-weight:normal;font-stretch:normal;font-size:18px;font-family:'PT Serif';-inkscape-font-specification:'PT Serif';writing-mode:lr-tb;fill:#555555;fill-opacity:1;fill-rule:nonzero;stroke:none;stroke-width:1.33333325"
     id="text374"><tspan
       style="stroke-width:1.33333325"
       x="405.47415"
       y="490.62964"
       id="tspan372">50%</tspan></text>
<text
     y="490.62964"
     x="563.44922"
     style="font-style:normal;font-variant:normal;font-weight:normal;font-stretch:normal;font-size:18px;font-family:'PT Serif';-inkscape-font-specification:'PT Serif';writing-mode:lr-tb;fill:#555555;fill-opacity:1;fill-rule:nonzero;stroke:none;stroke-width:1.33333325"
     id="text378"><tspan
       style="stroke-width:1.33333325"
       x="563.44922"
       y="490.62964"
       id="tspan376">75%</tspan></text>
<text
     y="489.85562"
     x="702.70435"
     style="font-style:normal;font-variant:normal;font-weight:normal;font-stretch:normal;font-size:18px;font-family:'PT Serif';-inkscape-font-specification:'PT Serif';writing-mode:lr-tb;fill:#555555;fill-opacity:1;fill-rule:nonzero;stroke:none;stroke-width:1.33333325"
     id="text382"><tspan
       style="stroke-width:1.33333325"
       x="702.70435"
       y="489.85562"
       id="tspan380">100%</tspan></text>
<g
     transform="matrix(1.3333333,0,0,-1.3333333,0,500)"
     id="g384" /><g
     transform="matrix(1.3333333,0,0,-1.3333333,0,500)"
     id="g386" /><g
     transform="matrix(1.3333333,0,0,-1.3333333,0,500)"
     id="g388" /><g
     transform="matrix(1.3333333,0,0,-1.3333333,0,500)"
     id="g390" /><g
     transform="matrix(1.3333333,0,0,-1.3333333,0,500)"
     id="g392" /><g
     transform="matrix(1.3333333,0,0,-1.3333333,0,500)"
     id="g394" /><g
     transform="matrix(1.3333333,0,0,-1.3333333,0,500)"
     id="g396" /><g
     transform="matrix(1.3333333,0,0,-1.3333333,0,500)"
     id="g398" /><g
     transform="matrix(1.3333333,0,0,-1.3333333,0,500)"
     id="g400" /><g
     transform="matrix(1.3333333,0,0,-1.3333333,0,500)"
     id="g416" /><g
     transform="matrix(1.3333333,0,0,-1.3333333,0,500)"
     id="g426" /><g
     transform="matrix(1.3333333,0,0,-1.3333333,0,500)"
     id="g428" /><g
     transform="matrix(1.3333333,0,0,-1.3333333,0,500)"
     id="g430" /><g
     transform="matrix(1.3333333,0,0,-1.3333333,0,500)"
     id="g432" /><g
     transform="matrix(1.3333333,0,0,-1.3333333,0,500)"
     id="g434" /><g
     transform="matrix(1.3333333,0,0,-1.3333333,0,500)"
     id="g436" /><g
     transform="matrix(1.3333333,0,0,-1.3333333,0,500)"
     id="g438" /><g
     transform="matrix(1.3333333,0,0,-1.3333333,0,500)"
     id="g454" /><g
     transform="matrix(1.3333333,0,0,-1.3333333,0,500)"
     id="g464" /><g
     transform="matrix(1.3333333,0,0,-1.3333333,0,500)"
     id="g466" /><g
     transform="matrix(1.3333333,0,0,-1.3333333,0,500)"
     id="g468" /><g
     transform="matrix(1.3333333,0,0,-1.3333333,0,500)"
     id="g470" /><g
     transform="matrix(1.3333333,0,0,-1.3333333,0,500)"
     id="g472" /><g
     transform="matrix(1.3333333,0,0,-1.3333333,0,500)"
     id="g474" /><g
     transform="matrix(1.3333333,0,0,-1.3333333,0,500)"
     id="g476" /><g
     transform="matrix(1.3333333,0,0,-1.3333333,0,500)"
     id="g478" /><g
     transform="matrix(1.3333333,0,0,-1.3333333,0,500)"
     id="g480" /><g
     transform="matrix(1.3333333,0,0,-1.3333333,0,500)"
     id="g488" /><g
     transform="matrix(1.3333333,0,0,-1.3333333,0,500)"
     id="g496" /><g
     transform="matrix(1.3333333,0,0,-1.3333333,0,500)"
     id="g498" /><g
     transform="matrix(1.3333333,0,0,-1.3333333,0,500)"
     id="g500" /><g
     transform="matrix(1.3333333,0,0,-1.3333333,0,500)"
     id="g502" /><g
     transform="matrix(1.3333333,0,0,-1.3333333,0,500)"
     id="g504" /><g
     transform="matrix(1.3333333,0,0,-1.3333333,0,500)"
     id="g506" /><g
     transform="matrix(1.3333333,0,0,-1.3333333,0,500)"
     id="g508" /><g
     transform="matrix(1.3333333,0,0,-1.3333333,0,500)"
     id="g514" /><g
     transform="matrix(1.3333333,0,0,-1.3333333,0,500)"
     id="g522" /><g
     transform="matrix(1.3333333,0,0,-1.3333333,0,500)"
     id="g524" /><g
     transform="matrix(1.3333333,0,0,-1.3333333,0,500)"
     id="g528" /><g
     transform="matrix(1.3333333,0,0,-1.3333333,0,500)"
     id="g534" /><g
     transform="matrix(1.3333333,0,0,-1.3333333,0,500)"
     id="g536" /><g
     transform="matrix(1.3333333,0,0,-1.3333333,0,500)"
     id="g540" /><g
     transform="matrix(1.3333333,0,0,-1.3333333,0,500)"
     id="g546" /><g
     transform="matrix(1.3333333,0,0,-1.3333333,0,500)"
     id="g548" /><g
     transform="matrix(1.3333333,0,0,-1.3333333,0,500)"
     id="g552" /><g
     transform="matrix(1.3333333,0,0,-1.3333333,0,500)"
     id="g558" /><g
     transform="matrix(1.3333333,0,0,-1.3333333,0,500)"
     id="g560" /><g
     transform="matrix(1.3333333,0,0,-1.3333333,0,500)"
     id="g564" /><g
     transform="matrix(1.3333333,0,0,-1.3333333,0,500)"
     id="g570" /><g
     transform="matrix(1.3333333,0,0,-1.3333333,0,500)"
     id="g578" /><g
     transform="matrix(1.3333333,0,0,-1.3333333,0,500)"
     id="g586" /><g
     transform="matrix(1.3333333,0,0,-1.3333333,0,500)"
     id="g594" /><g
     transform="matrix(0.75662043,0,0,-0.75662043,-70.80434,268.29761)"
     id="g530"><path
       inkscape:connector-curvature="0"
       id="path532"
       style="fill:#70ad47;fill-opacity:1;fill-rule:nonzero;stroke:none"
       d="m 687.12,322.88 h 15.86 v 15.86 h -15.86 z" /></g><g
     transform="matrix(0.75662043,0,0,-0.75662043,-163.52477,255.22321)"
     id="g542"><path
       inkscape:connector-curvature="0"
       id="path544"
       style="fill:#ffc000;fill-opacity:1;fill-rule:nonzero;stroke:none"
       d="m 687.12,305.6 h 15.86 v 15.86 h -15.86 z" /></g><g
     transform="matrix(0.75662043,0,0,-0.75662043,-283.10458,242.14881)"
     id="g554"><path
       inkscape:connector-curvature="0"
       id="path556"
       style="fill:#2fc4f2;fill-opacity:1;fill-rule:nonzero;stroke:none"
       d="m 687.12,288.32 h 15.86 v 15.86 h -15.86 z" /></g><g
     transform="matrix(0.75662043,0,0,-0.75662043,-381.62049,229.07441)"
     id="g566"><path
       inkscape:connector-curvature="0"
       id="path568"
       style="fill:#b2b2b2;fill-opacity:1;fill-rule:nonzero;stroke:none"
       d="m 687.12,271.04 h 15.86 v 15.86 h -15.86 z" /></g><g
     transform="matrix(1.3333333,0,0,-1.3333333,-474.53107,460.30932)"
     id="g572"><text
       id="text576"
       style="font-style:normal;font-variant:normal;font-weight:normal;font-stretch:normal;font-size:13.5px;font-family:'PT Serif';-inkscape-font-specification:'PT Serif';writing-mode:lr-tb;fill:#555555;fill-opacity:1;fill-rule:nonzero;stroke:none"
       transform="matrix(1,0,0,-1,705.85,327.58)"><tspan
         style="fill:#555555;fill-opacity:1"
         id="tspan574"
         y="0"
         x="0">Asian and Others</tspan></text>
</g><g
     transform="matrix(1.3333333,0,0,-1.3333333,-567.7735,437.26932)"
     id="g580"><text
       id="text584"
       style="font-style:normal;font-variant:normal;font-weight:normal;font-stretch:normal;font-size:13.5px;font-family:'PT Serif';-inkscape-font-specification:'PT Serif';writing-mode:lr-tb;fill:#555555;fill-opacity:1;fill-rule:nonzero;stroke:none"
       transform="matrix(1,0,0,-1,705.85,310.3)"><tspan
         style="fill:#555555;fill-opacity:1"
         id="tspan582"
         y="0"
         x="0">Black</tspan></text>
</g><g
     transform="matrix(1.3333333,0,0,-1.3333333,-687.35331,413.81532)"
     id="g588"><text
       id="text592"
       style="font-style:normal;font-variant:normal;font-weight:normal;font-stretch:normal;font-size:13.5px;font-family:'PT Serif';-inkscape-font-specification:'PT Serif';writing-mode:lr-tb;fill:#555555;fill-opacity:1;fill-rule:nonzero;stroke:none"
       transform="matrix(1,0,0,-1,705.85,293.02)"><tspan
         style="fill:#555555;fill-opacity:1"
         id="tspan590"
         y="0"
         x="0">Hispanic</tspan></text>
</g><g
     transform="matrix(1.3333333,0,0,-1.3333333,-785.3472,391.18932)"
     id="g596"><text
       id="text600"
       style="font-style:normal;font-variant:normal;font-weight:normal;font-stretch:normal;font-size:13.5px;font-family:'PT Serif';-inkscape-font-specification:'PT Serif';writing-mode:lr-tb;fill:#555555;fill-opacity:1;fill-rule:nonzero;stroke:none"
       transform="matrix(1,0,0,-1,705.85,275.74)"><tspan
         style="fill:#555555;fill-opacity:1"
         id="tspan598"
         y="0"
         x="0">White</tspan></text>
</g><g
     transform="matrix(1.3333333,0,0,-1.3333333,0,500)"
     id="g602" /><g
     transform="matrix(1.3333333,0,0,-1.3333333,0,500)"
     id="g604" /><g
     transform="matrix(1.3333333,0,0,-1.3333333,0,500)"
     id="g606" /><g
     transform="matrix(1.3333333,0,0,-1.3333333,0,500)"
     id="g608" /><g
     transform="matrix(1.3333333,0,0,-1.3333333,0,500)"
     id="g610" /><g
     transform="matrix(1.3333333,0,0,-1.3333333,0,500)"
     id="g612" /><g
     transform="matrix(1.3333333,0,0,-1.3333333,0,500)"
     id="g614" /><g
     transform="matrix(1.3333333,0,0,-1.3333333,0,500)"
     id="g616" /><g
     transform="matrix(1.3333333,0,0,-1.3333333,0,500)"
     id="g618" /><g
     transform="matrix(1.3333333,0,0,-1.3333333,0,500)"
     id="g620" /><text
     y="224.9527"
     x="92.853058"
     id="text406"
     style="font-style:normal;font-variant:normal;font-weight:normal;font-stretch:normal;font-size:18px;font-family:'PT Serif';-inkscape-font-specification:'PT Serif';text-align:end;writing-mode:lr-tb;text-anchor:end;fill:#555555;fill-opacity:1;fill-rule:nonzero;stroke:none;stroke-width:1.33333325;"><tspan
       style="stroke-width:1.33333325;fill:#555555;fill-opacity:1;"
       id="tspan5783"
       y="224.9527"
       x="92.853058">35+</tspan></text>
<text
     y="166.55779"
     x="42.51128"
     id="text410"
     style="font-style:normal;font-variant:normal;font-weight:normal;font-stretch:normal;font-size:18px;font-family:'PT Serif';-inkscape-font-specification:'PT Serif';writing-mode:lr-tb;fill:#555555;fill-opacity:1;fill-rule:nonzero;stroke:none;stroke-width:1.33333325;"><tspan
       style="stroke-width:1.33333325;fill:#555555;fill-opacity:1;"
       id="tspan408"
       y="166.55779"
       x="42.51128">18–34</tspan></text>
<text
     y="106.74989"
     x="93.069061"
     id="text414"
     style="font-style:normal;font-variant:normal;font-weight:normal;font-stretch:normal;font-size:18px;font-family:'PT Serif';-inkscape-font-specification:'PT Serif';text-align:end;writing-mode:lr-tb;text-anchor:end;fill:#555555;fill-opacity:1;fill-rule:nonzero;stroke:none;stroke-width:1.33333325;"><tspan
       style="stroke-width:1.33333325;fill:#555555;fill-opacity:1;"
       id="tspan5781"
       y="106.74989"
       x="93.069061">Ages 0–17</tspan></text>
<text
     y="442.17047"
     x="64.060089"
     id="text444"
     style="font-style:normal;font-variant:normal;font-weight:normal;font-stretch:normal;font-size:18px;font-family:'PT Serif';-inkscape-font-specification:'PT Serif';writing-mode:lr-tb;fill:#555555;fill-opacity:1;fill-rule:nonzero;stroke:none;stroke-width:1.33333325;"><tspan
       style="stroke-width:1.33333325;fill:#555555;fill-opacity:1;"
       id="tspan442"
       y="442.17047"
       x="64.060089">55+</tspan></text>
<text
     y="384.16254"
     x="42.51128"
     id="text448"
     style="font-style:normal;font-variant:normal;font-weight:normal;font-stretch:normal;font-size:18px;font-family:'PT Serif';-inkscape-font-specification:'PT Serif';writing-mode:lr-tb;fill:#555555;fill-opacity:1;fill-rule:nonzero;stroke:none;stroke-width:1.33333325;"><tspan
       style="stroke-width:1.33333325;fill:#555555;fill-opacity:1;"
       id="tspan446"
       y="384.16254"
       x="42.51128">38–54</tspan></text>
<text
     y="323.96762"
     x="10.627655"
     id="text452"
     style="font-style:normal;font-variant:normal;font-weight:normal;font-stretch:normal;font-size:18px;font-family:'PT Serif';-inkscape-font-specification:'PT Serif';writing-mode:lr-tb;fill:#555555;fill-opacity:1;fill-rule:nonzero;stroke:none;stroke-width:1.33333325;"><tspan
       style="stroke-width:1.33333325;fill:#555555;fill-opacity:1;"
       id="tspan450"
       y="323.96762"
       x="10.627655">Ages 0–37</tspan></text>
<g
     transform="matrix(1.3333333,0,0,-1.5326778,-25.999999,523.39945)"
     id="g5697"><path
       d="M 96.078168,32.79 V 299.96"
       style="fill:none;stroke:#dddddd;stroke-width:0.70693058;stroke-linecap:butt;stroke-linejoin:round;stroke-miterlimit:10;stroke-dasharray:none;stroke-opacity:1"
       id="path168" /><path
       d="M 214.17928,32.79 V 299.96"
       style="fill:none;stroke:#dddddd;stroke-width:0.70693058;stroke-linecap:butt;stroke-linejoin:round;stroke-miterlimit:10;stroke-dasharray:none;stroke-opacity:1"
       id="path170" /><path
       d="M 450.36375,32.79 V 299.96"
       style="fill:none;stroke:#dddddd;stroke-width:0.70693058;stroke-linecap:butt;stroke-linejoin:round;stroke-miterlimit:10;stroke-dasharray:none;stroke-opacity:1"
       id="path174" /><path
       d="M 568.46486,32.79 V 299.96"
       style="fill:none;stroke:#dddddd;stroke-width:0.70693058;stroke-linecap:butt;stroke-linejoin:round;stroke-miterlimit:10;stroke-dasharray:none;stroke-opacity:1"
       id="path176" /><path
       d="M 332.27152,32.79 V 299.96"
       style="fill:none;stroke:#dddddd;stroke-width:0.70693058;stroke-linecap:butt;stroke-linejoin:round;stroke-miterlimit:10;stroke-dasharray:none;stroke-opacity:1"
       id="path172" /></g></svg>