<?xml version="1.0" encoding="UTF-8" standalone="no"?>
<svg
   xmlns:dc="http://purl.org/dc/elements/1.1/"
   xmlns:cc="http://creativecommons.org/ns#"
   xmlns:rdf="http://www.w3.org/1999/02/22-rdf-syntax-ns#"
   xmlns:svg="http://www.w3.org/2000/svg"
   xmlns="http://www.w3.org/2000/svg"
   xmlns:sodipodi="http://sodipodi.sourceforge.net/DTD/sodipodi-0.dtd"
   xmlns:inkscape="http://www.inkscape.org/namespaces/inkscape"
   id="Layer_1"
   data-name="Layer 1"
   viewBox="0 0 750 250"
   version="1.1"
   sodipodi:docname="edu.svg"
   width="750"
   height="250"
   inkscape:version="0.92.1 r15371">
  <metadata
     id="metadata249">
    <rdf:RDF>
      <cc:Work
         rdf:about="">
        <dc:format>image/svg+xml</dc:format>
        <dc:type
           rdf:resource="http://purl.org/dc/dcmitype/StillImage" />
        <dc:title>Millennials - static graphics v2 - Separate artboards</dc:title>
      </cc:Work>
    </rdf:RDF>
  </metadata>
  <sodipodi:namedview
     pagecolor="#ffffff"
     bordercolor="#666666"
     borderopacity="1"
     objecttolerance="10"
     gridtolerance="10"
     guidetolerance="10"
     inkscape:pageopacity="0"
     inkscape:pageshadow="2"
     inkscape:window-width="1718"
     inkscape:window-height="821"
     id="namedview247"
     showgrid="false"
     inkscape:zoom="0.97531385"
     inkscape:cx="339.61669"
     inkscape:cy="255.86052"
     inkscape:window-x="63"
     inkscape:window-y="34"
     inkscape:window-maximized="0"
     inkscape:current-layer="Layer_1" />
  <defs
     id="defs4">
    <style
       id="style2">.cls-1{fill:none;stroke:#d9d9d9;stroke-linejoin:round;stroke-width:1px;}.cls-19,.cls-2{fill:#b2b2b2;}.cls-3,.cls-30{fill:#ed7d31;}.cls-37,.cls-4{fill:#ffd98d;}.cls-49,.cls-5{fill:#e0a500;}.cls-11,.cls-15,.cls-18,.cls-20,.cls-6{font-size:11.99px;}.cls-11,.cls-15,.cls-18,.cls-6{font-family:Interstate-Bold, Interstate-Bold;}.cls-6{letter-spacing:0.03em;}.cls-7{letter-spacing:-0.02em;}.cls-8{letter-spacing:0.02em;}.cls-9{letter-spacing:0em;}.cls-10{letter-spacing:0em;}.cls-11{letter-spacing:0.04em;}.cls-12{letter-spacing:-0.06em;}.cls-13{letter-spacing:-0.01em;}.cls-14{letter-spacing:0.04em;}.cls-16{letter-spacing:-0.04em;}.cls-17{letter-spacing:0.02em;}.cls-18{letter-spacing:0em;}.cls-19,.cls-30,.cls-37,.cls-49{fill-rule:evenodd;}.cls-20{fill:#595959;font-family:Interstate-Light, Interstate-Light;}.cls-21{letter-spacing:0.02em;}.cls-22{letter-spacing:-0.03em;}.cls-23{letter-spacing:-0.03em;}.cls-24{letter-spacing:0.03em;}.cls-25{letter-spacing:-0.06em;}.cls-26{letter-spacing:-0.01em;}.cls-27{letter-spacing:-0.02em;}.cls-28{letter-spacing:0.02em;}.cls-29{letter-spacing:0em;}.cls-31{letter-spacing:-0.04em;}.cls-32{letter-spacing:0.05em;}.cls-33{letter-spacing:-0.05em;}.cls-34{letter-spacing:0.05em;}.cls-35{letter-spacing:0.03em;}.cls-36{letter-spacing:0em;}.cls-38{letter-spacing:-0.04em;}.cls-39{letter-spacing:-0.03em;}.cls-40{letter-spacing:-0.01em;}.cls-41{letter-spacing:0.06em;}.cls-42{letter-spacing:-0.03em;}.cls-43{letter-spacing:0.02em;}.cls-44{letter-spacing:0.02em;}.cls-45{letter-spacing:-0.01em;}.cls-46{letter-spacing:0.02em;}.cls-47{letter-spacing:-0.06em;}.cls-48{letter-spacing:0.08em;}.cls-50{letter-spacing:-0.06em;}.cls-51{letter-spacing:0em;}.cls-52{letter-spacing:-0.05em;}.cls-53{letter-spacing:-0.06em;}.cls-54{letter-spacing:-0.06em;}.cls-55{letter-spacing:-0.02em;}</style>
  </defs>
  <title
     id="title6">Millennials - static graphics v2 - Separate artboards</title>
  <path
     class="cls-1"
     d="M 222.02296,236.24 V 59.36 M 351.05738,236.24 V 59.36 M 478.17756,236.24 V 59.36 M 607.21198,236.24 V 59.36 M 736.2464,236.24 V 59.36"
     id="path8"
     inkscape:connector-curvature="0"
     style="fill:none;stroke:#d9d9d9;stroke-width:1;stroke-linejoin:round;stroke-miterlimit:4;stroke-dasharray:none" />
  <polygon
     class="cls-2"
     points="97.29,71.3 97.29,85.97 239.43,85.97 239.43,71.3 "
     id="polygon10"
     style="fill:#b2b2b2"
     transform="matrix(1.9532912,0,0,1,-98.043333,-8)" />
  <polygon
     class="cls-3"
     points="239.43,71.3 239.43,85.97 336.53,85.97 336.53,71.3 "
     id="polygon12"
     style="fill:#ed7d31"
     transform="matrix(1.9532912,0,0,1,-98.043333,-8)" />
  <polygon
     class="cls-4"
     points="336.53,71.3 336.53,85.97 410.6,85.97 410.6,71.3 "
     id="polygon14"
     style="fill:#ffd98d"
     transform="matrix(1.9532912,0,0,1,-98.043333,-8)" />
  <polygon
     class="cls-5"
     points="409.91,71.3 409.91,85.97 427,85.97 427,71.3 "
     id="polygon16"
     style="fill:#e0a500"
     transform="matrix(1.9532912,0,0,1,-98.043333,-8)" />
  <polygon
     class="cls-2"
     points="97.29,123.18 97.29,137.85 172.37,137.85 172.37,123.18 "
     id="polygon18"
     style="fill:#b2b2b2"
     transform="matrix(1.9532912,0,0,1,-98.043333,-8)" />
  <polygon
     class="cls-3"
     points="172.37,123.18 172.37,137.85 289.48,137.85 289.48,123.18 "
     id="polygon20"
     style="fill:#ed7d31"
     transform="matrix(1.9532912,0,0,1,-98.043333,-8)" />
  <polygon
     class="cls-4"
     points="289.48,123.18 289.48,137.85 404.6,137.85 404.6,123.18 "
     id="polygon22"
     style="fill:#ffd98d"
     transform="matrix(1.9532912,0,0,1,-98.043333,-8)" />
  <polygon
     class="cls-5"
     points="403.87,123.18 403.87,137.85 427,137.85 427,123.18 "
     id="polygon24"
     style="fill:#e0a500"
     transform="matrix(1.9532912,0,0,1,-98.043333,-8)" />
  <polygon
     class="cls-2"
     points="97.29,177.46 97.29,192.13 152.35,192.13 152.35,177.46 "
     id="polygon26"
     style="fill:#b2b2b2"
     transform="matrix(1.9532912,0,0,1,-98.043333,-8)" />
  <polygon
     class="cls-3"
     points="152.35,177.46 152.35,192.13 239.43,192.13 239.43,177.46 "
     id="polygon28"
     style="fill:#ed7d31"
     transform="matrix(1.9532912,0,0,1,-98.043333,-8)" />
  <polygon
     class="cls-4"
     points="239.43,177.46 239.43,192.13 342.54,192.13 342.54,177.46 "
     id="polygon30"
     style="fill:#ffd98d"
     transform="matrix(1.9532912,0,0,1,-98.043333,-8)" />
  <polygon
     class="cls-5"
     points="341.54,177.46 341.54,192.13 427,192.13 427,177.46 "
     id="polygon32"
     style="fill:#e0a500"
     transform="matrix(1.9532912,0,0,1,-98.043333,-8)" />
  <polygon
     class="cls-2"
     points="97.29,225.54 97.29,242.3 301.5,242.3 301.5,225.54 "
     id="polygon34"
     style="fill:#b2b2b2"
     transform="matrix(1.9532912,0,0,1,-98.043333,-8)" />
  <polygon
     class="cls-3"
     points="301.5,225.54 301.5,242.3 360.55,242.3 360.55,225.54 "
     id="polygon36"
     style="fill:#ed7d31"
     transform="matrix(1.9532912,0,0,1,-98.043333,-8)" />
  <polygon
     class="cls-4"
     points="360.55,225.54 360.55,242.3 409.6,242.3 409.6,225.54 "
     id="polygon38"
     style="fill:#ffd98d"
     transform="matrix(1.9532912,0,0,1,-98.043333,-8)" />
  <polygon
     class="cls-5"
     points="408.9,225.54 408.9,242.3 427,242.3 427,225.54 "
     id="polygon40"
     style="fill:#e0a500"
     transform="matrix(1.9532912,0,0,1,-98.043333,-8)" />
  <line
     class="cls-1"
     x1="92.969017"
     y1="59.360001"
     x2="92.969017"
     y2="236.24001"
     id="line42"
     style="fill:none;stroke:#d9d9d9;stroke-width:1;stroke-linejoin:round;stroke-miterlimit:4;stroke-dasharray:none" />
  <text
     class="cls-20"
     id="text244"
     style="font-style:normal;font-variant:normal;font-weight:normal;font-stretch:normal;font-size:18px;font-family:'PT Serif';-inkscape-font-specification:'PT Serif';fill:#595959"
     x="579.61462"
     y="-50.983845" />
  <g
     id="g4729"
     transform="translate(-19.788478,7.1493655)">
    <polygon
       transform="matrix(1.0247652,0,0,1.2,46.157131,-43.012)"
       style="fill:#b2b2b2;fill-rule:evenodd"
       id="polygon92"
       points="3.75,50.01 3.75,40.01 15.46,40.01 15.46,50.01 "
       class="cls-19" />
    <text
       y="17.890635"
       x="68.840714"
       style="font-style:normal;font-variant:normal;font-weight:normal;font-stretch:normal;font-size:18px;font-family:'PT Serif';-inkscape-font-specification:'PT Serif';word-spacing:0px;fill:#595959"
       id="text124"
       class="cls-20">College graduate</text>
    <polygon
       transform="matrix(1.025641,0,0,1.2,116.72195,-43.012)"
       style="fill:#ed7d31;fill-rule:evenodd"
       id="polygon126"
       points="119.47,40.01 131.17,40.01 131.17,50.01 119.47,50.01 "
       class="cls-30" />
    <text
       y="17.890635"
       x="256.18365"
       style="font-style:normal;font-variant:normal;font-weight:normal;font-stretch:normal;font-size:18px;font-family:'PT Serif';-inkscape-font-specification:'PT Serif';fill:#595959"
       id="text154"
       class="cls-20">Some college</text>
    <polygon
       transform="matrix(1.025641,0,0,1.2,171.89812,-43.012)"
       style="fill:#ffd98d;fill-rule:evenodd"
       id="polygon156"
       points="227.69,40.01 227.69,50.01 215.99,50.01 215.99,40.01 "
       class="cls-37" />
    <text
       y="17.890635"
       x="411.65158"
       style="font-style:normal;font-variant:normal;font-weight:normal;font-stretch:normal;font-size:18px;font-family:'PT Serif';-inkscape-font-specification:'PT Serif';fill:#595959"
       id="text198"
       class="cls-20">High school</text>
    <polygon
       transform="matrix(1.1952191,0,0,1.2,105.30057,-43.012)"
       style="fill:#e0a500;fill-rule:evenodd"
       id="polygon200"
       points="366.71,40.01 366.71,50.01 356.67,50.01 356.67,40.01 "
       class="cls-49" />
    <text
       y="17.890635"
       x="548.30133"
       style="font-style:normal;font-variant:normal;font-weight:normal;font-stretch:normal;font-size:18px;font-family:'PT Serif';-inkscape-font-specification:'PT Serif';fill:#595959"
       id="text198-4"
       class="cls-20">Less than high school</text>
  </g>
  <text
     class="cls-20"
     id="text124-9"
     style="font-style:normal;font-variant:normal;font-weight:normal;font-stretch:normal;font-size:18px;font-family:'PT Serif';-inkscape-font-specification:'PT Serif';word-spacing:0px;fill:#111111;fill-opacity:1"
     x="31.500656"
     y="77.223473">White</text>
  <text
     class="cls-20"
     id="text124-9-1"
     style="font-style:normal;font-variant:normal;font-weight:normal;font-stretch:normal;font-size:18px;font-family:'PT Serif';-inkscape-font-specification:'PT Serif';word-spacing:0px;fill:#111111;fill-opacity:1"
     x="32.926437"
     y="129.50983">Black</text>
  <text
     class="cls-20"
     id="text124-9-7"
     style="font-style:normal;font-variant:normal;font-weight:normal;font-stretch:normal;font-size:18px;font-family:'PT Serif';-inkscape-font-specification:'PT Serif';word-spacing:0px;fill:#111111;fill-opacity:1"
     x="5.2213593"
     y="181.92607">Hispanic</text>
  <text
     class="cls-20"
     id="text124-9-71"
     style="font-style:normal;font-variant:normal;font-weight:normal;font-stretch:normal;font-size:18px;font-family:'PT Serif';-inkscape-font-specification:'PT Serif';word-spacing:0px;fill:#111111;fill-opacity:1"
     x="33.102219"
     y="232.08255">Asian</text>
</svg>
