<svg id="Layer_1" data-name="Layer 1" xmlns="http://www.w3.org/2000/svg" viewBox="0 0 484 284"><defs><style>.cls-1{fill:none;stroke:#d9d9d9;stroke-linejoin:round;stroke-width:1px;}.cls-19,.cls-2{fill:#b2b2b2;}.cls-3,.cls-30{fill:#ed7d31;}.cls-37,.cls-4{fill:#ffd98d;}.cls-49,.cls-5{fill:#e0a500;}.cls-11,.cls-15,.cls-18,.cls-20,.cls-6{font-size:11.99px;}.cls-11,.cls-15,.cls-18,.cls-6{font-family:Interstate-Bold, Interstate-Bold;}.cls-6{letter-spacing:0.03em;}.cls-7{letter-spacing:-0.02em;}.cls-8{letter-spacing:0.02em;}.cls-9{letter-spacing:0em;}.cls-10{letter-spacing:0em;}.cls-11{letter-spacing:0.04em;}.cls-12{letter-spacing:-0.06em;}.cls-13{letter-spacing:-0.01em;}.cls-14{letter-spacing:0.04em;}.cls-16{letter-spacing:-0.04em;}.cls-17{letter-spacing:0.02em;}.cls-18{letter-spacing:0em;}.cls-19,.cls-30,.cls-37,.cls-49{fill-rule:evenodd;}.cls-20{fill:#595959;font-family:Interstate-Light, Interstate-Light;}.cls-21{letter-spacing:0.02em;}.cls-22{letter-spacing:-0.03em;}.cls-23{letter-spacing:-0.03em;}.cls-24{letter-spacing:0.03em;}.cls-25{letter-spacing:-0.06em;}.cls-26{letter-spacing:-0.01em;}.cls-27{letter-spacing:-0.02em;}.cls-28{letter-spacing:0.02em;}.cls-29{letter-spacing:0em;}.cls-31{letter-spacing:-0.04em;}.cls-32{letter-spacing:0.05em;}.cls-33{letter-spacing:-0.05em;}.cls-34{letter-spacing:0.05em;}.cls-35{letter-spacing:0.03em;}.cls-36{letter-spacing:0em;}.cls-38{letter-spacing:-0.04em;}.cls-39{letter-spacing:-0.03em;}.cls-40{letter-spacing:-0.01em;}.cls-41{letter-spacing:0.06em;}.cls-42{letter-spacing:-0.03em;}.cls-43{letter-spacing:0.02em;}.cls-44{letter-spacing:0.02em;}.cls-45{letter-spacing:-0.01em;}.cls-46{letter-spacing:0.02em;}.cls-47{letter-spacing:-0.06em;}.cls-48{letter-spacing:0.08em;}.cls-50{letter-spacing:-0.06em;}.cls-51{letter-spacing:0em;}.cls-52{letter-spacing:-0.05em;}.cls-53{letter-spacing:-0.06em;}.cls-54{letter-spacing:-0.06em;}.cls-55{letter-spacing:-0.02em;}</style></defs><title>Millennials - static graphics v1 revised - Separate artboards</title><path class="cls-1" d="M163.86,244.24V67.36m66.06,176.88V67.36M295,244.24V67.36m66.06,176.88V67.36m66.06,176.88V67.36"/><path class="cls-2" d="M239.43,72.86H97.29v7H239.43v-7Zm-67.07,53H97.29v7h75.07v-7Zm-20,53H97.29v7h55.05v-7Zm149.15,53H97.29v8h204.2v-8Z"/><path class="cls-3" d="M336.53,72.86h-97.1v7h97.1v-7Zm-47,53H172.37v7H289.48v-7Zm-50,53H152.35v7h87.09v-7Zm121.12,53H301.49v8h59.06v-8Z"/><path class="cls-4" d="M410.6,72.86H336.53v7H410.6v-7Zm-6,53H289.48v7H404.6v-7Zm-62.06,53H239.43v7h103.1v-7Zm67.07,53h-49v8h49v-8Z"/><path class="cls-5" d="M427,72.86H409.91v7H427v-7Zm0,53H403.87v7H427v-7Zm0,53H341.54v7H427v-7Zm0,53H408.9v8H427v-8Z"/><line class="cls-1" x1="97.79" y1="67.36" x2="97.79" y2="244.24"/><text class="cls-6" transform="translate(53.7 82.86)">W<tspan class="cls-7" x="10.89" y="0">h</tspan><tspan class="cls-8" x="17.59" y="0">i</tspan><tspan class="cls-9" x="21.21" y="0">t</tspan><tspan class="cls-10" x="26.5" y="0">e</tspan></text><text class="cls-11" transform="translate(55.58 135.09)">B<tspan class="cls-12" x="8.98" y="0">l</tspan><tspan class="cls-8" x="11.62" y="0">a</tspan><tspan class="cls-13" x="18.53" y="0">c</tspan><tspan class="cls-14" x="24.89" y="0">k</tspan></text><text class="cls-15" transform="translate(39.24 187.33)"><tspan class="cls-16">H</tspan><tspan class="cls-8" x="8.49" y="0">i</tspan><tspan class="cls-17" x="12.11" y="0">s</tspan><tspan class="cls-7" x="18.85" y="0">p</tspan><tspan class="cls-8" x="25.29" y="0">a</tspan><tspan class="cls-7" x="32.2" y="0">n</tspan><tspan class="cls-8" x="38.9" y="0">i</tspan><tspan x="42.52" y="0">c</tspan></text><text class="cls-18" transform="translate(55.44 239.57)">A<tspan class="cls-17" x="9.04" y="0">s</tspan><tspan class="cls-12" x="15.78" y="0">i</tspan><tspan class="cls-8" x="18.42" y="0">a</tspan><tspan class="cls-7" x="25.33" y="0">n</tspan></text><polygon class="cls-19" points="3.75 41.01 15.46 41.01 15.46 51.01 3.75 51.01 3.75 41.01 3.75 41.01"/><text class="cls-20" transform="translate(14.28 49.95)"><tspan class="cls-21"> </tspan><tspan class="cls-22" x="3.39" y="0">C</tspan><tspan class="cls-23" x="10.53" y="0">o</tspan><tspan class="cls-8" x="16.99" y="0">ll</tspan><tspan class="cls-10" x="23.49" y="0">e</tspan><tspan class="cls-24" x="29.99" y="0">g</tspan><tspan class="cls-10" x="37.04" y="0">e</tspan><tspan class="cls-25" x="43.54" y="0"> </tspan><tspan x="45.95" y="0">g</tspan><tspan class="cls-26" x="52.66" y="0">r</tspan><tspan class="cls-8" x="57.36" y="0">a</tspan><tspan class="cls-27" x="64.06" y="0">du</tspan><tspan class="cls-28" x="76.96" y="0">a</tspan><tspan class="cls-29" x="83.67" y="0">t</tspan><tspan x="88.11" y="0">e</tspan></text><polygon class="cls-30" points="119.47 41.01 131.17 41.01 131.17 51.01 119.47 51.01 119.47 41.01 119.47 41.01"/><text class="cls-20" transform="translate(129.99 49.95)"><tspan class="cls-21"> </tspan><tspan class="cls-31" x="3.39" y="0">S</tspan><tspan class="cls-32" x="9.99" y="0">o</tspan><tspan class="cls-33" x="17.44" y="0">m</tspan><tspan class="cls-10" x="27.03" y="0">e</tspan><tspan class="cls-21" x="33.53" y="0"> </tspan><tspan x="36.92" y="0">c</tspan><tspan class="cls-34" x="42.86" y="0">o</tspan><tspan class="cls-12" x="50.31" y="0">l</tspan><tspan class="cls-28" x="52.57" y="0">l</tspan><tspan class="cls-10" x="55.82" y="0">e</tspan><tspan class="cls-35" x="62.32" y="0">g</tspan><tspan class="cls-36" x="69.37" y="0">e</tspan></text><polygon class="cls-37" points="215.99 41.01 227.69 41.01 227.69 51.01 215.99 51.01 215.99 41.01 215.99 41.01"/><text class="cls-20" transform="translate(226.51 49.95)"><tspan class="cls-21"> </tspan><tspan class="cls-38" x="3.39" y="0">H</tspan><tspan class="cls-8" x="11.18" y="0">i</tspan><tspan class="cls-35" x="14.43" y="0">g</tspan><tspan class="cls-39" x="21.48" y="0">h</tspan><tspan class="cls-21" x="27.98" y="0"> </tspan><tspan x="31.37" y="0">s</tspan><tspan class="cls-40" x="36.97" y="0">c</tspan><tspan class="cls-41" x="42.83" y="0">h</tspan><tspan class="cls-42" x="50.32" y="0">oo</tspan><tspan class="cls-43" x="63.24" y="0">l</tspan><tspan class="cls-44" x="66.49" y="0"> </tspan><tspan x="69.89" y="0">g</tspan><tspan class="cls-45" x="76.59" y="0">r</tspan><tspan class="cls-46" x="81.29" y="0">a</tspan><tspan class="cls-39" x="87.99" y="0">d</tspan><tspan class="cls-41" x="94.4" y="0">u</tspan><tspan class="cls-47" x="101.88" y="0">a</tspan><tspan class="cls-48" x="107.6" y="0">t</tspan><tspan x="113.03" y="0">e</tspan></text><polygon class="cls-49" points="356.67 41.01 366.71 41.01 366.71 51.01 356.67 51.01 356.67 41.01 356.67 41.01"/><text class="cls-20" transform="translate(365.53 49.95)"><tspan class="cls-21"> </tspan><tspan class="cls-50" x="3.39" y="0">N</tspan><tspan class="cls-34" x="10.9" y="0">o</tspan><tspan class="cls-51" x="18.35" y="0">t</tspan><tspan class="cls-21" x="22.8" y="0"> </tspan><tspan x="26.19" y="0">h</tspan><tspan class="cls-8" x="32.99" y="0">i</tspan><tspan class="cls-52" x="36.24" y="0">g</tspan><tspan class="cls-41" x="42.29" y="0">h</tspan><tspan class="cls-53" x="49.78" y="0"> </tspan><tspan x="52.19" y="0">s</tspan><tspan class="cls-13" x="57.79" y="0">c</tspan><tspan class="cls-27" x="63.65" y="0">h</tspan><tspan class="cls-34" x="70.15" y="0">o</tspan><tspan class="cls-42" x="77.6" y="0">o</tspan><tspan class="cls-8" x="84.06" y="0">l</tspan><tspan class="cls-54" x="87.31" y="0"> </tspan><tspan x="89.72" y="0">g</tspan><tspan class="cls-55" x="96.42" y="0">r</tspan><tspan class="cls-8" x="101.13" y="0">a</tspan><tspan x="107.83" y="0">d</tspan></text></svg>